<svg width="572" height="282" viewBox="0 0 572 282" fill="none" xmlns="http://www.w3.org/2000/svg">
<path d="M463 76L550.469 227.5H375.531L463 76Z" fill="#97C2DC"/>
<path d="M193.672 54L107.5 203.996L21.3283 54L193.672 54Z" fill="#97C2DC" fill-opacity="0.8" stroke="#97C2DC"/>
<path d="M231.5 66L318.536 217.5H144.464L231.5 66Z" fill="#97C2DC"/>
<path d="M346 205L258.531 53.5L433.469 53.5L346 205Z" fill="#97C2DC"/>
<path d="M62.88 96.0283H58.8839L58.8624 93.9443H62.2891C62.8764 93.9443 63.3669 93.862 63.7608 93.6973C64.1547 93.5326 64.4519 93.2926 64.6524 92.9775C64.8601 92.6624 64.9639 92.2793 64.9639 91.8281C64.9639 91.3268 64.8673 90.9186 64.6739 90.6035C64.4877 90.2884 64.1941 90.0592 63.793 89.916C63.392 89.7656 62.8835 89.6904 62.2677 89.6904H59.8399V103H56.8858V87.3594H62.2677C63.1557 87.3594 63.947 87.4453 64.6417 87.6172C65.3435 87.7819 65.9379 88.0397 66.4249 88.3906C66.9119 88.7415 67.2807 89.182 67.5313 89.7119C67.7891 90.2419 67.918 90.8721 67.918 91.6025C67.918 92.2471 67.7677 92.8415 67.4669 93.3857C67.1733 93.9229 66.7185 94.3597 66.1026 94.6963C65.4939 95.0329 64.7205 95.2262 63.7823 95.2764L62.88 96.0283ZM62.7511 103H58.0137L59.2491 100.68H62.7511C63.3383 100.68 63.8217 100.583 64.2012 100.39C64.588 100.196 64.8744 99.9313 65.0606 99.5947C65.254 99.251 65.3507 98.8571 65.3507 98.4131C65.3507 97.9261 65.2647 97.5036 65.0928 97.1455C64.9281 96.7874 64.6632 96.5117 64.2979 96.3184C63.9399 96.125 63.4672 96.0283 62.88 96.0283H59.8077L59.8292 93.9443H63.7393L64.4161 94.75C65.3184 94.7572 66.0525 94.9362 66.6182 95.2871C67.1912 95.638 67.6137 96.0892 67.8858 96.6406C68.158 97.1921 68.294 97.7865 68.294 98.4238C68.294 99.4264 68.0756 100.268 67.6387 100.948C67.2091 101.629 66.5789 102.141 65.7481 102.484C64.9246 102.828 63.9255 103 62.7511 103ZM74.8781 87.3594V103H71.924V87.3594H74.8781ZM91.6136 94.7822V95.5879C91.6136 96.7695 91.456 97.833 91.1409 98.7783C90.8258 99.7165 90.3782 100.515 89.7982 101.174C89.2181 101.833 88.527 102.338 87.7249 102.688C86.9228 103.039 86.0312 103.215 85.0501 103.215C84.0833 103.215 83.1953 103.039 82.3861 102.688C81.584 102.338 80.8893 101.833 80.3021 101.174C79.7148 100.515 79.2601 99.7165 78.9378 98.7783C78.6155 97.833 78.4544 96.7695 78.4544 95.5879V94.7822C78.4544 93.5934 78.6155 92.5299 78.9378 91.5918C79.2601 90.6536 79.7112 89.8551 80.2913 89.1963C80.8714 88.5303 81.5625 88.0218 82.3646 87.6709C83.1738 87.32 84.0618 87.1445 85.0286 87.1445C86.0098 87.1445 86.9014 87.32 87.7034 87.6709C88.5055 88.0218 89.1966 88.5303 89.7767 89.1963C90.3639 89.8551 90.8151 90.6536 91.1302 91.5918C91.4525 92.5299 91.6136 93.5934 91.6136 94.7822ZM88.6273 95.5879V94.7607C88.6273 93.9085 88.5485 93.1602 88.3909 92.5156C88.2334 91.8639 88.0006 91.3161 87.6927 90.8721C87.3848 90.4281 87.0052 90.0951 86.554 89.873C86.1028 89.6439 85.5944 89.5293 85.0286 89.5293C84.4557 89.5293 83.9473 89.6439 83.5032 89.873C83.0664 90.0951 82.694 90.4281 82.3861 90.8721C82.0781 91.3161 81.8418 91.8639 81.6771 92.5156C81.5195 93.1602 81.4407 93.9085 81.4407 94.7607V95.5879C81.4407 96.4329 81.5195 97.1813 81.6771 97.833C81.8418 98.4847 82.0781 99.0361 82.3861 99.4873C82.7012 99.9313 83.0807 100.268 83.5247 100.497C83.9687 100.726 84.4772 100.841 85.0501 100.841C85.623 100.841 86.1315 100.726 86.5755 100.497C87.0195 100.268 87.3919 99.9313 87.6927 99.4873C88.0006 99.0361 88.2334 98.4847 88.3909 97.833C88.5485 97.1813 88.6273 96.4329 88.6273 95.5879ZM104.922 100.68V103H97.059V100.68H104.922ZM97.9506 87.3594V103H94.9965V87.3594H97.9506ZM119.735 94.7822V95.5879C119.735 96.7695 119.577 97.833 119.262 98.7783C118.947 99.7165 118.5 100.515 117.919 101.174C117.339 101.833 116.648 102.338 115.846 102.688C115.044 103.039 114.153 103.215 113.171 103.215C112.205 103.215 111.317 103.039 110.507 102.688C109.705 102.338 109.011 101.833 108.423 101.174C107.836 100.515 107.381 99.7165 107.059 98.7783C106.737 97.833 106.576 96.7695 106.576 95.5879V94.7822C106.576 93.5934 106.737 92.5299 107.059 91.5918C107.381 90.6536 107.833 89.8551 108.413 89.1963C108.993 88.5303 109.684 88.0218 110.486 87.6709C111.295 87.32 112.183 87.1445 113.15 87.1445C114.131 87.1445 115.023 87.32 115.825 87.6709C116.627 88.0218 117.318 88.5303 117.898 89.1963C118.485 89.8551 118.936 90.6536 119.252 91.5918C119.574 92.5299 119.735 93.5934 119.735 94.7822ZM116.749 95.5879V94.7607C116.749 93.9085 116.67 93.1602 116.512 92.5156C116.355 91.8639 116.122 91.3161 115.814 90.8721C115.506 90.4281 115.127 90.0951 114.675 89.873C114.224 89.6439 113.716 89.5293 113.15 89.5293C112.577 89.5293 112.069 89.6439 111.625 89.873C111.188 90.0951 110.815 90.4281 110.507 90.8721C110.199 91.3161 109.963 91.8639 109.798 92.5156C109.641 93.1602 109.562 93.9085 109.562 94.7607V95.5879C109.562 96.4329 109.641 97.1813 109.798 97.833C109.963 98.4847 110.199 99.0361 110.507 99.4873C110.822 99.9313 111.202 100.268 111.646 100.497C112.09 100.726 112.599 100.841 113.171 100.841C113.744 100.841 114.253 100.726 114.697 100.497C115.141 100.268 115.513 99.9313 115.814 99.4873C116.122 99.0361 116.355 98.4847 116.512 97.833C116.67 97.1813 116.749 96.4329 116.749 95.5879ZM135.321 94.9111V101.002C135.092 101.296 134.73 101.614 134.236 101.958C133.749 102.302 133.112 102.599 132.324 102.85C131.536 103.093 130.569 103.215 129.424 103.215C128.428 103.215 127.519 103.05 126.695 102.721C125.871 102.384 125.162 101.894 124.568 101.249C123.974 100.604 123.515 99.8167 123.193 98.8857C122.871 97.9548 122.71 96.8913 122.71 95.6953V94.6641C122.71 93.4681 122.86 92.4046 123.161 91.4736C123.469 90.5426 123.906 89.7549 124.471 89.1104C125.044 88.4658 125.728 87.9753 126.523 87.6387C127.325 87.3021 128.22 87.1338 129.209 87.1338C130.534 87.1338 131.622 87.3522 132.474 87.7891C133.334 88.2259 133.993 88.8275 134.451 89.5938C134.909 90.3529 135.196 91.2266 135.31 92.2148H132.431C132.353 91.6706 132.195 91.1943 131.959 90.7861C131.722 90.3708 131.386 90.0485 130.949 89.8193C130.519 89.583 129.961 89.4648 129.273 89.4648C128.693 89.4648 128.181 89.5794 127.737 89.8086C127.293 90.0378 126.921 90.3708 126.62 90.8076C126.319 91.2445 126.09 91.7852 125.932 92.4297C125.782 93.0742 125.707 93.8118 125.707 94.6426V95.6953C125.707 96.5332 125.793 97.278 125.965 97.9297C126.136 98.5742 126.383 99.1185 126.706 99.5625C127.035 99.9993 127.44 100.332 127.92 100.562C128.407 100.784 128.958 100.895 129.574 100.895C130.132 100.895 130.594 100.848 130.96 100.755C131.332 100.655 131.629 100.536 131.851 100.4C132.073 100.264 132.245 100.132 132.367 100.003V97.0703H129.262V94.9111H135.321ZM142.141 87.3594V103H139.187V87.3594H142.141ZM139.273 86.3711L141.379 83.1055H144.515L141.583 86.3711H139.273ZM152.625 89.7334L148.167 103H145.041L150.885 87.3594H152.883L152.625 89.7334ZM156.352 103L151.873 89.7334L151.604 87.3594H153.613L159.489 103H156.352ZM156.148 97.1885V99.5195H147.759V97.1885H156.148Z" fill="#1A1318"/>
<path d="M305.563 100.68V103H297.249V100.68H305.563ZM298.151 87.3594V103H295.197V87.3594H298.151ZM304.478 93.8154V96.082H297.249V93.8154H304.478ZM305.531 87.3594V89.6904H297.249V87.3594H305.531ZM309.784 87.3594H312.341L316.616 99.1328L320.881 87.3594H323.448L317.636 103H315.585L309.784 87.3594ZM308.495 87.3594H310.998L311.449 98.1768V103H308.495V87.3594ZM322.223 87.3594H324.737V103H321.783V98.1768L322.223 87.3594ZM341.29 94.7822V95.5879C341.29 96.7695 341.132 97.833 340.817 98.7783C340.502 99.7165 340.055 100.515 339.474 101.174C338.894 101.833 338.203 102.338 337.401 102.688C336.599 103.039 335.708 103.215 334.726 103.215C333.76 103.215 332.872 103.039 332.062 102.688C331.26 102.338 330.566 101.833 329.978 101.174C329.391 100.515 328.936 99.7165 328.614 98.7783C328.292 97.833 328.131 96.7695 328.131 95.5879V94.7822C328.131 93.5934 328.292 92.5299 328.614 91.5918C328.936 90.6536 329.388 89.8551 329.968 89.1963C330.548 88.5303 331.239 88.0218 332.041 87.6709C332.85 87.32 333.738 87.1445 334.705 87.1445C335.686 87.1445 336.578 87.32 337.38 87.6709C338.182 88.0218 338.873 88.5303 339.453 89.1963C340.04 89.8551 340.491 90.6536 340.807 91.5918C341.129 92.5299 341.29 93.5934 341.29 94.7822ZM338.304 95.5879V94.7607C338.304 93.9085 338.225 93.1602 338.067 92.5156C337.91 91.8639 337.677 91.3161 337.369 90.8721C337.061 90.4281 336.682 90.0951 336.23 89.873C335.779 89.6439 335.271 89.5293 334.705 89.5293C334.132 89.5293 333.624 89.6439 333.18 89.873C332.743 90.0951 332.37 90.4281 332.062 90.8721C331.754 91.3161 331.518 91.8639 331.353 92.5156C331.196 93.1602 331.117 93.9085 331.117 94.7607V95.5879C331.117 96.4329 331.196 97.1813 331.353 97.833C331.518 98.4847 331.754 99.0361 332.062 99.4873C332.377 99.9313 332.757 100.268 333.201 100.497C333.645 100.726 334.154 100.841 334.726 100.841C335.299 100.841 335.808 100.726 336.252 100.497C336.696 100.268 337.068 99.9313 337.369 99.4873C337.677 99.0361 337.91 98.4847 338.067 97.833C338.225 97.1813 338.304 96.4329 338.304 95.5879ZM353.825 97.8545H356.779C356.701 98.9001 356.41 99.8275 355.909 100.637C355.408 101.439 354.71 102.069 353.814 102.527C352.919 102.986 351.834 103.215 350.56 103.215C349.578 103.215 348.694 103.043 347.906 102.699C347.126 102.348 346.456 101.851 345.897 101.206C345.346 100.554 344.924 99.7738 344.63 98.8643C344.336 97.9476 344.189 96.9199 344.189 95.7812V94.5889C344.189 93.4502 344.34 92.4225 344.641 91.5059C344.941 90.5892 345.371 89.8086 345.93 89.1641C346.495 88.5124 347.172 88.0111 347.96 87.6602C348.755 87.3092 349.643 87.1338 350.624 87.1338C351.899 87.1338 352.977 87.3701 353.857 87.8428C354.738 88.3083 355.422 88.9492 355.909 89.7656C356.396 90.582 356.69 91.5202 356.79 92.5801H353.836C353.779 91.9212 353.635 91.3626 353.406 90.9043C353.184 90.446 352.848 90.0986 352.396 89.8623C351.952 89.6188 351.362 89.4971 350.624 89.4971C350.051 89.4971 349.546 89.6045 349.109 89.8193C348.68 90.0342 348.322 90.3564 348.035 90.7861C347.749 91.2087 347.534 91.7386 347.391 92.376C347.247 93.0062 347.176 93.7367 347.176 94.5674V95.7812C347.176 96.5762 347.24 97.2887 347.369 97.9189C347.498 98.5492 347.699 99.0827 347.971 99.5195C348.243 99.9564 348.594 100.289 349.023 100.519C349.453 100.748 349.965 100.862 350.56 100.862C351.283 100.862 351.87 100.748 352.321 100.519C352.78 100.289 353.127 99.9528 353.363 99.5088C353.607 99.0648 353.761 98.5133 353.825 97.8545ZM363.095 87.3594V103H360.141V87.3594H363.095ZM379.83 94.7822V95.5879C379.83 96.7695 379.673 97.833 379.358 98.7783C379.043 99.7165 378.595 100.515 378.015 101.174C377.435 101.833 376.744 102.338 375.942 102.688C375.14 103.039 374.248 103.215 373.267 103.215C372.3 103.215 371.412 103.039 370.603 102.688C369.801 102.338 369.106 101.833 368.519 101.174C367.932 100.515 367.477 99.7165 367.155 98.7783C366.832 97.833 366.671 96.7695 366.671 95.5879V94.7822C366.671 93.5934 366.832 92.5299 367.155 91.5918C367.477 90.6536 367.928 89.8551 368.508 89.1963C369.088 88.5303 369.779 88.0218 370.581 87.6709C371.391 87.32 372.279 87.1445 373.245 87.1445C374.226 87.1445 375.118 87.32 375.92 87.6709C376.722 88.0218 377.413 88.5303 377.993 89.1963C378.581 89.8551 379.032 90.6536 379.347 91.5918C379.669 92.5299 379.83 93.5934 379.83 94.7822ZM376.844 95.5879V94.7607C376.844 93.9085 376.765 93.1602 376.608 92.5156C376.45 91.8639 376.217 91.3161 375.909 90.8721C375.601 90.4281 375.222 90.0951 374.771 89.873C374.32 89.6439 373.811 89.5293 373.245 89.5293C372.672 89.5293 372.164 89.6439 371.72 89.873C371.283 90.0951 370.911 90.4281 370.603 90.8721C370.295 91.3161 370.059 91.8639 369.894 92.5156C369.736 93.1602 369.657 93.9085 369.657 94.7607V95.5879C369.657 96.4329 369.736 97.1813 369.894 97.833C370.059 98.4847 370.295 99.0361 370.603 99.4873C370.918 99.9313 371.297 100.268 371.741 100.497C372.185 100.726 372.694 100.841 373.267 100.841C373.84 100.841 374.348 100.726 374.792 100.497C375.236 100.268 375.609 99.9313 375.909 99.4873C376.217 99.0361 376.45 98.4847 376.608 97.833C376.765 97.1813 376.844 96.4329 376.844 95.5879ZM371.87 86.4248L373.976 83.1592H377.113L374.18 86.4248H371.87ZM395.782 87.3594V103H392.817L386.167 92.1504V103H383.213V87.3594H386.167L392.838 98.2197V87.3594H395.782Z" fill="#1A1318"/>
<path d="M214.174 144.733L209.716 158H206.59L212.434 142.359H214.432L214.174 144.733ZM217.902 158L213.422 144.733L213.154 142.359H215.162L221.038 158H217.902ZM217.698 152.188V154.52H209.308V152.188H217.698ZM226.677 142.359V158H223.723V142.359H226.677ZM230.748 142.359H236.43C237.619 142.359 238.64 142.538 239.492 142.896C240.344 143.255 240.999 143.785 241.458 144.486C241.916 145.188 242.145 146.051 242.145 147.075C242.145 147.884 242.002 148.586 241.715 149.181C241.429 149.775 241.024 150.273 240.502 150.674C239.986 151.075 239.377 151.39 238.675 151.619L237.752 152.092H232.735L232.713 149.761H236.462C237.071 149.761 237.576 149.653 237.977 149.438C238.378 149.224 238.679 148.926 238.879 148.547C239.087 148.167 239.191 147.734 239.191 147.247C239.191 146.724 239.091 146.273 238.89 145.894C238.69 145.507 238.385 145.21 237.977 145.002C237.569 144.794 237.053 144.69 236.43 144.69H233.702V158H230.748V142.359ZM239.578 158L235.958 150.996L239.084 150.985L242.747 157.85V158H239.578ZM255.98 155.68V158H247.666V155.68H255.98ZM248.568 142.359V158H245.614V142.359H248.568ZM254.895 148.815V151.082H247.666V148.815H254.895ZM255.948 142.359V144.69H247.666V142.359H255.948Z" fill="#1A1318"/>
<path d="M431.119 152.359V168H428.165V152.359H431.119ZM437.425 159.116V161.447H430.345V159.116H437.425ZM438.252 152.359V154.69H430.345V152.359H438.252ZM449.842 152.359H452.796V162.747C452.796 163.943 452.538 164.949 452.022 165.766C451.507 166.575 450.805 167.187 449.917 167.603C449.029 168.011 448.019 168.215 446.888 168.215C445.742 168.215 444.721 168.011 443.826 167.603C442.931 167.187 442.229 166.575 441.721 165.766C441.212 164.949 440.958 163.943 440.958 162.747V152.359H443.912V162.747C443.912 163.478 444.034 164.076 444.277 164.541C444.521 164.999 444.864 165.34 445.308 165.562C445.752 165.784 446.279 165.895 446.888 165.895C447.503 165.895 448.03 165.784 448.467 165.562C448.911 165.34 449.251 164.999 449.487 164.541C449.724 164.076 449.842 163.478 449.842 162.747V152.359ZM466.846 165.68V168H458.531V165.68H466.846ZM459.434 152.359V168H456.479V152.359H459.434ZM465.761 158.815V161.082H458.531V158.815H465.761ZM466.813 152.359V154.69H458.531V152.359H466.813ZM481.981 159.911V166.002C481.751 166.296 481.39 166.614 480.896 166.958C480.409 167.302 479.771 167.599 478.984 167.85C478.196 168.093 477.229 168.215 476.083 168.215C475.088 168.215 474.178 168.05 473.355 167.721C472.531 167.384 471.822 166.894 471.228 166.249C470.633 165.604 470.175 164.817 469.853 163.886C469.53 162.955 469.369 161.891 469.369 160.695V159.664C469.369 158.468 469.52 157.405 469.82 156.474C470.128 155.543 470.565 154.755 471.131 154.11C471.704 153.466 472.388 152.975 473.183 152.639C473.985 152.302 474.88 152.134 475.868 152.134C477.193 152.134 478.282 152.352 479.134 152.789C479.993 153.226 480.652 153.827 481.11 154.594C481.569 155.353 481.855 156.227 481.97 157.215H479.091C479.012 156.671 478.855 156.194 478.618 155.786C478.382 155.371 478.045 155.049 477.609 154.819C477.179 154.583 476.62 154.465 475.933 154.465C475.353 154.465 474.841 154.579 474.397 154.809C473.953 155.038 473.58 155.371 473.279 155.808C472.979 156.244 472.749 156.785 472.592 157.43C472.442 158.074 472.366 158.812 472.366 159.643V160.695C472.366 161.533 472.452 162.278 472.624 162.93C472.796 163.574 473.043 164.118 473.365 164.562C473.695 164.999 474.099 165.332 474.579 165.562C475.066 165.784 475.618 165.895 476.234 165.895C476.792 165.895 477.254 165.848 477.619 165.755C477.992 165.655 478.289 165.536 478.511 165.4C478.733 165.264 478.905 165.132 479.026 165.003V162.07H475.922V159.911H481.981ZM498.319 159.782V160.588C498.319 161.77 498.161 162.833 497.846 163.778C497.531 164.716 497.083 165.515 496.503 166.174C495.923 166.833 495.232 167.338 494.43 167.688C493.628 168.039 492.736 168.215 491.755 168.215C490.788 168.215 489.9 168.039 489.091 167.688C488.289 167.338 487.594 166.833 487.007 166.174C486.42 165.515 485.965 164.716 485.643 163.778C485.321 162.833 485.159 161.77 485.159 160.588V159.782C485.159 158.593 485.321 157.53 485.643 156.592C485.965 155.654 486.416 154.855 486.996 154.196C487.576 153.53 488.267 153.022 489.07 152.671C489.879 152.32 490.767 152.145 491.734 152.145C492.715 152.145 493.606 152.32 494.408 152.671C495.211 153.022 495.902 153.53 496.482 154.196C497.069 154.855 497.52 155.654 497.835 156.592C498.157 157.53 498.319 158.593 498.319 159.782ZM495.332 160.588V159.761C495.332 158.909 495.253 158.16 495.096 157.516C494.938 156.864 494.706 156.316 494.398 155.872C494.09 155.428 493.71 155.095 493.259 154.873C492.808 154.644 492.299 154.529 491.734 154.529C491.161 154.529 490.652 154.644 490.208 154.873C489.771 155.095 489.399 155.428 489.091 155.872C488.783 156.316 488.547 156.864 488.382 157.516C488.225 158.16 488.146 158.909 488.146 159.761V160.588C488.146 161.433 488.225 162.181 488.382 162.833C488.547 163.485 488.783 164.036 489.091 164.487C489.406 164.931 489.786 165.268 490.23 165.497C490.674 165.726 491.182 165.841 491.755 165.841C492.328 165.841 492.836 165.726 493.281 165.497C493.725 165.268 494.097 164.931 494.398 164.487C494.706 164.036 494.938 163.485 495.096 162.833C495.253 162.181 495.332 161.433 495.332 160.588Z" fill="#1A1318"/>
<path d="M166.288 182.854H169.243C169.164 183.9 168.874 184.827 168.372 185.637C167.871 186.439 167.173 187.069 166.278 187.527C165.383 187.986 164.298 188.215 163.023 188.215C162.042 188.215 161.157 188.043 160.37 187.699C159.589 187.348 158.919 186.851 158.361 186.206C157.809 185.554 157.387 184.774 157.093 183.864C156.8 182.948 156.653 181.92 156.653 180.781V179.589C156.653 178.45 156.803 177.423 157.104 176.506C157.405 175.589 157.834 174.809 158.393 174.164C158.959 173.512 159.635 173.011 160.423 172.66C161.218 172.309 162.106 172.134 163.087 172.134C164.362 172.134 165.44 172.37 166.321 172.843C167.202 173.308 167.885 173.949 168.372 174.766C168.859 175.582 169.153 176.52 169.253 177.58H166.299C166.242 176.921 166.099 176.363 165.87 175.904C165.648 175.446 165.311 175.099 164.86 174.862C164.416 174.619 163.825 174.497 163.087 174.497C162.514 174.497 162.01 174.604 161.573 174.819C161.143 175.034 160.785 175.356 160.498 175.786C160.212 176.209 159.997 176.739 159.854 177.376C159.711 178.006 159.639 178.737 159.639 179.567V180.781C159.639 181.576 159.704 182.289 159.832 182.919C159.961 183.549 160.162 184.083 160.434 184.52C160.706 184.956 161.057 185.289 161.487 185.519C161.916 185.748 162.428 185.862 163.023 185.862C163.746 185.862 164.333 185.748 164.785 185.519C165.243 185.289 165.59 184.953 165.827 184.509C166.07 184.065 166.224 183.513 166.288 182.854ZM185.076 179.782V180.588C185.076 181.77 184.918 182.833 184.603 183.778C184.288 184.716 183.84 185.515 183.26 186.174C182.68 186.833 181.989 187.338 181.187 187.688C180.385 188.039 179.493 188.215 178.512 188.215C177.545 188.215 176.657 188.039 175.848 187.688C175.046 187.338 174.351 186.833 173.764 186.174C173.177 185.515 172.722 184.716 172.4 183.778C172.078 182.833 171.917 181.77 171.917 180.588V179.782C171.917 178.593 172.078 177.53 172.4 176.592C172.722 175.654 173.173 174.855 173.753 174.196C174.334 173.53 175.025 173.022 175.827 172.671C176.636 172.32 177.524 172.145 178.491 172.145C179.472 172.145 180.363 172.32 181.166 172.671C181.968 173.022 182.659 173.53 183.239 174.196C183.826 174.855 184.277 175.654 184.592 176.592C184.915 177.53 185.076 178.593 185.076 179.782ZM182.089 180.588V179.761C182.089 178.909 182.011 178.16 181.853 177.516C181.695 176.864 181.463 176.316 181.155 175.872C180.847 175.428 180.467 175.095 180.016 174.873C179.565 174.644 179.056 174.529 178.491 174.529C177.918 174.529 177.409 174.644 176.965 174.873C176.529 175.095 176.156 175.428 175.848 175.872C175.54 176.316 175.304 176.864 175.139 177.516C174.982 178.16 174.903 178.909 174.903 179.761V180.588C174.903 181.433 174.982 182.181 175.139 182.833C175.304 183.485 175.54 184.036 175.848 184.487C176.163 184.931 176.543 185.268 176.987 185.497C177.431 185.726 177.939 185.841 178.512 185.841C179.085 185.841 179.594 185.726 180.038 185.497C180.482 185.268 180.854 184.931 181.155 184.487C181.463 184.036 181.695 183.485 181.853 182.833C182.011 182.181 182.089 181.433 182.089 180.588ZM201.027 172.359V188H198.062L191.413 177.15V188H188.459V172.359H191.413L198.084 183.22V172.359H201.027ZM213.1 183.939C213.1 183.639 213.054 183.37 212.961 183.134C212.875 182.89 212.714 182.672 212.477 182.479C212.248 182.278 211.922 182.085 211.5 181.898C211.084 181.705 210.547 181.505 209.888 181.297C209.158 181.068 208.478 180.81 207.847 180.523C207.217 180.237 206.662 179.904 206.182 179.524C205.71 179.145 205.341 178.708 205.076 178.214C204.811 177.713 204.678 177.132 204.678 176.474C204.678 175.829 204.815 175.242 205.087 174.712C205.366 174.182 205.76 173.727 206.268 173.348C206.777 172.961 207.375 172.664 208.062 172.456C208.757 172.248 209.523 172.145 210.361 172.145C211.521 172.145 212.524 172.356 213.369 172.778C214.221 173.201 214.88 173.774 215.345 174.497C215.811 175.22 216.044 176.033 216.044 176.936H213.1C213.1 176.449 212.997 176.019 212.789 175.646C212.588 175.274 212.28 174.98 211.865 174.766C211.457 174.551 210.941 174.443 210.318 174.443C209.717 174.443 209.215 174.533 208.814 174.712C208.42 174.891 208.123 175.134 207.923 175.442C207.729 175.75 207.633 176.094 207.633 176.474C207.633 176.76 207.701 177.018 207.837 177.247C207.973 177.469 208.177 177.68 208.449 177.881C208.721 178.074 209.058 178.257 209.459 178.429C209.867 178.593 210.34 178.758 210.877 178.923C211.736 179.181 212.488 179.467 213.133 179.782C213.784 180.097 214.325 180.455 214.755 180.856C215.191 181.257 215.517 181.709 215.732 182.21C215.954 182.711 216.065 183.281 216.065 183.918C216.065 184.591 215.933 185.193 215.668 185.723C215.403 186.253 215.023 186.704 214.529 187.076C214.035 187.449 213.441 187.731 212.746 187.925C212.058 188.118 211.289 188.215 210.436 188.215C209.677 188.215 208.925 188.115 208.18 187.914C207.443 187.706 206.773 187.398 206.172 186.99C205.57 186.575 205.09 186.052 204.732 185.422C204.374 184.785 204.195 184.04 204.195 183.188H207.16C207.16 183.682 207.239 184.104 207.396 184.455C207.561 184.799 207.79 185.082 208.084 185.304C208.385 185.519 208.735 185.676 209.136 185.776C209.538 185.877 209.971 185.927 210.436 185.927C211.038 185.927 211.532 185.844 211.919 185.68C212.313 185.508 212.606 185.271 212.8 184.971C213 184.67 213.1 184.326 213.1 183.939ZM228.375 182.854H231.329C231.25 183.9 230.96 184.827 230.459 185.637C229.958 186.439 229.259 187.069 228.364 187.527C227.469 187.986 226.384 188.215 225.109 188.215C224.128 188.215 223.244 188.043 222.456 187.699C221.675 187.348 221.006 186.851 220.447 186.206C219.896 185.554 219.473 184.774 219.18 183.864C218.886 182.948 218.739 181.92 218.739 180.781V179.589C218.739 178.45 218.89 177.423 219.19 176.506C219.491 175.589 219.921 174.809 220.479 174.164C221.045 173.512 221.722 173.011 222.51 172.66C223.305 172.309 224.193 172.134 225.174 172.134C226.448 172.134 227.526 172.37 228.407 172.843C229.288 173.308 229.972 173.949 230.459 174.766C230.946 175.582 231.239 176.52 231.34 177.58H228.386C228.328 176.921 228.185 176.363 227.956 175.904C227.734 175.446 227.397 175.099 226.946 174.862C226.502 174.619 225.911 174.497 225.174 174.497C224.601 174.497 224.096 174.604 223.659 174.819C223.229 175.034 222.871 175.356 222.585 175.786C222.298 176.209 222.084 176.739 221.94 177.376C221.797 178.006 221.725 178.737 221.725 179.567V180.781C221.725 181.576 221.79 182.289 221.919 182.919C222.048 183.549 222.248 184.083 222.52 184.52C222.793 184.956 223.143 185.289 223.573 185.519C224.003 185.748 224.515 185.862 225.109 185.862C225.833 185.862 226.42 185.748 226.871 185.519C227.329 185.289 227.677 184.953 227.913 184.509C228.156 184.065 228.31 183.513 228.375 182.854ZM237.645 172.359V188H234.69V172.359H237.645ZM252.081 185.68V188H243.767V185.68H252.081ZM244.669 172.359V188H241.715V172.359H244.669ZM250.996 178.815V181.082H243.767V178.815H250.996ZM252.049 172.359V174.69H243.767V172.359H252.049ZM267.581 172.359V188H264.616L257.967 177.15V188H255.013V172.359H257.967L264.638 183.22V172.359H267.581ZM280.621 182.854H283.576C283.497 183.9 283.207 184.827 282.705 185.637C282.204 186.439 281.506 187.069 280.611 187.527C279.716 187.986 278.631 188.215 277.356 188.215C276.375 188.215 275.49 188.043 274.702 187.699C273.922 187.348 273.252 186.851 272.694 186.206C272.142 185.554 271.72 184.774 271.426 183.864C271.133 182.948 270.986 181.92 270.986 180.781V179.589C270.986 178.45 271.136 177.423 271.437 176.506C271.738 175.589 272.167 174.809 272.726 174.164C273.292 173.512 273.968 173.011 274.756 172.66C275.551 172.309 276.439 172.134 277.42 172.134C278.695 172.134 279.773 172.37 280.654 172.843C281.535 173.308 282.218 173.949 282.705 174.766C283.192 175.582 283.486 176.52 283.586 177.58H280.632C280.575 176.921 280.432 176.363 280.202 175.904C279.98 175.446 279.644 175.099 279.193 174.862C278.749 174.619 278.158 174.497 277.42 174.497C276.847 174.497 276.342 174.604 275.906 174.819C275.476 175.034 275.118 175.356 274.831 175.786C274.545 176.209 274.33 176.739 274.187 177.376C274.044 178.006 273.972 178.737 273.972 179.567V180.781C273.972 181.576 274.036 182.289 274.165 182.919C274.294 183.549 274.495 184.083 274.767 184.52C275.039 184.956 275.39 185.289 275.82 185.519C276.249 185.748 276.761 185.862 277.356 185.862C278.079 185.862 278.666 185.748 279.118 185.519C279.576 185.289 279.923 184.953 280.16 184.509C280.403 184.065 280.557 183.513 280.621 182.854ZM289.891 172.359V188H286.937V172.359H289.891ZM300.375 174.733L295.917 188H292.791L298.634 172.359H300.632L300.375 174.733ZM304.102 188L299.623 174.733L299.354 172.359H301.363L307.239 188H304.102ZM303.898 182.188V184.52H295.508V182.188H303.898Z" fill="#1A1318"/>
<path d="M426.409 195.68V198H418.094V195.68H426.409ZM418.997 182.359V198H416.043V182.359H418.997ZM425.324 188.815V191.082H418.094V188.815H425.324ZM426.377 182.359V184.69H418.094V182.359H426.377ZM441.909 182.359V198H438.944L432.295 187.15V198H429.341V182.359H432.295L438.966 193.22V182.359H441.909ZM456.163 195.68V198H447.849V195.68H456.163ZM448.751 182.359V198H445.797V182.359H448.751ZM455.078 188.815V191.082H447.849V188.815H455.078ZM456.131 182.359V184.69H447.849V182.359H456.131ZM459.095 182.359H464.777C465.966 182.359 466.987 182.538 467.839 182.896C468.691 183.255 469.346 183.785 469.805 184.486C470.263 185.188 470.492 186.051 470.492 187.075C470.492 187.884 470.349 188.586 470.062 189.181C469.776 189.775 469.371 190.273 468.849 190.674C468.333 191.075 467.724 191.39 467.022 191.619L466.099 192.092H461.082L461.061 189.761H464.81C465.418 189.761 465.923 189.653 466.324 189.438C466.725 189.224 467.026 188.926 467.227 188.547C467.434 188.167 467.538 187.734 467.538 187.247C467.538 186.724 467.438 186.273 467.237 185.894C467.037 185.507 466.732 185.21 466.324 185.002C465.916 184.794 465.4 184.69 464.777 184.69H462.049V198H459.095V182.359ZM467.925 198L464.305 190.996L467.431 190.985L471.094 197.85V198H467.925ZM486.164 189.911V196.002C485.935 196.296 485.573 196.614 485.079 196.958C484.592 197.302 483.955 197.599 483.167 197.85C482.379 198.093 481.413 198.215 480.267 198.215C479.271 198.215 478.362 198.05 477.538 197.721C476.715 197.384 476.006 196.894 475.411 196.249C474.817 195.604 474.359 194.817 474.036 193.886C473.714 192.955 473.553 191.891 473.553 190.695V189.664C473.553 188.468 473.703 187.405 474.004 186.474C474.312 185.543 474.749 184.755 475.315 184.11C475.887 183.466 476.571 182.975 477.366 182.639C478.168 182.302 479.064 182.134 480.052 182.134C481.377 182.134 482.465 182.352 483.318 182.789C484.177 183.226 484.836 183.827 485.294 184.594C485.752 185.353 486.039 186.227 486.153 187.215H483.275C483.196 186.671 483.038 186.194 482.802 185.786C482.566 185.371 482.229 185.049 481.792 184.819C481.362 184.583 480.804 184.465 480.116 184.465C479.536 184.465 479.024 184.579 478.58 184.809C478.136 185.038 477.764 185.371 477.463 185.808C477.162 186.244 476.933 186.785 476.776 187.43C476.625 188.074 476.55 188.812 476.55 189.643V190.695C476.55 191.533 476.636 192.278 476.808 192.93C476.98 193.574 477.227 194.118 477.549 194.562C477.878 194.999 478.283 195.332 478.763 195.562C479.25 195.784 479.801 195.895 480.417 195.895C480.976 195.895 481.438 195.848 481.803 195.755C482.175 195.655 482.472 195.536 482.694 195.4C482.916 195.264 483.088 195.132 483.21 195.003V192.07H480.106V189.911H486.164ZM492.985 182.359V198H490.031V182.359H492.985ZM490.116 181.371L492.222 178.105H495.359L492.426 181.371H490.116ZM503.468 184.733L499.01 198H495.884L501.728 182.359H503.726L503.468 184.733ZM507.196 198L502.716 184.733L502.448 182.359H504.456L510.332 198H507.196ZM506.992 192.188V194.52H498.602V192.188H506.992Z" fill="#1A1318"/>
<path d="M76.5275 117.359V133H73.5842V117.359H76.5275ZM81.383 117.359V119.69H68.7824V117.359H81.383ZM87.3763 117.359V133H84.4222V117.359H87.3763ZM101.813 130.68V133H93.4985V130.68H101.813ZM94.4008 117.359V133H91.4467V117.359H94.4008ZM100.728 123.815V126.082H93.4985V123.815H100.728ZM101.781 117.359V119.69H93.4985V117.359H101.781ZM104.745 117.359H110.427C111.616 117.359 112.637 117.538 113.489 117.896C114.341 118.255 114.996 118.785 115.455 119.486C115.913 120.188 116.142 121.051 116.142 122.075C116.142 122.884 115.999 123.586 115.712 124.181C115.426 124.775 115.021 125.273 114.499 125.674C113.983 126.075 113.374 126.39 112.672 126.619L111.749 127.092H106.732L106.711 124.761H110.46C111.068 124.761 111.573 124.653 111.974 124.438C112.375 124.224 112.676 123.926 112.877 123.547C113.084 123.167 113.188 122.734 113.188 122.247C113.188 121.724 113.088 121.273 112.887 120.894C112.687 120.507 112.382 120.21 111.974 120.002C111.566 119.794 111.05 119.69 110.427 119.69H107.699V133H104.745V117.359ZM113.575 133L109.955 125.996L113.081 125.985L116.744 132.85V133H113.575ZM119.611 117.359H125.294C126.482 117.359 127.503 117.538 128.355 117.896C129.207 118.255 129.863 118.785 130.321 119.486C130.779 120.188 131.008 121.051 131.008 122.075C131.008 122.884 130.865 123.586 130.579 124.181C130.292 124.775 129.888 125.273 129.365 125.674C128.849 126.075 128.241 126.39 127.539 126.619L126.615 127.092H121.598L121.577 124.761H125.326C125.935 124.761 126.439 124.653 126.841 124.438C127.242 124.224 127.542 123.926 127.743 123.547C127.951 123.167 128.054 122.734 128.054 122.247C128.054 121.724 127.954 121.273 127.754 120.894C127.553 120.507 127.249 120.21 126.841 120.002C126.432 119.794 125.917 119.69 125.294 119.69H122.565V133H119.611V117.359ZM128.441 133L124.821 125.996L127.947 125.985L131.61 132.85V133H128.441ZM140.697 119.733L136.239 133H133.113L138.957 117.359H140.955L140.697 119.733ZM144.425 133L139.945 119.733L139.677 117.359H141.685L147.561 133H144.425ZM144.221 127.188V129.52H135.831V127.188H144.221Z" fill="#1A1318"/>
<path d="M321.111 119.527L316.248 134H312.837L319.212 116.938H321.392L321.111 119.527ZM325.177 134L320.29 119.527L319.998 116.938H322.189L328.599 134H325.177ZM324.955 127.66V130.203H315.802V127.66H324.955ZM344.418 125.176V131.82C344.168 132.141 343.774 132.488 343.235 132.863C342.704 133.238 342.008 133.562 341.149 133.836C340.29 134.102 339.235 134.234 337.985 134.234C336.899 134.234 335.907 134.055 335.008 133.695C334.11 133.328 333.336 132.793 332.688 132.09C332.04 131.387 331.54 130.527 331.188 129.512C330.836 128.496 330.661 127.336 330.661 126.031V124.906C330.661 123.602 330.825 122.441 331.153 121.426C331.489 120.41 331.965 119.551 332.583 118.848C333.208 118.145 333.954 117.609 334.821 117.242C335.696 116.875 336.672 116.691 337.75 116.691C339.196 116.691 340.383 116.93 341.313 117.406C342.25 117.883 342.969 118.539 343.469 119.375C343.969 120.203 344.282 121.156 344.407 122.234H341.266C341.18 121.641 341.008 121.121 340.75 120.676C340.493 120.223 340.125 119.871 339.649 119.621C339.18 119.363 338.571 119.234 337.821 119.234C337.188 119.234 336.629 119.359 336.145 119.609C335.661 119.859 335.254 120.223 334.926 120.699C334.598 121.176 334.348 121.766 334.176 122.469C334.012 123.172 333.93 123.977 333.93 124.883V126.031C333.93 126.945 334.024 127.758 334.211 128.469C334.399 129.172 334.668 129.766 335.02 130.25C335.379 130.727 335.821 131.09 336.344 131.34C336.875 131.582 337.477 131.703 338.149 131.703C338.758 131.703 339.262 131.652 339.661 131.551C340.067 131.441 340.391 131.312 340.633 131.164C340.875 131.016 341.063 130.871 341.196 130.73V127.531H337.809V125.176H344.418ZM357.917 116.938H361.14V128.27C361.14 129.574 360.859 130.672 360.296 131.562C359.734 132.445 358.968 133.113 358 133.566C357.031 134.012 355.929 134.234 354.695 134.234C353.445 134.234 352.332 134.012 351.355 133.566C350.378 133.113 349.613 132.445 349.058 131.562C348.503 130.672 348.226 129.574 348.226 128.27V116.938H351.449V128.27C351.449 129.066 351.582 129.719 351.847 130.227C352.113 130.727 352.488 131.098 352.972 131.34C353.457 131.582 354.031 131.703 354.695 131.703C355.367 131.703 355.941 131.582 356.417 131.34C356.902 131.098 357.273 130.727 357.531 130.227C357.789 129.719 357.917 129.066 357.917 128.27V116.938ZM371.686 119.527L366.823 134H363.413L369.788 116.938H371.967L371.686 119.527ZM375.753 134L370.866 119.527L370.573 116.938H372.764L379.174 134H375.753ZM375.53 127.66V130.203H366.378V127.66H375.53Z" fill="#1A1318"/>
</svg>
