<svg width="419" height="206" viewBox="0 0 419 206" fill="none" xmlns="http://www.w3.org/2000/svg">
<g clip-path="url(#clip0_2102_2)">
<path d="M96.6832 66.582C97.1559 66.582 97.5927 66.4854 97.9938 66.292C98.3948 66.0986 98.7242 65.8337 98.9821 65.4971C99.2399 65.1533 99.3867 64.763 99.4225 64.3262H101.313C101.277 65.0137 101.045 65.6546 100.615 66.249C100.192 66.8363 99.6373 67.3125 98.9498 67.6777C98.2623 68.0358 97.5068 68.2148 96.6832 68.2148C95.8095 68.2148 95.0468 68.0609 94.3951 67.7529C93.7506 67.445 93.2135 67.0225 92.7838 66.4854C92.3613 65.9482 92.0426 65.3324 91.8278 64.6377C91.6201 63.9359 91.5162 63.1947 91.5162 62.4141V61.9629C91.5162 61.1823 91.6201 60.4447 91.8278 59.75C92.0426 59.0482 92.3613 58.4287 92.7838 57.8916C93.2135 57.3545 93.7506 56.932 94.3951 56.624C95.0468 56.3161 95.8095 56.1621 96.6832 56.1621C97.5927 56.1621 98.3877 56.3483 99.068 56.7207C99.7483 57.0859 100.282 57.5872 100.669 58.2246C101.062 58.8548 101.277 59.571 101.313 60.373H99.4225C99.3867 59.8932 99.2506 59.46 99.0143 59.0732C98.7851 58.6865 98.47 58.3786 98.069 58.1494C97.6751 57.9131 97.2132 57.7949 96.6832 57.7949C96.0745 57.7949 95.5625 57.9167 95.1471 58.1602C94.7389 58.3965 94.413 58.7188 94.1696 59.127C93.9332 59.528 93.7614 59.9756 93.6539 60.4697C93.5537 60.9567 93.5035 61.4544 93.5035 61.9629V62.4141C93.5035 62.9225 93.5537 63.4238 93.6539 63.918C93.7542 64.4121 93.9225 64.8597 94.1588 65.2607C94.4023 65.6618 94.7281 65.984 95.1364 66.2275C95.5517 66.4639 96.0673 66.582 96.6832 66.582ZM103.901 62.3174V62.0703C103.901 61.2324 104.023 60.4554 104.266 59.7393C104.51 59.016 104.861 58.3893 105.319 57.8594C105.777 57.3223 106.332 56.9069 106.984 56.6133C107.636 56.3125 108.366 56.1621 109.176 56.1621C109.992 56.1621 110.726 56.3125 111.378 56.6133C112.037 56.9069 112.595 57.3223 113.053 57.8594C113.519 58.3893 113.873 59.016 114.117 59.7393C114.36 60.4554 114.482 61.2324 114.482 62.0703V62.3174C114.482 63.1553 114.36 63.9323 114.117 64.6484C113.873 65.3646 113.519 65.9912 113.053 66.5283C112.595 67.0583 112.04 67.4736 111.388 67.7744C110.744 68.068 110.013 68.2148 109.197 68.2148C108.381 68.2148 107.647 68.068 106.995 67.7744C106.343 67.4736 105.785 67.0583 105.319 66.5283C104.861 65.9912 104.51 65.3646 104.266 64.6484C104.023 63.9323 103.901 63.1553 103.901 62.3174ZM105.888 62.0703V62.3174C105.888 62.8975 105.956 63.4453 106.093 63.9609C106.229 64.4694 106.433 64.9206 106.705 65.3145C106.984 65.7083 107.331 66.0199 107.747 66.249C108.162 66.471 108.646 66.582 109.197 66.582C109.741 66.582 110.218 66.471 110.626 66.249C111.041 66.0199 111.385 65.7083 111.657 65.3145C111.929 64.9206 112.133 64.4694 112.269 63.9609C112.413 63.4453 112.484 62.8975 112.484 62.3174V62.0703C112.484 61.4974 112.413 60.9567 112.269 60.4482C112.133 59.9326 111.926 59.4779 111.646 59.084C111.374 58.6829 111.03 58.3678 110.615 58.1387C110.207 57.9095 109.727 57.7949 109.176 57.7949C108.631 57.7949 108.151 57.9095 107.736 58.1387C107.328 58.3678 106.984 58.6829 106.705 59.084C106.433 59.4779 106.229 59.9326 106.093 60.4482C105.956 60.9567 105.888 61.4974 105.888 62.0703ZM119.842 58.8584V68H117.854V56.377H119.734L119.842 58.8584ZM119.369 61.748L118.542 61.7158C118.549 60.9209 118.667 60.1868 118.896 59.5137C119.126 58.8333 119.448 58.2425 119.863 57.7412C120.279 57.2399 120.773 56.8532 121.346 56.5811C121.926 56.3018 122.567 56.1621 123.268 56.1621C123.841 56.1621 124.357 56.2409 124.815 56.3984C125.274 56.5488 125.664 56.7923 125.986 57.1289C126.316 57.4655 126.566 57.9023 126.738 58.4395C126.91 58.9694 126.996 59.6175 126.996 60.3838V68H124.998V60.3623C124.998 59.7536 124.908 59.2666 124.729 58.9014C124.55 58.529 124.289 58.2604 123.945 58.0957C123.601 57.9238 123.179 57.8379 122.678 57.8379C122.183 57.8379 121.732 57.9417 121.324 58.1494C120.923 58.3571 120.576 58.6436 120.282 59.0088C119.996 59.374 119.77 59.793 119.605 60.2656C119.448 60.7311 119.369 61.2253 119.369 61.748ZM137.662 64.917C137.662 64.6305 137.598 64.3656 137.469 64.1221C137.347 63.8714 137.093 63.6458 136.706 63.4453C136.326 63.2376 135.754 63.0586 134.987 62.9082C134.343 62.7721 133.759 62.611 133.236 62.4248C132.721 62.2386 132.28 62.013 131.915 61.748C131.557 61.4831 131.281 61.1715 131.088 60.8135C130.895 60.4554 130.798 60.0365 130.798 59.5566C130.798 59.0983 130.898 58.665 131.099 58.2568C131.306 57.8486 131.596 57.487 131.969 57.1719C132.348 56.8568 132.803 56.6097 133.333 56.4307C133.863 56.2516 134.454 56.1621 135.105 56.1621C136.036 56.1621 136.831 56.3268 137.49 56.6562C138.149 56.9857 138.654 57.4261 139.005 57.9775C139.356 58.5218 139.531 59.127 139.531 59.793H137.544C137.544 59.4707 137.447 59.1592 137.254 58.8584C137.068 58.5505 136.792 58.2962 136.427 58.0957C136.069 57.8952 135.628 57.7949 135.105 57.7949C134.554 57.7949 134.106 57.8809 133.763 58.0527C133.426 58.2174 133.179 58.4287 133.021 58.6865C132.871 58.9443 132.796 59.2165 132.796 59.5029C132.796 59.7178 132.832 59.9111 132.903 60.083C132.982 60.2477 133.118 60.4017 133.312 60.5449C133.505 60.681 133.777 60.8099 134.128 60.9316C134.479 61.0534 134.926 61.1751 135.471 61.2969C136.423 61.5117 137.207 61.7695 137.823 62.0703C138.439 62.3711 138.897 62.7399 139.198 63.1768C139.499 63.6136 139.649 64.1436 139.649 64.7666C139.649 65.2751 139.542 65.7406 139.327 66.1631C139.119 66.5856 138.815 66.9508 138.414 67.2588C138.02 67.5596 137.548 67.7959 136.996 67.9678C136.452 68.1325 135.84 68.2148 135.159 68.2148C134.135 68.2148 133.269 68.0322 132.56 67.667C131.851 67.3018 131.313 66.8291 130.948 66.249C130.583 65.6689 130.4 65.0566 130.4 64.4121H132.398C132.427 64.9564 132.585 65.3896 132.871 65.7119C133.158 66.027 133.508 66.2526 133.924 66.3887C134.339 66.5176 134.751 66.582 135.159 66.582C135.703 66.582 136.158 66.5104 136.523 66.3672C136.896 66.224 137.179 66.027 137.372 65.7764C137.565 65.5257 137.662 65.2393 137.662 64.917ZM147.791 66.582C148.264 66.582 148.701 66.4854 149.102 66.292C149.503 66.0986 149.832 65.8337 150.09 65.4971C150.348 65.1533 150.495 64.763 150.53 64.3262H152.421C152.385 65.0137 152.152 65.6546 151.723 66.249C151.3 66.8363 150.745 67.3125 150.058 67.6777C149.37 68.0358 148.615 68.2148 147.791 68.2148C146.917 68.2148 146.155 68.0609 145.503 67.7529C144.859 67.445 144.321 67.0225 143.892 66.4854C143.469 65.9482 143.151 65.3324 142.936 64.6377C142.728 63.9359 142.624 63.1947 142.624 62.4141V61.9629C142.624 61.1823 142.728 60.4447 142.936 59.75C143.151 59.0482 143.469 58.4287 143.892 57.8916C144.321 57.3545 144.859 56.932 145.503 56.624C146.155 56.3161 146.917 56.1621 147.791 56.1621C148.701 56.1621 149.496 56.3483 150.176 56.7207C150.856 57.0859 151.39 57.5872 151.776 58.2246C152.17 58.8548 152.385 59.571 152.421 60.373H150.53C150.495 59.8932 150.359 59.46 150.122 59.0732C149.893 58.6865 149.578 58.3786 149.177 58.1494C148.783 57.9131 148.321 57.7949 147.791 57.7949C147.182 57.7949 146.67 57.9167 146.255 58.1602C145.847 58.3965 145.521 58.7188 145.277 59.127C145.041 59.528 144.869 59.9756 144.762 60.4697C144.662 60.9567 144.611 61.4544 144.611 61.9629V62.4141C144.611 62.9225 144.662 63.4238 144.762 63.918C144.862 64.4121 145.03 64.8597 145.267 65.2607C145.51 65.6618 145.836 65.984 146.244 66.2275C146.66 66.4639 147.175 66.582 147.791 66.582ZM163.403 50.9375L167.153 58.8945L170.926 50.9375H174.465L168.793 61.7539V68H165.524V61.7539L159.84 50.9375H163.403ZM187.606 68.2148C186.797 68.2148 186.063 68.0788 185.404 67.8066C184.752 67.5273 184.19 67.137 183.717 66.6357C183.252 66.1344 182.894 65.54 182.643 64.8525C182.393 64.165 182.267 63.4131 182.267 62.5967V62.1455C182.267 61.2002 182.407 60.3587 182.686 59.6211C182.966 58.8763 183.345 58.2461 183.825 57.7305C184.305 57.2148 184.849 56.8245 185.458 56.5596C186.066 56.2946 186.697 56.1621 187.348 56.1621C188.179 56.1621 188.895 56.3053 189.497 56.5918C190.105 56.8783 190.603 57.2793 190.99 57.7949C191.377 58.3034 191.663 58.9049 191.849 59.5996C192.036 60.2871 192.129 61.0391 192.129 61.8555V62.7471H183.449V61.125H190.141V60.9746C190.113 60.459 190.005 59.9577 189.819 59.4707C189.64 58.9837 189.354 58.5827 188.96 58.2676C188.566 57.9525 188.029 57.7949 187.348 57.7949C186.897 57.7949 186.482 57.8916 186.102 58.085C185.723 58.2712 185.397 58.5505 185.125 58.9229C184.853 59.2952 184.641 59.75 184.491 60.2871C184.341 60.8242 184.265 61.4437 184.265 62.1455V62.5967C184.265 63.1481 184.341 63.6673 184.491 64.1543C184.648 64.6341 184.874 65.0566 185.168 65.4219C185.468 65.7871 185.83 66.0736 186.253 66.2812C186.682 66.4889 187.169 66.5928 187.714 66.5928C188.415 66.5928 189.01 66.4495 189.497 66.1631C189.984 65.8766 190.41 65.4935 190.775 65.0137L191.978 65.9697C191.728 66.3493 191.409 66.7109 191.022 67.0547C190.635 67.3984 190.159 67.6777 189.593 67.8926C189.035 68.1074 188.372 68.2148 187.606 68.2148ZM197.316 58.8584V68H195.329V56.377H197.209L197.316 58.8584ZM196.844 61.748L196.016 61.7158C196.024 60.9209 196.142 60.1868 196.371 59.5137C196.6 58.8333 196.922 58.2425 197.338 57.7412C197.753 57.2399 198.247 56.8532 198.82 56.5811C199.4 56.3018 200.041 56.1621 200.743 56.1621C201.316 56.1621 201.831 56.2409 202.29 56.3984C202.748 56.5488 203.138 56.7923 203.461 57.1289C203.79 57.4655 204.041 57.9023 204.213 58.4395C204.385 58.9694 204.47 59.6175 204.47 60.3838V68H202.472V60.3623C202.472 59.7536 202.383 59.2666 202.204 58.9014C202.025 58.529 201.763 58.2604 201.42 58.0957C201.076 57.9238 200.653 57.8379 200.152 57.8379C199.658 57.8379 199.207 57.9417 198.799 58.1494C198.398 58.3571 198.05 58.6436 197.757 59.0088C197.47 59.374 197.245 59.793 197.08 60.2656C196.922 60.7311 196.844 61.2253 196.844 61.748ZM213.02 66.582C213.493 66.582 213.93 66.4854 214.331 66.292C214.732 66.0986 215.061 65.8337 215.319 65.4971C215.577 65.1533 215.724 64.763 215.76 64.3262H217.65C217.614 65.0137 217.382 65.6546 216.952 66.249C216.53 66.8363 215.974 67.3125 215.287 67.6777C214.599 68.0358 213.844 68.2148 213.02 68.2148C212.147 68.2148 211.384 68.0609 210.732 67.7529C210.088 67.445 209.551 67.0225 209.121 66.4854C208.698 65.9482 208.38 65.3324 208.165 64.6377C207.957 63.9359 207.853 63.1947 207.853 62.4141V61.9629C207.853 61.1823 207.957 60.4447 208.165 59.75C208.38 59.0482 208.698 58.4287 209.121 57.8916C209.551 57.3545 210.088 56.932 210.732 56.624C211.384 56.3161 212.147 56.1621 213.02 56.1621C213.93 56.1621 214.725 56.3483 215.405 56.7207C216.085 57.0859 216.619 57.5872 217.006 58.2246C217.4 58.8548 217.614 59.571 217.65 60.373H215.76C215.724 59.8932 215.588 59.46 215.351 59.0732C215.122 58.6865 214.807 58.3786 214.406 58.1494C214.012 57.9131 213.55 57.7949 213.02 57.7949C212.412 57.7949 211.9 57.9167 211.484 58.1602C211.076 58.3965 210.75 58.7188 210.507 59.127C210.27 59.528 210.099 59.9756 209.991 60.4697C209.891 60.9567 209.841 61.4544 209.841 61.9629V62.4141C209.841 62.9225 209.891 63.4238 209.991 63.918C210.091 64.4121 210.26 64.8597 210.496 65.2607C210.739 65.6618 211.065 65.984 211.474 66.2275C211.889 66.4639 212.405 66.582 213.02 66.582ZM222.924 56.377V68H220.926V56.377H222.924ZM220.775 53.2939C220.775 52.9717 220.872 52.6995 221.065 52.4775C221.266 52.2555 221.56 52.1445 221.946 52.1445C222.326 52.1445 222.616 52.2555 222.816 52.4775C223.024 52.6995 223.128 52.9717 223.128 53.2939C223.128 53.6019 223.024 53.8669 222.816 54.0889C222.616 54.3037 222.326 54.4111 221.946 54.4111C221.56 54.4111 221.266 54.3037 221.065 54.0889C220.872 53.8669 220.775 53.6019 220.775 53.2939ZM233.848 66.0127V60.0293C233.848 59.571 233.755 59.1735 233.568 58.8369C233.389 58.4932 233.117 58.2282 232.752 58.042C232.387 57.8558 231.936 57.7627 231.399 57.7627C230.897 57.7627 230.457 57.8486 230.077 58.0205C229.705 58.1924 229.411 58.418 229.196 58.6973C228.989 58.9766 228.885 59.2773 228.885 59.5996H226.898C226.898 59.1842 227.005 58.7725 227.22 58.3643C227.435 57.9561 227.743 57.5872 228.144 57.2578C228.552 56.9212 229.039 56.6562 229.605 56.4629C230.178 56.2624 230.815 56.1621 231.517 56.1621C232.362 56.1621 233.107 56.3053 233.751 56.5918C234.403 56.8783 234.911 57.3115 235.276 57.8916C235.649 58.4645 235.835 59.1842 235.835 60.0508V65.4648C235.835 65.8516 235.867 66.2633 235.932 66.7002C236.003 67.137 236.107 67.513 236.243 67.8281V68H234.17C234.07 67.7708 233.991 67.4665 233.934 67.0869C233.876 66.7002 233.848 66.3421 233.848 66.0127ZM234.192 60.9531L234.213 62.3496H232.204C231.638 62.3496 231.134 62.3962 230.69 62.4893C230.246 62.5752 229.873 62.7077 229.572 62.8867C229.272 63.0658 229.042 63.2913 228.885 63.5635C228.727 63.8285 228.649 64.14 228.649 64.498C228.649 64.8633 228.731 65.1963 228.896 65.4971C229.06 65.7979 229.307 66.0378 229.637 66.2168C229.973 66.3887 230.385 66.4746 230.872 66.4746C231.481 66.4746 232.018 66.3457 232.484 66.0879C232.949 65.8301 233.318 65.515 233.59 65.1426C233.869 64.7702 234.02 64.4085 234.041 64.0576L234.89 65.0137C234.84 65.3145 234.704 65.6475 234.482 66.0127C234.26 66.3779 233.962 66.7288 233.59 67.0654C233.225 67.3949 232.788 67.6706 232.279 67.8926C231.778 68.1074 231.212 68.2148 230.582 68.2148C229.794 68.2148 229.103 68.0609 228.509 67.7529C227.922 67.445 227.463 67.0332 227.134 66.5176C226.812 65.9948 226.651 65.4111 226.651 64.7666C226.651 64.1436 226.772 63.5957 227.016 63.123C227.259 62.6432 227.61 62.2458 228.068 61.9307C228.527 61.6084 229.078 61.3649 229.723 61.2002C230.367 61.0355 231.087 60.9531 231.882 60.9531H234.192ZM250.319 63.4531V63.375C250.319 62.2396 250.447 61.2135 250.702 60.2969C250.957 59.375 251.283 58.5677 251.678 57.875C252.074 57.1823 252.491 56.6094 252.928 56.1562C253.366 55.6979 253.77 55.3672 254.139 55.1641L254.444 56.1172C254.137 56.3516 253.824 56.6745 253.507 57.0859C253.194 57.4974 252.905 58.0026 252.639 58.6016C252.379 59.2005 252.168 59.8958 252.007 60.6875C251.845 61.4792 251.764 62.3698 251.764 63.3594V63.4688C251.764 64.4583 251.845 65.3516 252.007 66.1484C252.168 66.9401 252.379 67.638 252.639 68.2422C252.905 68.8464 253.194 69.3594 253.507 69.7812C253.824 70.2083 254.137 70.5469 254.444 70.7969L254.139 71.6719C253.77 71.4688 253.366 71.138 252.928 70.6797C252.491 70.2266 252.074 69.6536 251.678 68.9609C251.283 68.2734 250.957 67.4688 250.702 66.5469C250.447 65.625 250.319 64.5938 250.319 63.4531ZM258.654 68H257.209V58.6562C257.209 58.0469 257.321 57.5339 257.545 57.1172C257.774 56.6953 258.102 56.3776 258.529 56.1641C258.962 55.9453 259.485 55.8359 260.1 55.8359C260.329 55.8359 260.615 55.8594 260.959 55.9062C261.308 55.9531 261.678 56.013 262.068 56.0859C262.464 56.1589 262.85 56.2344 263.225 56.3125L262.553 57.3594C262.058 57.2656 261.613 57.1953 261.217 57.1484C260.821 57.0964 260.485 57.0703 260.209 57.0703C259.871 57.0703 259.584 57.1328 259.35 57.2578C259.121 57.3776 258.946 57.5547 258.826 57.7891C258.712 58.0234 258.654 58.3125 258.654 58.6562V68ZM261.779 68V56.3125H263.225V68H261.779ZM260.451 59.5469V60.6562H255.873V59.5469H260.451ZM269.74 68.1562C269.151 68.1562 268.617 68.0573 268.138 67.8594C267.664 67.6562 267.255 67.3724 266.912 67.0078C266.573 66.6432 266.313 66.2109 266.13 65.7109C265.948 65.2109 265.857 64.6641 265.857 64.0703V63.7422C265.857 63.0547 265.958 62.4427 266.162 61.9062C266.365 61.3646 266.641 60.9062 266.99 60.5312C267.339 60.1562 267.735 59.8724 268.177 59.6797C268.62 59.487 269.078 59.3906 269.552 59.3906C270.156 59.3906 270.677 59.4948 271.115 59.7031C271.557 59.9115 271.919 60.2031 272.201 60.5781C272.482 60.9479 272.69 61.3854 272.826 61.8906C272.961 62.3906 273.029 62.9375 273.029 63.5312V64.1797H266.716V63H271.583V62.8906C271.563 62.5156 271.485 62.151 271.349 61.7969C271.219 61.4427 271.011 61.151 270.724 60.9219C270.438 60.6927 270.047 60.5781 269.552 60.5781C269.224 60.5781 268.922 60.6484 268.646 60.7891C268.37 60.9245 268.133 61.1276 267.935 61.3984C267.737 61.6693 267.583 62 267.474 62.3906C267.365 62.7812 267.31 63.2318 267.31 63.7422V64.0703C267.31 64.4714 267.365 64.849 267.474 65.2031C267.589 65.5521 267.753 65.8594 267.966 66.125C268.185 66.3906 268.448 66.599 268.755 66.75C269.068 66.901 269.422 66.9766 269.818 66.9766C270.328 66.9766 270.761 66.8724 271.115 66.6641C271.469 66.4557 271.779 66.1771 272.044 65.8281L272.919 66.5234C272.737 66.7995 272.505 67.0625 272.224 67.3125C271.943 67.5625 271.597 67.7656 271.185 67.9219C270.779 68.0781 270.297 68.1562 269.74 68.1562ZM276.333 59.5469L278.184 62.625L280.059 59.5469H281.755L278.989 63.7188L281.841 68H280.169L278.216 64.8281L276.263 68H274.583L277.427 63.7188L274.669 59.5469H276.333ZM285.504 59.5469V68H284.051V59.5469H285.504ZM283.942 57.3047C283.942 57.0703 284.012 56.8724 284.153 56.7109C284.298 56.5495 284.512 56.4688 284.793 56.4688C285.069 56.4688 285.28 56.5495 285.426 56.7109C285.577 56.8724 285.653 57.0703 285.653 57.3047C285.653 57.5286 285.577 57.7214 285.426 57.8828C285.28 58.0391 285.069 58.1172 284.793 58.1172C284.512 58.1172 284.298 58.0391 284.153 57.8828C284.012 57.7214 283.942 57.5286 283.942 57.3047ZM288.457 56H289.91V66.3594L289.785 68H288.457V56ZM295.621 63.7031V63.8672C295.621 64.4818 295.548 65.0521 295.402 65.5781C295.256 66.099 295.043 66.5521 294.761 66.9375C294.48 67.3229 294.136 67.6224 293.73 67.8359C293.324 68.0495 292.858 68.1562 292.332 68.1562C291.795 68.1562 291.324 68.0651 290.918 67.8828C290.516 67.6953 290.178 67.4271 289.902 67.0781C289.626 66.7292 289.405 66.3073 289.238 65.8125C289.076 65.3177 288.964 64.7604 288.902 64.1406V63.4219C288.964 62.7969 289.076 62.237 289.238 61.7422C289.405 61.2474 289.626 60.8255 289.902 60.4766C290.178 60.1224 290.516 59.8542 290.918 59.6719C291.319 59.4844 291.785 59.3906 292.316 59.3906C292.847 59.3906 293.319 59.4948 293.73 59.7031C294.141 59.9062 294.485 60.1979 294.761 60.5781C295.043 60.9583 295.256 61.4141 295.402 61.9453C295.548 62.4714 295.621 63.0573 295.621 63.7031ZM294.168 63.8672V63.7031C294.168 63.2812 294.128 62.8854 294.05 62.5156C293.972 62.1406 293.847 61.8125 293.675 61.5312C293.503 61.2448 293.277 61.0208 292.996 60.8594C292.714 60.6927 292.368 60.6094 291.957 60.6094C291.592 60.6094 291.274 60.6719 291.003 60.7969C290.738 60.9219 290.511 61.0911 290.324 61.3047C290.136 61.513 289.983 61.7526 289.863 62.0234C289.748 62.2891 289.662 62.5651 289.605 62.8516V64.7344C289.688 65.099 289.824 65.4505 290.011 65.7891C290.204 66.1224 290.459 66.3958 290.777 66.6094C291.1 66.8229 291.498 66.9297 291.972 66.9297C292.363 66.9297 292.696 66.8516 292.972 66.6953C293.253 66.5339 293.48 66.3125 293.652 66.0312C293.829 65.75 293.959 65.4245 294.043 65.0547C294.126 64.6849 294.168 64.2891 294.168 63.8672ZM299.659 59.5469V68H298.206V59.5469H299.659ZM298.097 57.3047C298.097 57.0703 298.167 56.8724 298.307 56.7109C298.453 56.5495 298.667 56.4688 298.948 56.4688C299.224 56.4688 299.435 56.5495 299.581 56.7109C299.732 56.8724 299.807 57.0703 299.807 57.3047C299.807 57.5286 299.732 57.7214 299.581 57.8828C299.435 58.0391 299.224 58.1172 298.948 58.1172C298.667 58.1172 298.453 58.0391 298.307 57.8828C298.167 57.7214 298.097 57.5286 298.097 57.3047ZM304.19 56V68H302.737V56H304.19ZM308.72 59.5469V68H307.267V59.5469H308.72ZM307.158 57.3047C307.158 57.0703 307.228 56.8724 307.369 56.7109C307.515 56.5495 307.728 56.4688 308.009 56.4688C308.285 56.4688 308.496 56.5495 308.642 56.7109C308.793 56.8724 308.869 57.0703 308.869 57.3047C308.869 57.5286 308.793 57.7214 308.642 57.8828C308.496 58.0391 308.285 58.1172 308.009 58.1172C307.728 58.1172 307.515 58.0391 307.369 57.8828C307.228 57.7214 307.158 57.5286 307.158 57.3047ZM317.009 66.3594V56H318.462V68H317.134L317.009 66.3594ZM311.321 63.8672V63.7031C311.321 63.0573 311.399 62.4714 311.556 61.9453C311.717 61.4141 311.944 60.9583 312.235 60.5781C312.532 60.1979 312.884 59.9062 313.29 59.7031C313.701 59.4948 314.16 59.3906 314.665 59.3906C315.196 59.3906 315.66 59.4844 316.056 59.6719C316.457 59.8542 316.795 60.1224 317.071 60.4766C317.353 60.8255 317.574 61.2474 317.735 61.7422C317.897 62.237 318.009 62.7969 318.071 63.4219V64.1406C318.014 64.7604 317.902 65.3177 317.735 65.8125C317.574 66.3073 317.353 66.7292 317.071 67.0781C316.795 67.4271 316.457 67.6953 316.056 67.8828C315.655 68.0651 315.186 68.1562 314.649 68.1562C314.155 68.1562 313.701 68.0495 313.29 67.8359C312.884 67.6224 312.532 67.3229 312.235 66.9375C311.944 66.5521 311.717 66.099 311.556 65.5781C311.399 65.0521 311.321 64.4818 311.321 63.8672ZM312.774 63.7031V63.8672C312.774 64.2891 312.816 64.6849 312.899 65.0547C312.988 65.4245 313.123 65.75 313.306 66.0312C313.488 66.3125 313.72 66.5339 314.001 66.6953C314.282 66.8516 314.618 66.9297 315.009 66.9297C315.488 66.9297 315.881 66.8281 316.188 66.625C316.501 66.4219 316.751 66.1536 316.938 65.8203C317.126 65.487 317.272 65.125 317.376 64.7344V62.8516C317.313 62.5651 317.222 62.2891 317.103 62.0234C316.988 61.7526 316.837 61.513 316.649 61.3047C316.467 61.0911 316.241 60.9219 315.97 60.7969C315.704 60.6719 315.389 60.6094 315.024 60.6094C314.629 60.6094 314.287 60.6927 314.001 60.8594C313.72 61.0208 313.488 61.2448 313.306 61.5312C313.123 61.8125 312.988 62.1406 312.899 62.5156C312.816 62.8854 312.774 63.2812 312.774 63.7031ZM326.336 66.5547V62.2031C326.336 61.8698 326.269 61.5807 326.133 61.3359C326.003 61.0859 325.805 60.8932 325.539 60.7578C325.274 60.6224 324.946 60.5547 324.555 60.5547C324.19 60.5547 323.87 60.6172 323.594 60.7422C323.323 60.8672 323.11 61.0312 322.953 61.2344C322.802 61.4375 322.727 61.6562 322.727 61.8906H321.282C321.282 61.5885 321.36 61.2891 321.516 60.9922C321.672 60.6953 321.896 60.4271 322.188 60.1875C322.485 59.9427 322.839 59.75 323.25 59.6094C323.667 59.4635 324.131 59.3906 324.641 59.3906C325.256 59.3906 325.797 59.4948 326.266 59.7031C326.74 59.9115 327.11 60.2266 327.375 60.6484C327.646 61.0651 327.782 61.5885 327.782 62.2188V66.1562C327.782 66.4375 327.805 66.737 327.852 67.0547C327.904 67.3724 327.98 67.6458 328.078 67.875V68H326.571C326.498 67.8333 326.44 67.612 326.399 67.3359C326.357 67.0547 326.336 66.7943 326.336 66.5547ZM326.586 62.875L326.602 63.8906H325.141C324.73 63.8906 324.362 63.9245 324.039 63.9922C323.717 64.0547 323.446 64.151 323.227 64.2812C323.008 64.4115 322.842 64.5755 322.727 64.7734C322.612 64.9661 322.555 65.1927 322.555 65.4531C322.555 65.7188 322.615 65.9609 322.735 66.1797C322.855 66.3984 323.034 66.5729 323.274 66.7031C323.519 66.8281 323.818 66.8906 324.172 66.8906C324.615 66.8906 325.006 66.7969 325.344 66.6094C325.683 66.4219 325.951 66.1927 326.149 65.9219C326.352 65.651 326.461 65.388 326.477 65.1328L327.094 65.8281C327.058 66.0469 326.959 66.2891 326.797 66.5547C326.636 66.8203 326.42 67.0755 326.149 67.3203C325.883 67.5599 325.565 67.7604 325.196 67.9219C324.831 68.0781 324.42 68.1562 323.961 68.1562C323.388 68.1562 322.886 68.0443 322.453 67.8203C322.026 67.5964 321.693 67.2969 321.453 66.9219C321.219 66.5417 321.102 66.1172 321.102 65.6484C321.102 65.1953 321.19 64.7969 321.368 64.4531C321.545 64.1042 321.8 63.8151 322.133 63.5859C322.467 63.3516 322.868 63.1745 323.336 63.0547C323.805 62.9349 324.328 62.875 324.907 62.875H326.586ZM336.023 66.3594V56H337.476V68H336.148L336.023 66.3594ZM330.336 63.8672V63.7031C330.336 63.0573 330.414 62.4714 330.57 61.9453C330.731 61.4141 330.958 60.9583 331.25 60.5781C331.547 60.1979 331.898 59.9062 332.304 59.7031C332.716 59.4948 333.174 59.3906 333.679 59.3906C334.211 59.3906 334.674 59.4844 335.07 59.6719C335.471 59.8542 335.81 60.1224 336.086 60.4766C336.367 60.8255 336.588 61.2474 336.75 61.7422C336.911 62.237 337.023 62.7969 337.086 63.4219V64.1406C337.028 64.7604 336.916 65.3177 336.75 65.8125C336.588 66.3073 336.367 66.7292 336.086 67.0781C335.81 67.4271 335.471 67.6953 335.07 67.8828C334.669 68.0651 334.2 68.1562 333.664 68.1562C333.169 68.1562 332.716 68.0495 332.304 67.8359C331.898 67.6224 331.547 67.3229 331.25 66.9375C330.958 66.5521 330.731 66.099 330.57 65.5781C330.414 65.0521 330.336 64.4818 330.336 63.8672ZM331.789 63.7031V63.8672C331.789 64.2891 331.83 64.6849 331.914 65.0547C332.002 65.4245 332.138 65.75 332.32 66.0312C332.502 66.3125 332.734 66.5339 333.015 66.6953C333.297 66.8516 333.633 66.9297 334.023 66.9297C334.502 66.9297 334.896 66.8281 335.203 66.625C335.515 66.4219 335.765 66.1536 335.953 65.8203C336.14 65.487 336.286 65.125 336.39 64.7344V62.8516C336.328 62.5651 336.237 62.2891 336.117 62.0234C336.002 61.7526 335.851 61.513 335.664 61.3047C335.481 61.0911 335.255 60.9219 334.984 60.7969C334.718 60.6719 334.403 60.6094 334.039 60.6094C333.643 60.6094 333.302 60.6927 333.015 60.8594C332.734 61.0208 332.502 61.2448 332.32 61.5312C332.138 61.8125 332.002 62.1406 331.914 62.5156C331.83 62.8854 331.789 63.2812 331.789 63.7031ZM343.694 63.375V63.4531C343.694 64.5938 343.567 65.625 343.312 66.5469C343.056 67.4688 342.731 68.2734 342.335 68.9609C341.939 69.6536 341.523 70.2266 341.085 70.6797C340.648 71.138 340.244 71.4688 339.874 71.6719L339.569 70.7969C339.877 70.5625 340.187 70.2344 340.499 69.8125C340.812 69.3958 341.101 68.8802 341.366 68.2656C341.632 67.6562 341.845 66.9531 342.007 66.1562C342.168 65.3542 342.249 64.4583 342.249 63.4688V63.3594C342.249 62.3698 342.163 61.4766 341.991 60.6797C341.819 59.8776 341.595 59.1719 341.319 58.5625C341.049 57.9531 340.757 57.4401 340.444 57.0234C340.137 56.6016 339.845 56.276 339.569 56.0469L339.874 55.1641C340.244 55.3672 340.648 55.6979 341.085 56.1562C341.523 56.6094 341.939 57.1823 342.335 57.875C342.731 58.5677 343.056 59.375 343.312 60.2969C343.567 61.2135 343.694 62.2396 343.694 63.375Z" fill="#1A1318"/>
<path d="M126.611 97.2148C125.802 97.2148 125.068 97.0788 124.409 96.8066C123.757 96.5273 123.195 96.137 122.722 95.6357C122.257 95.1344 121.899 94.54 121.648 93.8525C121.398 93.165 121.272 92.4131 121.272 91.5967V91.1455C121.272 90.2002 121.412 89.3587 121.691 88.6211C121.97 87.8763 122.35 87.2461 122.83 86.7305C123.31 86.2148 123.854 85.8245 124.463 85.5596C125.071 85.2946 125.702 85.1621 126.353 85.1621C127.184 85.1621 127.9 85.3053 128.502 85.5918C129.11 85.8783 129.608 86.2793 129.995 86.7949C130.382 87.3034 130.668 87.9049 130.854 88.5996C131.04 89.2871 131.134 90.0391 131.134 90.8555V91.7471H122.454V90.125H129.146V89.9746C129.118 89.459 129.01 88.9577 128.824 88.4707C128.645 87.9837 128.358 87.5827 127.965 87.2676C127.571 86.9525 127.034 86.7949 126.353 86.7949C125.902 86.7949 125.487 86.8916 125.107 87.085C124.728 87.2712 124.402 87.5505 124.13 87.9229C123.858 88.2952 123.646 88.75 123.496 89.2871C123.345 89.8242 123.27 90.4437 123.27 91.1455V91.5967C123.27 92.1481 123.345 92.6673 123.496 93.1543C123.653 93.6341 123.879 94.0566 124.173 94.4219C124.473 94.7871 124.835 95.0736 125.258 95.2812C125.687 95.4889 126.174 95.5928 126.719 95.5928C127.42 95.5928 128.015 95.4495 128.502 95.1631C128.989 94.8766 129.415 94.4935 129.78 94.0137L130.983 94.9697C130.733 95.3493 130.414 95.7109 130.027 96.0547C129.64 96.3984 129.164 96.6777 128.598 96.8926C128.04 97.1074 127.377 97.2148 126.611 97.2148ZM136.31 87.6865V97H134.312V85.377H136.203L136.31 87.6865ZM135.902 90.748L134.978 90.7158C134.986 89.9209 135.089 89.1868 135.29 88.5137C135.49 87.8333 135.788 87.2425 136.182 86.7412C136.575 86.2399 137.066 85.8532 137.653 85.5811C138.24 85.3018 138.921 85.1621 139.694 85.1621C140.238 85.1621 140.74 85.2409 141.198 85.3984C141.656 85.5488 142.054 85.7887 142.391 86.1182C142.727 86.4476 142.988 86.8701 143.175 87.3857C143.361 87.9014 143.454 88.5244 143.454 89.2549V97H141.467V89.3516C141.467 88.7428 141.363 88.2559 141.155 87.8906C140.955 87.5254 140.668 87.2604 140.296 87.0957C139.923 86.9238 139.487 86.8379 138.985 86.8379C138.398 86.8379 137.907 86.9417 137.514 87.1494C137.12 87.3571 136.805 87.6436 136.568 88.0088C136.332 88.374 136.16 88.793 136.053 89.2656C135.952 89.7311 135.902 90.2253 135.902 90.748ZM143.432 89.6523L142.1 90.0605C142.108 89.4232 142.211 88.8109 142.412 88.2236C142.62 87.6364 142.917 87.1136 143.304 86.6553C143.697 86.1969 144.181 85.8353 144.754 85.5703C145.327 85.2982 145.982 85.1621 146.72 85.1621C147.343 85.1621 147.894 85.2445 148.374 85.4092C148.861 85.5739 149.269 85.8281 149.599 86.1719C149.935 86.5085 150.189 86.9417 150.361 87.4717C150.533 88.0016 150.619 88.6318 150.619 89.3623V97H148.621V89.3408C148.621 88.6891 148.517 88.1842 148.309 87.8262C148.109 87.4609 147.822 87.2067 147.45 87.0635C147.085 86.9131 146.648 86.8379 146.14 86.8379C145.703 86.8379 145.316 86.9131 144.979 87.0635C144.643 87.2139 144.36 87.4215 144.131 87.6865C143.902 87.9443 143.726 88.2415 143.604 88.5781C143.49 88.9147 143.432 89.2728 143.432 89.6523ZM174.198 88.0352V88.9141C174.198 90.2031 174.027 91.3633 173.683 92.3945C173.339 93.418 172.851 94.2891 172.218 95.0078C171.585 95.7266 170.831 96.2773 169.956 96.6602C169.081 97.043 168.109 97.2344 167.038 97.2344C165.984 97.2344 165.015 97.043 164.132 96.6602C163.257 96.2773 162.499 95.7266 161.859 95.0078C161.218 94.2891 160.722 93.418 160.37 92.3945C160.019 91.3633 159.843 90.2031 159.843 88.9141V88.0352C159.843 86.7383 160.019 85.5781 160.37 84.5547C160.722 83.5312 161.214 82.6602 161.847 81.9414C162.48 81.2148 163.234 80.6602 164.109 80.2773C164.991 79.8945 165.96 79.7031 167.015 79.7031C168.085 79.7031 169.058 79.8945 169.933 80.2773C170.808 80.6602 171.562 81.2148 172.195 81.9414C172.835 82.6602 173.327 83.5312 173.671 84.5547C174.023 85.5781 174.198 86.7383 174.198 88.0352ZM170.941 88.9141V88.0117C170.941 87.082 170.855 86.2656 170.683 85.5625C170.511 84.8516 170.257 84.2539 169.921 83.7695C169.585 83.2852 169.171 82.9219 168.679 82.6797C168.187 82.4297 167.632 82.3047 167.015 82.3047C166.39 82.3047 165.835 82.4297 165.351 82.6797C164.874 82.9219 164.468 83.2852 164.132 83.7695C163.796 84.2539 163.538 84.8516 163.359 85.5625C163.187 86.2656 163.101 87.082 163.101 88.0117V88.9141C163.101 89.8359 163.187 90.6523 163.359 91.3633C163.538 92.0742 163.796 92.6758 164.132 93.168C164.476 93.6523 164.89 94.0195 165.374 94.2695C165.859 94.5195 166.413 94.6445 167.038 94.6445C167.663 94.6445 168.218 94.5195 168.702 94.2695C169.187 94.0195 169.593 93.6523 169.921 93.168C170.257 92.6758 170.511 92.0742 170.683 91.3633C170.855 90.6523 170.941 89.8359 170.941 88.9141ZM188.187 95.582C188.66 95.582 189.096 95.4854 189.497 95.292C189.899 95.0986 190.228 94.8337 190.486 94.4971C190.744 94.1533 190.89 93.763 190.926 93.3262H192.817C192.781 94.0137 192.548 94.6546 192.119 95.249C191.696 95.8363 191.141 96.3125 190.454 96.6777C189.766 97.0358 189.011 97.2148 188.187 97.2148C187.313 97.2148 186.551 97.0609 185.899 96.7529C185.254 96.445 184.717 96.0225 184.288 95.4854C183.865 94.9482 183.546 94.3324 183.331 93.6377C183.124 92.9359 183.02 92.1947 183.02 91.4141V90.9629C183.02 90.1823 183.124 89.4447 183.331 88.75C183.546 88.0482 183.865 87.4287 184.288 86.8916C184.717 86.3545 185.254 85.932 185.899 85.624C186.551 85.3161 187.313 85.1621 188.187 85.1621C189.096 85.1621 189.891 85.3483 190.572 85.7207C191.252 86.0859 191.786 86.5872 192.172 87.2246C192.566 87.8548 192.781 88.571 192.817 89.373H190.926C190.89 88.8932 190.754 88.46 190.518 88.0732C190.289 87.6865 189.974 87.3786 189.573 87.1494C189.179 86.9131 188.717 86.7949 188.187 86.7949C187.578 86.7949 187.066 86.9167 186.651 87.1602C186.243 87.3965 185.917 87.7188 185.673 88.127C185.437 88.528 185.265 88.9756 185.158 89.4697C185.057 89.9567 185.007 90.4544 185.007 90.9629V91.4141C185.007 91.9225 185.057 92.4238 185.158 92.918C185.258 93.4121 185.426 93.8597 185.663 94.2607C185.906 94.6618 186.232 94.984 186.64 95.2275C187.055 95.4639 187.571 95.582 188.187 95.582ZM198.09 85.377V97H196.092V85.377H198.09ZM195.942 82.2939C195.942 81.9717 196.039 81.6995 196.232 81.4775C196.433 81.2555 196.726 81.1445 197.113 81.1445C197.492 81.1445 197.782 81.2555 197.983 81.4775C198.191 81.6995 198.294 81.9717 198.294 82.2939C198.294 82.6019 198.191 82.8669 197.983 83.0889C197.782 83.3037 197.492 83.4111 197.113 83.4111C196.726 83.4111 196.433 83.3037 196.232 83.0889C196.039 82.8669 195.942 82.6019 195.942 82.2939ZM201.634 91.3174V91.0703C201.634 90.2324 201.756 89.4554 202 88.7393C202.243 88.016 202.594 87.3893 203.052 86.8594C203.511 86.3223 204.066 85.9069 204.717 85.6133C205.369 85.3125 206.1 85.1621 206.909 85.1621C207.725 85.1621 208.459 85.3125 209.111 85.6133C209.77 85.9069 210.328 86.3223 210.787 86.8594C211.252 87.3893 211.607 88.016 211.85 88.7393C212.094 89.4554 212.216 90.2324 212.216 91.0703V91.3174C212.216 92.1553 212.094 92.9323 211.85 93.6484C211.607 94.3646 211.252 94.9912 210.787 95.5283C210.328 96.0583 209.773 96.4736 209.122 96.7744C208.477 97.068 207.747 97.2148 206.93 97.2148C206.114 97.2148 205.38 97.068 204.728 96.7744C204.077 96.4736 203.518 96.0583 203.052 95.5283C202.594 94.9912 202.243 94.3646 202 93.6484C201.756 92.9323 201.634 92.1553 201.634 91.3174ZM203.622 91.0703V91.3174C203.622 91.8975 203.69 92.4453 203.826 92.9609C203.962 93.4694 204.166 93.9206 204.438 94.3145C204.717 94.7083 205.065 95.0199 205.48 95.249C205.896 95.471 206.379 95.582 206.93 95.582C207.475 95.582 207.951 95.471 208.359 95.249C208.774 95.0199 209.118 94.7083 209.39 94.3145C209.662 93.9206 209.867 93.4694 210.003 92.9609C210.146 92.4453 210.217 91.8975 210.217 91.3174V91.0703C210.217 90.4974 210.146 89.9567 210.003 89.4482C209.867 88.9326 209.659 88.4779 209.38 88.084C209.107 87.6829 208.764 87.3678 208.348 87.1387C207.94 86.9095 207.46 86.7949 206.909 86.7949C206.365 86.7949 205.885 86.9095 205.469 87.1387C205.061 87.3678 204.717 87.6829 204.438 88.084C204.166 88.4779 203.962 88.9326 203.826 89.4482C203.69 89.9567 203.622 90.4974 203.622 91.0703ZM205.727 83.6582L207.811 80.5H210.207L207.328 83.6582H205.727ZM217.575 87.8584V97H215.588V85.377H217.468L217.575 87.8584ZM217.102 90.748L216.275 90.7158C216.282 89.9209 216.401 89.1868 216.63 88.5137C216.859 87.8333 217.181 87.2425 217.596 86.7412C218.012 86.2399 218.506 85.8532 219.079 85.5811C219.659 85.3018 220.3 85.1621 221.002 85.1621C221.575 85.1621 222.09 85.2409 222.549 85.3984C223.007 85.5488 223.397 85.7923 223.72 86.1289C224.049 86.4655 224.3 86.9023 224.471 87.4395C224.643 87.9694 224.729 88.6175 224.729 89.3838V97H222.731V89.3623C222.731 88.7536 222.642 88.2666 222.463 87.9014C222.284 87.529 222.022 87.2604 221.679 87.0957C221.335 86.9238 220.912 86.8379 220.411 86.8379C219.917 86.8379 219.466 86.9417 219.057 87.1494C218.656 87.3571 218.309 87.6436 218.015 88.0088C217.729 88.374 217.503 88.793 217.339 89.2656C217.181 89.7311 217.102 90.2253 217.102 90.748ZM247.171 92.4531V92.375C247.171 91.2396 247.299 90.2135 247.554 89.2969C247.809 88.375 248.135 87.5677 248.531 86.875C248.926 86.1823 249.343 85.6094 249.781 85.1562C250.218 84.6979 250.622 84.3672 250.991 84.1641L251.296 85.1172C250.989 85.3516 250.676 85.6745 250.359 86.0859C250.046 86.4974 249.757 87.0026 249.491 87.6016C249.231 88.2005 249.02 88.8958 248.859 89.6875C248.697 90.4792 248.616 91.3698 248.616 92.3594V92.4688C248.616 93.4583 248.697 94.3516 248.859 95.1484C249.02 95.9401 249.231 96.638 249.491 97.2422C249.757 97.8464 250.046 98.3594 250.359 98.7812C250.676 99.2083 250.989 99.5469 251.296 99.7969L250.991 100.672C250.622 100.469 250.218 100.138 249.781 99.6797C249.343 99.2266 248.926 98.6536 248.531 97.9609C248.135 97.2734 247.809 96.4688 247.554 95.5469C247.299 94.625 247.171 93.5938 247.171 92.4531ZM256.858 97.1562C256.269 97.1562 255.736 97.0573 255.256 96.8594C254.783 96.6562 254.374 96.3724 254.03 96.0078C253.691 95.6432 253.431 95.2109 253.249 94.7109C253.066 94.2109 252.975 93.6641 252.975 93.0703V92.7422C252.975 92.0547 253.077 91.4427 253.28 90.9062C253.483 90.3646 253.759 89.9062 254.108 89.5312C254.457 89.1562 254.853 88.8724 255.296 88.6797C255.738 88.487 256.197 88.3906 256.671 88.3906C257.275 88.3906 257.796 88.4948 258.233 88.7031C258.676 88.9115 259.038 89.2031 259.319 89.5781C259.6 89.9479 259.809 90.3854 259.944 90.8906C260.079 91.3906 260.147 91.9375 260.147 92.5312V93.1797H253.835V92H258.702V91.8906C258.681 91.5156 258.603 91.151 258.467 90.7969C258.337 90.4427 258.129 90.151 257.842 89.9219C257.556 89.6927 257.165 89.5781 256.671 89.5781C256.342 89.5781 256.04 89.6484 255.764 89.7891C255.488 89.9245 255.251 90.1276 255.053 90.3984C254.855 90.6693 254.702 91 254.592 91.3906C254.483 91.7812 254.428 92.2318 254.428 92.7422V93.0703C254.428 93.4714 254.483 93.849 254.592 94.2031C254.707 94.5521 254.871 94.8594 255.085 95.125C255.303 95.3906 255.566 95.599 255.874 95.75C256.186 95.901 256.54 95.9766 256.936 95.9766C257.447 95.9766 257.879 95.8724 258.233 95.6641C258.587 95.4557 258.897 95.1771 259.163 94.8281L260.038 95.5234C259.855 95.7995 259.624 96.0625 259.342 96.3125C259.061 96.5625 258.715 96.7656 258.303 96.9219C257.897 97.0781 257.415 97.1562 256.858 97.1562ZM267.795 100.25V90.1719L267.92 88.5469H269.248V100.25H267.795ZM262.115 92.8672V92.7031C262.115 92.0573 262.191 91.4714 262.342 90.9453C262.493 90.4141 262.714 89.9583 263.006 89.5781C263.298 89.1979 263.649 88.9062 264.061 88.7031C264.477 88.4948 264.951 88.3906 265.482 88.3906C266.014 88.3906 266.48 88.4844 266.881 88.6719C267.287 88.8542 267.631 89.1224 267.912 89.4766C268.199 89.8255 268.425 90.2474 268.592 90.7422C268.758 91.237 268.873 91.7969 268.936 92.4219V93.1406C268.878 93.7604 268.766 94.3177 268.6 94.8125C268.433 95.3073 268.206 95.7292 267.92 96.0781C267.639 96.4271 267.292 96.6953 266.881 96.8828C266.475 97.0651 266.003 97.1562 265.467 97.1562C264.946 97.1562 264.477 97.0495 264.061 96.8359C263.649 96.6224 263.298 96.3229 263.006 95.9375C262.719 95.5521 262.498 95.099 262.342 94.5781C262.191 94.0521 262.115 93.4818 262.115 92.8672ZM263.568 92.7031V92.8672C263.568 93.2891 263.613 93.6875 263.701 94.0625C263.79 94.4323 263.925 94.7604 264.107 95.0469C264.295 95.3333 264.529 95.5599 264.811 95.7266C265.097 95.888 265.436 95.9688 265.826 95.9688C266.305 95.9688 266.704 95.8646 267.021 95.6562C267.344 95.4479 267.602 95.1745 267.795 94.8359C267.988 94.4922 268.136 94.125 268.24 93.7344V91.8516C268.183 91.5651 268.092 91.2865 267.967 91.0156C267.847 90.7448 267.691 90.5026 267.498 90.2891C267.305 90.0703 267.071 89.8984 266.795 89.7734C266.524 89.6432 266.206 89.5781 265.842 89.5781C265.446 89.5781 265.105 89.6615 264.818 89.8281C264.532 89.9948 264.295 90.224 264.107 90.5156C263.925 90.8021 263.79 91.1328 263.701 91.5078C263.613 91.8828 263.568 92.2812 263.568 92.7031ZM277.38 95.0469V88.5469H278.833V97H277.451L277.38 95.0469ZM277.654 93.2656L278.255 93.25C278.255 93.8125 278.195 94.3333 278.076 94.8125C277.961 95.2865 277.773 95.6979 277.513 96.0469C277.253 96.3958 276.911 96.6693 276.49 96.8672C276.068 97.0599 275.555 97.1562 274.951 97.1562C274.539 97.1562 274.161 97.0964 273.818 96.9766C273.479 96.8568 273.188 96.6719 272.943 96.4219C272.698 96.1719 272.508 95.8464 272.372 95.4453C272.242 95.0443 272.177 94.5625 272.177 94V88.5469H273.622V94.0156C273.622 94.3958 273.664 94.7109 273.747 94.9609C273.836 95.2057 273.953 95.401 274.099 95.5469C274.25 95.6875 274.417 95.7865 274.599 95.8438C274.786 95.901 274.979 95.9297 275.177 95.9297C275.792 95.9297 276.279 95.8125 276.638 95.5781C276.997 95.3385 277.255 95.0182 277.411 94.6172C277.573 94.2109 277.654 93.7604 277.654 93.2656ZM283.247 88.5469V97H281.794V88.5469H283.247ZM281.684 86.3047C281.684 86.0703 281.755 85.8724 281.895 85.7109C282.041 85.5495 282.255 85.4688 282.536 85.4688C282.812 85.4688 283.023 85.5495 283.169 85.7109C283.32 85.8724 283.395 86.0703 283.395 86.3047C283.395 86.5286 283.32 86.7214 283.169 86.8828C283.023 87.0391 282.812 87.1172 282.536 87.1172C282.255 87.1172 282.041 87.0391 281.895 86.8828C281.755 86.7214 281.684 86.5286 281.684 86.3047ZM287.777 85V97H286.324V85H287.777ZM292.308 88.5469V97H290.855V88.5469H292.308ZM290.746 86.3047C290.746 86.0703 290.816 85.8724 290.956 85.7109C291.102 85.5495 291.316 85.4688 291.597 85.4688C291.873 85.4688 292.084 85.5495 292.23 85.7109C292.381 85.8724 292.456 86.0703 292.456 86.3047C292.456 86.5286 292.381 86.7214 292.23 86.8828C292.084 87.0391 291.873 87.1172 291.597 87.1172C291.316 87.1172 291.102 87.0391 290.956 86.8828C290.816 86.7214 290.746 86.5286 290.746 86.3047ZM295.261 85H296.714V95.3594L296.589 97H295.261V85ZM302.425 92.7031V92.8672C302.425 93.4818 302.352 94.0521 302.206 94.5781C302.06 95.099 301.846 95.5521 301.565 95.9375C301.284 96.3229 300.94 96.6224 300.534 96.8359C300.128 97.0495 299.662 97.1562 299.136 97.1562C298.599 97.1562 298.128 97.0651 297.721 96.8828C297.32 96.6953 296.982 96.4271 296.706 96.0781C296.43 95.7292 296.208 95.3073 296.042 94.8125C295.88 94.3177 295.768 93.7604 295.706 93.1406V92.4219C295.768 91.7969 295.88 91.237 296.042 90.7422C296.208 90.2474 296.43 89.8255 296.706 89.4766C296.982 89.1224 297.32 88.8542 297.721 88.6719C298.123 88.4844 298.589 88.3906 299.12 88.3906C299.651 88.3906 300.123 88.4948 300.534 88.7031C300.945 88.9062 301.289 89.1979 301.565 89.5781C301.846 89.9583 302.06 90.4141 302.206 90.9453C302.352 91.4714 302.425 92.0573 302.425 92.7031ZM300.971 92.8672V92.7031C300.971 92.2812 300.932 91.8854 300.854 91.5156C300.776 91.1406 300.651 90.8125 300.479 90.5312C300.307 90.2448 300.081 90.0208 299.8 89.8594C299.518 89.6927 299.172 89.6094 298.761 89.6094C298.396 89.6094 298.078 89.6719 297.807 89.7969C297.542 89.9219 297.315 90.0911 297.128 90.3047C296.94 90.513 296.787 90.7526 296.667 91.0234C296.552 91.2891 296.466 91.5651 296.409 91.8516V93.7344C296.492 94.099 296.628 94.4505 296.815 94.7891C297.008 95.1224 297.263 95.3958 297.581 95.6094C297.904 95.8229 298.302 95.9297 298.776 95.9297C299.167 95.9297 299.5 95.8516 299.776 95.6953C300.057 95.5339 300.284 95.3125 300.456 95.0312C300.633 94.75 300.763 94.4245 300.846 94.0547C300.93 93.6849 300.971 93.2891 300.971 92.8672ZM306.338 89.875V97H304.893V88.5469H306.299L306.338 89.875ZM308.979 88.5L308.971 89.8438C308.851 89.8177 308.736 89.8021 308.627 89.7969C308.523 89.7865 308.403 89.7812 308.268 89.7812C307.934 89.7812 307.64 89.8333 307.385 89.9375C307.13 90.0417 306.914 90.1875 306.736 90.375C306.559 90.5625 306.419 90.7865 306.315 91.0469C306.216 91.3021 306.151 91.5833 306.119 91.8906L305.713 92.125C305.713 91.6146 305.762 91.1354 305.861 90.6875C305.966 90.2396 306.124 89.8438 306.338 89.5C306.552 89.151 306.822 88.8802 307.151 88.6875C307.484 88.4896 307.88 88.3906 308.338 88.3906C308.442 88.3906 308.562 88.4036 308.697 88.4297C308.833 88.4505 308.927 88.474 308.979 88.5ZM312.525 88.5469V97H311.072V88.5469H312.525ZM310.962 86.3047C310.962 86.0703 311.033 85.8724 311.173 85.7109C311.319 85.5495 311.533 85.4688 311.814 85.4688C312.09 85.4688 312.301 85.5495 312.447 85.7109C312.598 85.8724 312.673 86.0703 312.673 86.3047C312.673 86.5286 312.598 86.7214 312.447 86.8828C312.301 87.0391 312.09 87.1172 311.814 87.1172C311.533 87.1172 311.319 87.0391 311.173 86.8828C311.033 86.7214 310.962 86.5286 310.962 86.3047ZM315.102 92.8672V92.6875C315.102 92.0781 315.191 91.513 315.368 90.9922C315.545 90.4661 315.8 90.0104 316.134 89.625C316.467 89.2344 316.871 88.9323 317.345 88.7188C317.819 88.5 318.35 88.3906 318.938 88.3906C319.532 88.3906 320.066 88.5 320.54 88.7188C321.019 88.9323 321.425 89.2344 321.759 89.625C322.097 90.0104 322.355 90.4661 322.532 90.9922C322.709 91.513 322.798 92.0781 322.798 92.6875V92.8672C322.798 93.4766 322.709 94.0417 322.532 94.5625C322.355 95.0833 322.097 95.5391 321.759 95.9297C321.425 96.3151 321.022 96.6172 320.548 96.8359C320.079 97.0495 319.548 97.1562 318.954 97.1562C318.36 97.1562 317.826 97.0495 317.352 96.8359C316.878 96.6172 316.472 96.3151 316.134 95.9297C315.8 95.5391 315.545 95.0833 315.368 94.5625C315.191 94.0417 315.102 93.4766 315.102 92.8672ZM316.548 92.6875V92.8672C316.548 93.2891 316.597 93.6875 316.696 94.0625C316.795 94.4323 316.944 94.7604 317.141 95.0469C317.345 95.3333 317.597 95.5599 317.899 95.7266C318.201 95.888 318.553 95.9688 318.954 95.9688C319.35 95.9688 319.696 95.888 319.993 95.7266C320.295 95.5599 320.545 95.3333 320.743 95.0469C320.941 94.7604 321.089 94.4323 321.188 94.0625C321.293 93.6875 321.345 93.2891 321.345 92.8672V92.6875C321.345 92.2708 321.293 91.8776 321.188 91.5078C321.089 91.1328 320.938 90.8021 320.735 90.5156C320.537 90.224 320.287 89.9948 319.985 89.8281C319.688 89.6615 319.339 89.5781 318.938 89.5781C318.543 89.5781 318.194 89.6615 317.891 89.8281C317.595 89.9948 317.345 90.224 317.141 90.5156C316.944 90.8021 316.795 91.1328 316.696 91.5078C316.597 91.8776 316.548 92.2708 316.548 92.6875ZM328.578 92.375V92.4531C328.578 93.5938 328.451 94.625 328.196 95.5469C327.94 96.4688 327.615 97.2734 327.219 97.9609C326.823 98.6536 326.406 99.2266 325.969 99.6797C325.531 100.138 325.128 100.469 324.758 100.672L324.453 99.7969C324.761 99.5625 325.071 99.2344 325.383 98.8125C325.696 98.3958 325.985 97.8802 326.25 97.2656C326.516 96.6562 326.729 95.9531 326.891 95.1562C327.052 94.3542 327.133 93.4583 327.133 92.4688V92.3594C327.133 91.3698 327.047 90.4766 326.875 89.6797C326.703 88.8776 326.479 88.1719 326.203 87.5625C325.933 86.9531 325.641 86.4401 325.328 86.0234C325.021 85.6016 324.729 85.276 324.453 85.0469L324.758 84.1641C325.128 84.3672 325.531 84.6979 325.969 85.1562C326.406 85.6094 326.823 86.1823 327.219 86.875C327.615 87.5677 327.94 88.375 328.196 89.2969C328.451 90.2135 328.578 91.2396 328.578 92.375Z" fill="#1A1318"/>
<path d="M113.391 126.215C112.581 126.215 111.847 126.079 111.188 125.807C110.537 125.527 109.974 125.137 109.502 124.636C109.036 124.134 108.678 123.54 108.428 122.853C108.177 122.165 108.052 121.413 108.052 120.597V120.146C108.052 119.2 108.191 118.359 108.471 117.621C108.75 116.876 109.129 116.246 109.609 115.73C110.089 115.215 110.633 114.825 111.242 114.56C111.851 114.295 112.481 114.162 113.133 114.162C113.963 114.162 114.68 114.305 115.281 114.592C115.89 114.878 116.388 115.279 116.774 115.795C117.161 116.303 117.447 116.905 117.634 117.6C117.82 118.287 117.913 119.039 117.913 119.855V120.747H109.233V119.125H115.926V118.975C115.897 118.459 115.79 117.958 115.603 117.471C115.424 116.984 115.138 116.583 114.744 116.268C114.35 115.952 113.813 115.795 113.133 115.795C112.682 115.795 112.266 115.892 111.887 116.085C111.507 116.271 111.181 116.55 110.909 116.923C110.637 117.295 110.426 117.75 110.275 118.287C110.125 118.824 110.05 119.444 110.05 120.146V120.597C110.05 121.148 110.125 121.667 110.275 122.154C110.433 122.634 110.658 123.057 110.952 123.422C111.253 123.787 111.614 124.074 112.037 124.281C112.467 124.489 112.954 124.593 113.498 124.593C114.2 124.593 114.794 124.45 115.281 124.163C115.768 123.877 116.194 123.493 116.559 123.014L117.763 123.97C117.512 124.349 117.193 124.711 116.807 125.055C116.42 125.398 115.944 125.678 115.378 125.893C114.819 126.107 114.157 126.215 113.391 126.215ZM123.101 116.858V126H121.113V114.377H122.993L123.101 116.858ZM122.628 119.748L121.801 119.716C121.808 118.921 121.926 118.187 122.155 117.514C122.384 116.833 122.707 116.243 123.122 115.741C123.537 115.24 124.032 114.853 124.604 114.581C125.185 114.302 125.826 114.162 126.527 114.162C127.1 114.162 127.616 114.241 128.074 114.398C128.533 114.549 128.923 114.792 129.245 115.129C129.575 115.465 129.825 115.902 129.997 116.439C130.169 116.969 130.255 117.618 130.255 118.384V126H128.257V118.362C128.257 117.754 128.167 117.267 127.988 116.901C127.809 116.529 127.548 116.26 127.204 116.096C126.86 115.924 126.438 115.838 125.937 115.838C125.442 115.838 124.991 115.942 124.583 116.149C124.182 116.357 123.835 116.644 123.541 117.009C123.255 117.374 123.029 117.793 122.864 118.266C122.707 118.731 122.628 119.225 122.628 119.748ZM138.977 126.215C138.167 126.215 137.433 126.079 136.775 125.807C136.123 125.527 135.561 125.137 135.088 124.636C134.623 124.134 134.264 123.54 134.014 122.853C133.763 122.165 133.638 121.413 133.638 120.597V120.146C133.638 119.2 133.777 118.359 134.057 117.621C134.336 116.876 134.716 116.246 135.195 115.73C135.675 115.215 136.22 114.825 136.828 114.56C137.437 114.295 138.067 114.162 138.719 114.162C139.55 114.162 140.266 114.305 140.867 114.592C141.476 114.878 141.974 115.279 142.36 115.795C142.747 116.303 143.034 116.905 143.22 117.6C143.406 118.287 143.499 119.039 143.499 119.855V120.747H134.819V119.125H141.512V118.975C141.483 118.459 141.376 117.958 141.19 117.471C141.011 116.984 140.724 116.583 140.33 116.268C139.936 115.952 139.399 115.795 138.719 115.795C138.268 115.795 137.852 115.892 137.473 116.085C137.093 116.271 136.767 116.55 136.495 116.923C136.223 117.295 136.012 117.75 135.861 118.287C135.711 118.824 135.636 119.444 135.636 120.146V120.597C135.636 121.148 135.711 121.667 135.861 122.154C136.019 122.634 136.245 123.057 136.538 123.422C136.839 123.787 137.201 124.074 137.623 124.281C138.053 124.489 138.54 124.593 139.084 124.593C139.786 124.593 140.38 124.45 140.867 124.163C141.354 123.877 141.78 123.493 142.146 123.014L143.349 123.97C143.098 124.349 142.779 124.711 142.393 125.055C142.006 125.398 141.53 125.678 140.964 125.893C140.405 126.107 139.743 126.215 138.977 126.215ZM148.687 116.203V126H146.699V114.377H148.633L148.687 116.203ZM152.318 114.312L152.307 116.16C152.142 116.124 151.985 116.103 151.834 116.096C151.691 116.081 151.526 116.074 151.34 116.074C150.882 116.074 150.477 116.146 150.126 116.289C149.775 116.432 149.478 116.633 149.235 116.891C148.991 117.148 148.798 117.456 148.655 117.814C148.518 118.165 148.429 118.552 148.386 118.975L147.827 119.297C147.827 118.595 147.895 117.936 148.031 117.32C148.175 116.704 148.393 116.16 148.687 115.688C148.98 115.208 149.353 114.835 149.804 114.57C150.262 114.298 150.807 114.162 151.437 114.162C151.58 114.162 151.745 114.18 151.931 114.216C152.117 114.244 152.246 114.277 152.318 114.312ZM174.222 117.176V123.82C173.972 124.141 173.578 124.488 173.039 124.863C172.507 125.238 171.812 125.562 170.953 125.836C170.093 126.102 169.039 126.234 167.789 126.234C166.703 126.234 165.711 126.055 164.812 125.695C163.914 125.328 163.14 124.793 162.492 124.09C161.843 123.387 161.343 122.527 160.992 121.512C160.64 120.496 160.464 119.336 160.464 118.031V116.906C160.464 115.602 160.628 114.441 160.957 113.426C161.293 112.41 161.769 111.551 162.386 110.848C163.011 110.145 163.757 109.609 164.625 109.242C165.5 108.875 166.476 108.691 167.554 108.691C169 108.691 170.187 108.93 171.117 109.406C172.054 109.883 172.773 110.539 173.273 111.375C173.773 112.203 174.086 113.156 174.211 114.234H171.07C170.984 113.641 170.812 113.121 170.554 112.676C170.296 112.223 169.929 111.871 169.453 111.621C168.984 111.363 168.375 111.234 167.625 111.234C166.992 111.234 166.433 111.359 165.949 111.609C165.464 111.859 165.058 112.223 164.73 112.699C164.402 113.176 164.152 113.766 163.98 114.469C163.816 115.172 163.734 115.977 163.734 116.883V118.031C163.734 118.945 163.828 119.758 164.015 120.469C164.203 121.172 164.472 121.766 164.824 122.25C165.183 122.727 165.625 123.09 166.148 123.34C166.679 123.582 167.281 123.703 167.953 123.703C168.562 123.703 169.066 123.652 169.464 123.551C169.871 123.441 170.195 123.312 170.437 123.164C170.679 123.016 170.867 122.871 171 122.73V119.531H167.613V117.176H174.222ZM186.622 114.377V126H184.635V114.377H186.622ZM184.57 112.68L186.654 109.521H189.05L186.171 112.68H184.57ZM197.664 124.013V118.029C197.664 117.571 197.571 117.174 197.385 116.837C197.206 116.493 196.933 116.228 196.568 116.042C196.203 115.856 195.752 115.763 195.215 115.763C194.713 115.763 194.273 115.849 193.893 116.021C193.521 116.192 193.227 116.418 193.013 116.697C192.805 116.977 192.701 117.277 192.701 117.6H190.714C190.714 117.184 190.821 116.772 191.036 116.364C191.251 115.956 191.559 115.587 191.96 115.258C192.368 114.921 192.855 114.656 193.421 114.463C193.994 114.262 194.631 114.162 195.333 114.162C196.178 114.162 196.923 114.305 197.567 114.592C198.219 114.878 198.727 115.312 199.093 115.892C199.465 116.465 199.651 117.184 199.651 118.051V123.465C199.651 123.852 199.683 124.263 199.748 124.7C199.819 125.137 199.923 125.513 200.059 125.828V126H197.986C197.886 125.771 197.807 125.466 197.75 125.087C197.693 124.7 197.664 124.342 197.664 124.013ZM198.008 118.953L198.029 120.35H196.02C195.455 120.35 194.95 120.396 194.506 120.489C194.062 120.575 193.689 120.708 193.388 120.887C193.088 121.066 192.859 121.291 192.701 121.563C192.543 121.828 192.465 122.14 192.465 122.498C192.465 122.863 192.547 123.196 192.712 123.497C192.876 123.798 193.124 124.038 193.453 124.217C193.79 124.389 194.201 124.475 194.688 124.475C195.297 124.475 195.834 124.346 196.3 124.088C196.765 123.83 197.134 123.515 197.406 123.143C197.685 122.77 197.836 122.409 197.857 122.058L198.706 123.014C198.656 123.314 198.52 123.647 198.298 124.013C198.076 124.378 197.778 124.729 197.406 125.065C197.041 125.395 196.604 125.671 196.096 125.893C195.594 126.107 195.028 126.215 194.398 126.215C193.61 126.215 192.919 126.061 192.325 125.753C191.738 125.445 191.279 125.033 190.95 124.518C190.628 123.995 190.467 123.411 190.467 122.767C190.467 122.144 190.588 121.596 190.832 121.123C191.075 120.643 191.426 120.246 191.885 119.931C192.343 119.608 192.894 119.365 193.539 119.2C194.183 119.035 194.903 118.953 195.698 118.953H198.008ZM247.549 121.453V121.375C247.549 120.24 247.676 119.214 247.931 118.297C248.187 117.375 248.512 116.568 248.908 115.875C249.304 115.182 249.721 114.609 250.158 114.156C250.596 113.698 250.999 113.367 251.369 113.164L251.674 114.117C251.366 114.352 251.054 114.674 250.736 115.086C250.424 115.497 250.135 116.003 249.869 116.602C249.609 117.201 249.398 117.896 249.236 118.688C249.075 119.479 248.994 120.37 248.994 121.359V121.469C248.994 122.458 249.075 123.352 249.236 124.148C249.398 124.94 249.609 125.638 249.869 126.242C250.135 126.846 250.424 127.359 250.736 127.781C251.054 128.208 251.366 128.547 251.674 128.797L251.369 129.672C250.999 129.469 250.596 129.138 250.158 128.68C249.721 128.227 249.304 127.654 248.908 126.961C248.512 126.273 248.187 125.469 247.931 124.547C247.676 123.625 247.549 122.594 247.549 121.453ZM255.173 118.875V126H253.728V117.547H255.134L255.173 118.875ZM257.814 117.5L257.806 118.844C257.686 118.818 257.571 118.802 257.462 118.797C257.358 118.786 257.238 118.781 257.103 118.781C256.769 118.781 256.475 118.833 256.22 118.938C255.965 119.042 255.748 119.188 255.571 119.375C255.394 119.562 255.254 119.786 255.15 120.047C255.051 120.302 254.985 120.583 254.954 120.891L254.548 121.125C254.548 120.615 254.597 120.135 254.696 119.688C254.801 119.24 254.959 118.844 255.173 118.5C255.387 118.151 255.657 117.88 255.985 117.688C256.319 117.49 256.715 117.391 257.173 117.391C257.277 117.391 257.397 117.404 257.532 117.43C257.668 117.451 257.762 117.474 257.814 117.5ZM263.141 126.156C262.553 126.156 262.019 126.057 261.54 125.859C261.066 125.656 260.657 125.372 260.313 125.008C259.974 124.643 259.714 124.211 259.532 123.711C259.349 123.211 259.258 122.664 259.258 122.07V121.742C259.258 121.055 259.36 120.443 259.563 119.906C259.766 119.365 260.042 118.906 260.391 118.531C260.74 118.156 261.136 117.872 261.579 117.68C262.021 117.487 262.48 117.391 262.954 117.391C263.558 117.391 264.079 117.495 264.516 117.703C264.959 117.911 265.321 118.203 265.602 118.578C265.883 118.948 266.092 119.385 266.227 119.891C266.362 120.391 266.43 120.938 266.43 121.531V122.18H260.118V121H264.985V120.891C264.964 120.516 264.886 120.151 264.75 119.797C264.62 119.443 264.412 119.151 264.125 118.922C263.839 118.693 263.448 118.578 262.954 118.578C262.625 118.578 262.323 118.648 262.047 118.789C261.771 118.924 261.534 119.128 261.336 119.398C261.139 119.669 260.985 120 260.875 120.391C260.766 120.781 260.711 121.232 260.711 121.742V122.07C260.711 122.471 260.766 122.849 260.875 123.203C260.99 123.552 261.154 123.859 261.368 124.125C261.586 124.391 261.849 124.599 262.157 124.75C262.469 124.901 262.823 124.977 263.219 124.977C263.73 124.977 264.162 124.872 264.516 124.664C264.87 124.456 265.18 124.177 265.446 123.828L266.321 124.523C266.139 124.799 265.907 125.062 265.625 125.312C265.344 125.562 264.998 125.766 264.586 125.922C264.18 126.078 263.698 126.156 263.141 126.156ZM273.68 123.758C273.68 123.549 273.633 123.357 273.539 123.18C273.45 122.997 273.266 122.833 272.984 122.688C272.708 122.536 272.292 122.406 271.734 122.297C271.266 122.198 270.841 122.081 270.461 121.945C270.086 121.81 269.766 121.646 269.5 121.453C269.239 121.26 269.039 121.034 268.898 120.773C268.758 120.513 268.687 120.208 268.687 119.859C268.687 119.526 268.76 119.211 268.906 118.914C269.057 118.617 269.268 118.354 269.539 118.125C269.815 117.896 270.146 117.716 270.531 117.586C270.917 117.456 271.346 117.391 271.82 117.391C272.497 117.391 273.075 117.51 273.555 117.75C274.034 117.99 274.401 118.31 274.656 118.711C274.911 119.107 275.039 119.547 275.039 120.031H273.594C273.594 119.797 273.523 119.57 273.383 119.352C273.247 119.128 273.047 118.943 272.781 118.797C272.521 118.651 272.2 118.578 271.82 118.578C271.419 118.578 271.094 118.641 270.844 118.766C270.599 118.885 270.419 119.039 270.305 119.227C270.195 119.414 270.141 119.612 270.141 119.82C270.141 119.977 270.167 120.117 270.219 120.242C270.276 120.362 270.375 120.474 270.516 120.578C270.656 120.677 270.854 120.771 271.109 120.859C271.364 120.948 271.69 121.036 272.086 121.125C272.779 121.281 273.349 121.469 273.797 121.688C274.245 121.906 274.578 122.174 274.797 122.492C275.016 122.81 275.125 123.195 275.125 123.648C275.125 124.018 275.047 124.357 274.891 124.664C274.739 124.971 274.518 125.237 274.226 125.461C273.94 125.68 273.596 125.852 273.195 125.977C272.799 126.096 272.354 126.156 271.859 126.156C271.114 126.156 270.484 126.023 269.969 125.758C269.453 125.492 269.062 125.148 268.797 124.727C268.531 124.305 268.398 123.859 268.398 123.391H269.851C269.872 123.786 269.987 124.102 270.195 124.336C270.404 124.565 270.659 124.729 270.961 124.828C271.263 124.922 271.562 124.969 271.859 124.969C272.255 124.969 272.586 124.917 272.851 124.812C273.122 124.708 273.328 124.565 273.469 124.383C273.609 124.201 273.68 123.992 273.68 123.758ZM279.234 117.547V126H277.781V117.547H279.234ZM277.671 115.305C277.671 115.07 277.741 114.872 277.882 114.711C278.028 114.549 278.241 114.469 278.523 114.469C278.799 114.469 279.01 114.549 279.156 114.711C279.307 114.872 279.382 115.07 279.382 115.305C279.382 115.529 279.307 115.721 279.156 115.883C279.01 116.039 278.799 116.117 278.523 116.117C278.241 116.117 278.028 116.039 277.882 115.883C277.741 115.721 277.671 115.529 277.671 115.305ZM287.116 123.758C287.116 123.549 287.069 123.357 286.975 123.18C286.887 122.997 286.702 122.833 286.421 122.688C286.144 122.536 285.728 122.406 285.171 122.297C284.702 122.198 284.277 122.081 283.897 121.945C283.522 121.81 283.202 121.646 282.936 121.453C282.676 121.26 282.475 121.034 282.335 120.773C282.194 120.513 282.124 120.208 282.124 119.859C282.124 119.526 282.197 119.211 282.342 118.914C282.493 118.617 282.704 118.354 282.975 118.125C283.251 117.896 283.582 117.716 283.967 117.586C284.353 117.456 284.783 117.391 285.256 117.391C285.934 117.391 286.512 117.51 286.991 117.75C287.47 117.99 287.837 118.31 288.092 118.711C288.348 119.107 288.475 119.547 288.475 120.031H287.03C287.03 119.797 286.96 119.57 286.819 119.352C286.684 119.128 286.483 118.943 286.217 118.797C285.957 118.651 285.637 118.578 285.256 118.578C284.855 118.578 284.53 118.641 284.28 118.766C284.035 118.885 283.855 119.039 283.741 119.227C283.631 119.414 283.577 119.612 283.577 119.82C283.577 119.977 283.603 120.117 283.655 120.242C283.712 120.362 283.811 120.474 283.952 120.578C284.092 120.677 284.29 120.771 284.546 120.859C284.801 120.948 285.126 121.036 285.522 121.125C286.215 121.281 286.785 121.469 287.233 121.688C287.681 121.906 288.014 122.174 288.233 122.492C288.452 122.81 288.561 123.195 288.561 123.648C288.561 124.018 288.483 124.357 288.327 124.664C288.176 124.971 287.954 125.237 287.663 125.461C287.376 125.68 287.033 125.852 286.631 125.977C286.236 126.096 285.79 126.156 285.296 126.156C284.551 126.156 283.921 126.023 283.405 125.758C282.889 125.492 282.499 125.148 282.233 124.727C281.967 124.305 281.835 123.859 281.835 123.391H283.288C283.309 123.786 283.423 124.102 283.631 124.336C283.84 124.565 284.095 124.729 284.397 124.828C284.699 124.922 284.999 124.969 285.296 124.969C285.691 124.969 286.022 124.917 286.288 124.812C286.559 124.708 286.764 124.565 286.905 124.383C287.046 124.201 287.116 123.992 287.116 123.758ZM294.639 117.547V118.656H290.068V117.547H294.639ZM291.615 115.492H293.06V123.906C293.06 124.193 293.105 124.409 293.193 124.555C293.282 124.701 293.396 124.797 293.537 124.844C293.678 124.891 293.829 124.914 293.99 124.914C294.11 124.914 294.235 124.904 294.365 124.883C294.501 124.857 294.602 124.836 294.67 124.82L294.678 126C294.563 126.036 294.412 126.07 294.225 126.102C294.042 126.138 293.821 126.156 293.56 126.156C293.206 126.156 292.881 126.086 292.584 125.945C292.287 125.805 292.05 125.57 291.873 125.242C291.701 124.909 291.615 124.461 291.615 123.898V115.492ZM300.482 126.156C299.893 126.156 299.359 126.057 298.88 125.859C298.406 125.656 297.997 125.372 297.654 125.008C297.315 124.643 297.055 124.211 296.872 123.711C296.69 123.211 296.599 122.664 296.599 122.07V121.742C296.599 121.055 296.701 120.443 296.904 119.906C297.107 119.365 297.383 118.906 297.732 118.531C298.081 118.156 298.477 117.872 298.919 117.68C299.362 117.487 299.82 117.391 300.294 117.391C300.898 117.391 301.419 117.495 301.857 117.703C302.299 117.911 302.661 118.203 302.943 118.578C303.224 118.948 303.432 119.385 303.568 119.891C303.703 120.391 303.771 120.938 303.771 121.531V122.18H297.458V121H302.326V120.891C302.305 120.516 302.227 120.151 302.091 119.797C301.961 119.443 301.753 119.151 301.466 118.922C301.18 118.693 300.789 118.578 300.294 118.578C299.966 118.578 299.664 118.648 299.388 118.789C299.112 118.924 298.875 119.128 298.677 119.398C298.479 119.669 298.326 120 298.216 120.391C298.107 120.781 298.052 121.232 298.052 121.742V122.07C298.052 122.471 298.107 122.849 298.216 123.203C298.331 123.552 298.495 123.859 298.708 124.125C298.927 124.391 299.19 124.599 299.497 124.75C299.81 124.901 300.164 124.977 300.56 124.977C301.07 124.977 301.503 124.872 301.857 124.664C302.211 124.456 302.521 124.177 302.786 123.828L303.661 124.523C303.479 124.799 303.247 125.062 302.966 125.312C302.685 125.562 302.339 125.766 301.927 125.922C301.521 126.078 301.039 126.156 300.482 126.156ZM307.544 119.352V126H306.098V117.547H307.466L307.544 119.352ZM307.2 121.453L306.598 121.43C306.604 120.852 306.689 120.318 306.856 119.828C307.023 119.333 307.257 118.904 307.559 118.539C307.861 118.174 308.221 117.893 308.637 117.695C309.059 117.492 309.525 117.391 310.036 117.391C310.452 117.391 310.827 117.448 311.161 117.562C311.494 117.672 311.778 117.849 312.012 118.094C312.252 118.339 312.434 118.656 312.559 119.047C312.684 119.432 312.747 119.904 312.747 120.461V126H311.294V120.445C311.294 120.003 311.229 119.648 311.098 119.383C310.968 119.112 310.778 118.917 310.528 118.797C310.278 118.672 309.971 118.609 309.606 118.609C309.247 118.609 308.919 118.685 308.622 118.836C308.33 118.987 308.077 119.195 307.864 119.461C307.656 119.727 307.492 120.031 307.372 120.375C307.257 120.714 307.2 121.073 307.2 121.453ZM318.965 124.969C319.309 124.969 319.626 124.898 319.918 124.758C320.21 124.617 320.449 124.424 320.637 124.18C320.824 123.93 320.931 123.646 320.957 123.328H322.332C322.306 123.828 322.137 124.294 321.824 124.727C321.517 125.154 321.113 125.5 320.613 125.766C320.113 126.026 319.564 126.156 318.965 126.156C318.329 126.156 317.775 126.044 317.301 125.82C316.832 125.596 316.441 125.289 316.129 124.898C315.822 124.508 315.59 124.06 315.434 123.555C315.283 123.044 315.207 122.505 315.207 121.938V121.609C315.207 121.042 315.283 120.505 315.434 120C315.59 119.49 315.822 119.039 316.129 118.648C316.441 118.258 316.832 117.951 317.301 117.727C317.775 117.503 318.329 117.391 318.965 117.391C319.626 117.391 320.204 117.526 320.699 117.797C321.194 118.062 321.582 118.427 321.863 118.891C322.15 119.349 322.306 119.87 322.332 120.453H320.957C320.931 120.104 320.832 119.789 320.66 119.508C320.493 119.227 320.264 119.003 319.973 118.836C319.686 118.664 319.35 118.578 318.965 118.578C318.522 118.578 318.15 118.667 317.848 118.844C317.551 119.016 317.314 119.25 317.137 119.547C316.965 119.839 316.84 120.164 316.762 120.523C316.689 120.878 316.652 121.24 316.652 121.609V121.938C316.652 122.307 316.689 122.672 316.762 123.031C316.835 123.391 316.957 123.716 317.129 124.008C317.306 124.299 317.543 124.534 317.84 124.711C318.142 124.883 318.517 124.969 318.965 124.969ZM326.167 117.547V126H324.714V117.547H326.167ZM324.605 115.305C324.605 115.07 324.675 114.872 324.816 114.711C324.962 114.549 325.175 114.469 325.456 114.469C325.732 114.469 325.943 114.549 326.089 114.711C326.24 114.872 326.316 115.07 326.316 115.305C326.316 115.529 326.24 115.721 326.089 115.883C325.943 116.039 325.732 116.117 325.456 116.117C325.175 116.117 324.962 116.039 324.816 115.883C324.675 115.721 324.605 115.529 324.605 115.305ZM334.112 124.555V120.203C334.112 119.87 334.044 119.581 333.909 119.336C333.779 119.086 333.581 118.893 333.315 118.758C333.05 118.622 332.721 118.555 332.331 118.555C331.966 118.555 331.646 118.617 331.37 118.742C331.099 118.867 330.885 119.031 330.729 119.234C330.578 119.438 330.503 119.656 330.503 119.891H329.057C329.057 119.589 329.135 119.289 329.292 118.992C329.448 118.695 329.672 118.427 329.964 118.188C330.26 117.943 330.615 117.75 331.026 117.609C331.443 117.464 331.906 117.391 332.417 117.391C333.031 117.391 333.573 117.495 334.042 117.703C334.516 117.911 334.885 118.227 335.151 118.648C335.422 119.065 335.557 119.589 335.557 120.219V124.156C335.557 124.438 335.581 124.737 335.628 125.055C335.68 125.372 335.755 125.646 335.854 125.875V126H334.346C334.274 125.833 334.216 125.612 334.175 125.336C334.133 125.055 334.112 124.794 334.112 124.555ZM334.362 120.875L334.378 121.891H332.917C332.505 121.891 332.138 121.924 331.815 121.992C331.492 122.055 331.221 122.151 331.003 122.281C330.784 122.411 330.617 122.576 330.503 122.773C330.388 122.966 330.331 123.193 330.331 123.453C330.331 123.719 330.391 123.961 330.51 124.18C330.63 124.398 330.81 124.573 331.05 124.703C331.294 124.828 331.594 124.891 331.948 124.891C332.391 124.891 332.781 124.797 333.12 124.609C333.458 124.422 333.727 124.193 333.925 123.922C334.128 123.651 334.237 123.388 334.253 123.133L334.87 123.828C334.833 124.047 334.734 124.289 334.573 124.555C334.412 124.82 334.195 125.076 333.925 125.32C333.659 125.56 333.341 125.76 332.971 125.922C332.607 126.078 332.195 126.156 331.737 126.156C331.164 126.156 330.662 126.044 330.229 125.82C329.802 125.596 329.469 125.297 329.229 124.922C328.995 124.542 328.878 124.117 328.878 123.648C328.878 123.195 328.966 122.797 329.143 122.453C329.32 122.104 329.576 121.815 329.909 121.586C330.242 121.352 330.643 121.174 331.112 121.055C331.581 120.935 332.104 120.875 332.682 120.875H334.362ZM341.799 121.375V121.453C341.799 122.594 341.671 123.625 341.416 124.547C341.161 125.469 340.835 126.273 340.44 126.961C340.044 127.654 339.627 128.227 339.19 128.68C338.752 129.138 338.348 129.469 337.979 129.672L337.674 128.797C337.981 128.562 338.291 128.234 338.604 127.812C338.916 127.396 339.205 126.88 339.471 126.266C339.736 125.656 339.95 124.953 340.111 124.156C340.273 123.354 340.354 122.458 340.354 121.469V121.359C340.354 120.37 340.268 119.477 340.096 118.68C339.924 117.878 339.7 117.172 339.424 116.562C339.153 115.953 338.861 115.44 338.549 115.023C338.242 114.602 337.95 114.276 337.674 114.047L337.979 113.164C338.348 113.367 338.752 113.698 339.19 114.156C339.627 114.609 340.044 115.182 340.44 115.875C340.835 116.568 341.161 117.375 341.416 118.297C341.671 119.214 341.799 120.24 341.799 121.375Z" fill="#1A1318"/>
<path d="M83.1465 138.5H85.1445V152.744L84.9727 155H83.1465V138.5ZM92.9971 149.092V149.317C92.9971 150.162 92.8968 150.947 92.6963 151.67C92.4958 152.386 92.2021 153.009 91.8154 153.539C91.4287 154.069 90.9561 154.481 90.3975 154.774C89.8389 155.068 89.1979 155.215 88.4746 155.215C87.737 155.215 87.0889 155.09 86.5303 154.839C85.9788 154.581 85.5133 154.212 85.1338 153.732C84.7542 153.253 84.4499 152.673 84.2207 151.992C83.9987 151.312 83.8447 150.546 83.7588 149.693V148.705C83.8447 147.846 83.9987 147.076 84.2207 146.396C84.4499 145.715 84.7542 145.135 85.1338 144.655C85.5133 144.168 85.9788 143.799 86.5303 143.549C87.0817 143.291 87.7227 143.162 88.4531 143.162C89.1836 143.162 89.8317 143.305 90.3975 143.592C90.9632 143.871 91.4359 144.272 91.8154 144.795C92.2021 145.318 92.4958 145.944 92.6963 146.675C92.8968 147.398 92.9971 148.204 92.9971 149.092ZM90.999 149.317V149.092C90.999 148.512 90.9453 147.967 90.8379 147.459C90.7305 146.943 90.5586 146.492 90.3223 146.105C90.0859 145.712 89.7744 145.404 89.3877 145.182C89.001 144.952 88.5247 144.838 87.959 144.838C87.4577 144.838 87.0208 144.924 86.6484 145.096C86.2832 145.268 85.9717 145.5 85.7139 145.794C85.4561 146.08 85.2448 146.41 85.0801 146.782C84.9225 147.147 84.8044 147.527 84.7256 147.921V150.51C84.8402 151.011 85.0264 151.494 85.2842 151.96C85.5492 152.418 85.9001 152.794 86.3369 153.088C86.7809 153.382 87.3288 153.528 87.9805 153.528C88.5176 153.528 88.9759 153.421 89.3555 153.206C89.7422 152.984 90.0537 152.68 90.29 152.293C90.5335 151.906 90.7126 151.459 90.8271 150.95C90.9417 150.442 90.999 149.897 90.999 149.317ZM98.5499 143.377V155H96.5519V143.377H98.5499ZM96.4015 140.294C96.4015 139.972 96.4982 139.7 96.6915 139.478C96.892 139.256 97.1857 139.145 97.5724 139.145C97.9519 139.145 98.242 139.256 98.4425 139.478C98.6502 139.7 98.754 139.972 98.754 140.294C98.754 140.602 98.6502 140.867 98.4425 141.089C98.242 141.304 97.9519 141.411 97.5724 141.411C97.1857 141.411 96.892 141.304 96.6915 141.089C96.4982 140.867 96.4015 140.602 96.4015 140.294ZM102.094 149.317V149.07C102.094 148.232 102.216 147.455 102.459 146.739C102.703 146.016 103.054 145.389 103.512 144.859C103.97 144.322 104.525 143.907 105.177 143.613C105.829 143.312 106.559 143.162 107.368 143.162C108.185 143.162 108.919 143.312 109.571 143.613C110.229 143.907 110.788 144.322 111.246 144.859C111.712 145.389 112.066 146.016 112.31 146.739C112.553 147.455 112.675 148.232 112.675 149.07V149.317C112.675 150.155 112.553 150.932 112.31 151.648C112.066 152.365 111.712 152.991 111.246 153.528C110.788 154.058 110.233 154.474 109.581 154.774C108.937 155.068 108.206 155.215 107.39 155.215C106.573 155.215 105.839 155.068 105.188 154.774C104.536 154.474 103.977 154.058 103.512 153.528C103.054 152.991 102.703 152.365 102.459 151.648C102.216 150.932 102.094 150.155 102.094 149.317ZM104.081 149.07V149.317C104.081 149.897 104.149 150.445 104.285 150.961C104.421 151.469 104.626 151.921 104.898 152.314C105.177 152.708 105.524 153.02 105.94 153.249C106.355 153.471 106.838 153.582 107.39 153.582C107.934 153.582 108.41 153.471 108.819 153.249C109.234 153.02 109.578 152.708 109.85 152.314C110.122 151.921 110.326 151.469 110.462 150.961C110.605 150.445 110.677 149.897 110.677 149.317V149.07C110.677 148.497 110.605 147.957 110.462 147.448C110.326 146.933 110.118 146.478 109.839 146.084C109.567 145.683 109.223 145.368 108.808 145.139C108.4 144.91 107.92 144.795 107.368 144.795C106.824 144.795 106.344 144.91 105.929 145.139C105.521 145.368 105.177 145.683 104.898 146.084C104.626 146.478 104.421 146.933 104.285 147.448C104.149 147.957 104.081 148.497 104.081 149.07ZM118.206 138.5V155H116.208V138.5H118.206ZM121.75 149.317V149.07C121.75 148.232 121.872 147.455 122.116 146.739C122.359 146.016 122.71 145.389 123.168 144.859C123.627 144.322 124.182 143.907 124.833 143.613C125.485 143.312 126.216 143.162 127.025 143.162C127.841 143.162 128.575 143.312 129.227 143.613C129.886 143.907 130.444 144.322 130.903 144.859C131.368 145.389 131.723 146.016 131.966 146.739C132.21 147.455 132.332 148.232 132.332 149.07V149.317C132.332 150.155 132.21 150.932 131.966 151.648C131.723 152.365 131.368 152.991 130.903 153.528C130.444 154.058 129.889 154.474 129.238 154.774C128.593 155.068 127.863 155.215 127.046 155.215C126.23 155.215 125.496 155.068 124.844 154.774C124.193 154.474 123.634 154.058 123.168 153.528C122.71 152.991 122.359 152.365 122.116 151.648C121.872 150.932 121.75 150.155 121.75 149.317ZM123.738 149.07V149.317C123.738 149.897 123.806 150.445 123.942 150.961C124.078 151.469 124.282 151.921 124.554 152.314C124.833 152.708 125.181 153.02 125.596 153.249C126.012 153.471 126.495 153.582 127.046 153.582C127.591 153.582 128.067 153.471 128.475 153.249C128.89 153.02 129.234 152.708 129.506 152.314C129.778 151.921 129.983 151.469 130.119 150.961C130.262 150.445 130.333 149.897 130.333 149.317V149.07C130.333 148.497 130.262 147.957 130.119 147.448C129.983 146.933 129.775 146.478 129.496 146.084C129.223 145.683 128.88 145.368 128.464 145.139C128.056 144.91 127.576 144.795 127.025 144.795C126.481 144.795 126.001 144.91 125.585 145.139C125.177 145.368 124.833 145.683 124.554 146.084C124.282 146.478 124.078 146.933 123.942 147.448C123.806 147.957 123.738 148.497 123.738 149.07ZM143.234 143.377H145.039V154.753C145.039 155.777 144.831 156.651 144.416 157.374C144 158.097 143.42 158.645 142.675 159.018C141.938 159.397 141.086 159.587 140.119 159.587C139.718 159.587 139.245 159.522 138.701 159.394C138.164 159.272 137.634 159.061 137.111 158.76C136.595 158.466 136.162 158.069 135.811 157.567L136.853 156.386C137.34 156.973 137.849 157.381 138.379 157.61C138.916 157.84 139.446 157.954 139.968 157.954C140.599 157.954 141.143 157.836 141.601 157.6C142.06 157.363 142.414 157.012 142.665 156.547C142.922 156.089 143.051 155.523 143.051 154.85V145.934L143.234 143.377ZM135.231 149.317V149.092C135.231 148.204 135.335 147.398 135.543 146.675C135.757 145.944 136.062 145.318 136.456 144.795C136.857 144.272 137.34 143.871 137.906 143.592C138.472 143.305 139.109 143.162 139.818 143.162C140.548 143.162 141.186 143.291 141.73 143.549C142.282 143.799 142.747 144.168 143.127 144.655C143.513 145.135 143.818 145.715 144.04 146.396C144.262 147.076 144.416 147.846 144.502 148.705V149.693C144.423 150.546 144.269 151.312 144.04 151.992C143.818 152.673 143.513 153.253 143.127 153.732C142.747 154.212 142.282 154.581 141.73 154.839C141.179 155.09 140.534 155.215 139.797 155.215C139.102 155.215 138.472 155.068 137.906 154.774C137.347 154.481 136.867 154.069 136.466 153.539C136.065 153.009 135.757 152.386 135.543 151.67C135.335 150.947 135.231 150.162 135.231 149.317ZM137.218 149.092V149.317C137.218 149.897 137.276 150.442 137.39 150.95C137.512 151.459 137.695 151.906 137.938 152.293C138.189 152.68 138.507 152.984 138.894 153.206C139.281 153.421 139.743 153.528 140.28 153.528C140.939 153.528 141.483 153.389 141.913 153.109C142.342 152.83 142.683 152.461 142.933 152.003C143.191 151.545 143.392 151.047 143.535 150.51V147.921C143.456 147.527 143.334 147.147 143.17 146.782C143.012 146.41 142.804 146.08 142.547 145.794C142.296 145.5 141.984 145.268 141.612 145.096C141.24 144.924 140.803 144.838 140.301 144.838C139.757 144.838 139.288 144.952 138.894 145.182C138.507 145.404 138.189 145.712 137.938 146.105C137.695 146.492 137.512 146.943 137.39 147.459C137.276 147.967 137.218 148.512 137.218 149.092ZM151.086 143.377V155H149.098V143.377H151.086ZM149.034 141.68L151.118 138.521H153.513L150.635 141.68H149.034ZM167.935 140.527L163.071 155H159.661L166.036 137.938H168.216L167.935 140.527ZM172.001 155L167.114 140.527L166.821 137.938H169.013L175.423 155H172.001ZM171.778 148.66V151.203H162.626V148.66H171.778ZM246.924 150.453V150.375C246.924 149.24 247.052 148.214 247.307 147.297C247.562 146.375 247.888 145.568 248.284 144.875C248.68 144.182 249.096 143.609 249.534 143.156C249.971 142.698 250.375 142.367 250.745 142.164L251.049 143.117C250.742 143.352 250.43 143.674 250.112 144.086C249.799 144.497 249.51 145.003 249.245 145.602C248.984 146.201 248.773 146.896 248.612 147.688C248.45 148.479 248.37 149.37 248.37 150.359V150.469C248.37 151.458 248.45 152.352 248.612 153.148C248.773 153.94 248.984 154.638 249.245 155.242C249.51 155.846 249.799 156.359 250.112 156.781C250.43 157.208 250.742 157.547 251.049 157.797L250.745 158.672C250.375 158.469 249.971 158.138 249.534 157.68C249.096 157.227 248.68 156.654 248.284 155.961C247.888 155.273 247.562 154.469 247.307 153.547C247.052 152.625 246.924 151.594 246.924 150.453ZM255.26 155H253.814V145.656C253.814 145.047 253.924 144.534 254.142 144.117C254.366 143.695 254.687 143.378 255.103 143.164C255.52 142.945 256.015 142.836 256.588 142.836C256.754 142.836 256.921 142.846 257.088 142.867C257.26 142.888 257.426 142.919 257.588 142.961L257.51 144.141C257.4 144.115 257.275 144.096 257.135 144.086C256.999 144.076 256.864 144.07 256.728 144.07C256.421 144.07 256.155 144.133 255.932 144.258C255.713 144.378 255.546 144.555 255.432 144.789C255.317 145.023 255.26 145.312 255.26 145.656V155ZM257.057 146.547V147.656H252.478V146.547H257.057ZM264.478 153.047V146.547H265.931V155H264.548L264.478 153.047ZM264.751 151.266L265.353 151.25C265.353 151.812 265.293 152.333 265.173 152.812C265.058 153.286 264.871 153.698 264.611 154.047C264.35 154.396 264.009 154.669 263.587 154.867C263.165 155.06 262.652 155.156 262.048 155.156C261.637 155.156 261.259 155.096 260.915 154.977C260.577 154.857 260.285 154.672 260.04 154.422C259.795 154.172 259.605 153.846 259.47 153.445C259.34 153.044 259.275 152.562 259.275 152V146.547H260.72V152.016C260.72 152.396 260.762 152.711 260.845 152.961C260.933 153.206 261.051 153.401 261.196 153.547C261.348 153.688 261.514 153.786 261.696 153.844C261.884 153.901 262.077 153.93 262.275 153.93C262.889 153.93 263.376 153.812 263.736 153.578C264.095 153.339 264.353 153.018 264.509 152.617C264.67 152.211 264.751 151.76 264.751 151.266ZM272.282 155.156C271.693 155.156 271.159 155.057 270.68 154.859C270.206 154.656 269.797 154.372 269.454 154.008C269.115 153.643 268.855 153.211 268.672 152.711C268.49 152.211 268.399 151.664 268.399 151.07V150.742C268.399 150.055 268.501 149.443 268.704 148.906C268.907 148.365 269.183 147.906 269.532 147.531C269.881 147.156 270.277 146.872 270.719 146.68C271.162 146.487 271.62 146.391 272.094 146.391C272.698 146.391 273.219 146.495 273.657 146.703C274.1 146.911 274.461 147.203 274.743 147.578C275.024 147.948 275.232 148.385 275.368 148.891C275.503 149.391 275.571 149.938 275.571 150.531V151.18H269.258V150H274.126V149.891C274.105 149.516 274.027 149.151 273.891 148.797C273.761 148.443 273.553 148.151 273.266 147.922C272.98 147.693 272.589 147.578 272.094 147.578C271.766 147.578 271.464 147.648 271.188 147.789C270.912 147.924 270.675 148.128 270.477 148.398C270.279 148.669 270.126 149 270.016 149.391C269.907 149.781 269.852 150.232 269.852 150.742V151.07C269.852 151.471 269.907 151.849 270.016 152.203C270.131 152.552 270.295 152.859 270.508 153.125C270.727 153.391 270.99 153.599 271.297 153.75C271.61 153.901 271.964 153.977 272.36 153.977C272.87 153.977 273.303 153.872 273.657 153.664C274.011 153.456 274.321 153.177 274.586 152.828L275.461 153.523C275.279 153.799 275.047 154.062 274.766 154.312C274.485 154.562 274.139 154.766 273.727 154.922C273.321 155.078 272.839 155.156 272.282 155.156ZM279.344 147.875V155H277.898V146.547H279.305L279.344 147.875ZM281.984 146.5L281.977 147.844C281.857 147.818 281.742 147.802 281.633 147.797C281.529 147.786 281.409 147.781 281.273 147.781C280.94 147.781 280.646 147.833 280.391 147.938C280.135 148.042 279.919 148.188 279.742 148.375C279.565 148.562 279.424 148.786 279.32 149.047C279.221 149.302 279.156 149.583 279.125 149.891L278.719 150.125C278.719 149.615 278.768 149.135 278.867 148.688C278.971 148.24 279.13 147.844 279.344 147.5C279.557 147.151 279.828 146.88 280.156 146.688C280.49 146.49 280.885 146.391 281.344 146.391C281.448 146.391 281.568 146.404 281.703 146.43C281.838 146.451 281.932 146.474 281.984 146.5ZM290.257 153.812V155H284.109V153.812H290.257ZM290.031 147.57L284.437 155H283.554V153.938L289.109 146.547H290.031V147.57ZM289.39 146.547V147.742H283.616V146.547H289.39ZM297.522 153.555V149.203C297.522 148.87 297.454 148.581 297.319 148.336C297.189 148.086 296.991 147.893 296.725 147.758C296.46 147.622 296.131 147.555 295.741 147.555C295.376 147.555 295.056 147.617 294.78 147.742C294.509 147.867 294.296 148.031 294.139 148.234C293.988 148.438 293.913 148.656 293.913 148.891H292.467C292.467 148.589 292.546 148.289 292.702 147.992C292.858 147.695 293.082 147.427 293.374 147.188C293.671 146.943 294.025 146.75 294.436 146.609C294.853 146.464 295.316 146.391 295.827 146.391C296.441 146.391 296.983 146.495 297.452 146.703C297.926 146.911 298.296 147.227 298.561 147.648C298.832 148.065 298.967 148.589 298.967 149.219V153.156C298.967 153.438 298.991 153.737 299.038 154.055C299.09 154.372 299.165 154.646 299.264 154.875V155H297.756C297.684 154.833 297.626 154.612 297.585 154.336C297.543 154.055 297.522 153.794 297.522 153.555ZM297.772 149.875L297.788 150.891H296.327C295.915 150.891 295.548 150.924 295.225 150.992C294.902 151.055 294.631 151.151 294.413 151.281C294.194 151.411 294.027 151.576 293.913 151.773C293.798 151.966 293.741 152.193 293.741 152.453C293.741 152.719 293.801 152.961 293.921 153.18C294.04 153.398 294.22 153.573 294.46 153.703C294.704 153.828 295.004 153.891 295.358 153.891C295.801 153.891 296.191 153.797 296.53 153.609C296.868 153.422 297.137 153.193 297.335 152.922C297.538 152.651 297.647 152.388 297.663 152.133L298.28 152.828C298.243 153.047 298.144 153.289 297.983 153.555C297.822 153.82 297.605 154.076 297.335 154.32C297.069 154.56 296.751 154.76 296.381 154.922C296.017 155.078 295.605 155.156 295.147 155.156C294.574 155.156 294.072 155.044 293.639 154.82C293.212 154.596 292.879 154.297 292.639 153.922C292.405 153.542 292.288 153.117 292.288 152.648C292.288 152.195 292.376 151.797 292.553 151.453C292.73 151.104 292.986 150.815 293.319 150.586C293.652 150.352 294.053 150.174 294.522 150.055C294.991 149.935 295.514 149.875 296.092 149.875H297.772ZM305.209 150.375V150.453C305.209 151.594 305.081 152.625 304.826 153.547C304.571 154.469 304.245 155.273 303.85 155.961C303.454 156.654 303.037 157.227 302.6 157.68C302.162 158.138 301.758 158.469 301.389 158.672L301.084 157.797C301.391 157.562 301.701 157.234 302.014 156.812C302.326 156.396 302.615 155.88 302.881 155.266C303.146 154.656 303.36 153.953 303.521 153.156C303.683 152.354 303.764 151.458 303.764 150.469V150.359C303.764 149.37 303.678 148.477 303.506 147.68C303.334 146.878 303.11 146.172 302.834 145.562C302.563 144.953 302.271 144.44 301.959 144.023C301.652 143.602 301.36 143.276 301.084 143.047L301.389 142.164C301.758 142.367 302.162 142.698 302.6 143.156C303.037 143.609 303.454 144.182 303.85 144.875C304.245 145.568 304.571 146.375 304.826 147.297C305.081 148.214 305.209 149.24 305.209 150.375Z" fill="#1A1318"/>
</g>
<defs>
<clipPath id="clip0_2102_2">
<rect width="419" height="206" fill="white"/>
</clipPath>
</defs>
</svg>
