<svg width="125" height="129" viewBox="0 0 125 129" fill="none" xmlns="http://www.w3.org/2000/svg">
<path d="M75.4167 26.326C74.2227 23.8928 72.7533 21.6264 71.0417 19.578C69.6355 17.8492 68.4896 16.9012 66.7709 14.7262L63.1771 13.8897L61.9792 13.3878C60.3763 12.4958 58.5253 12.258 56.7709 12.7186H56.4063C51.6514 13.7805 47.1932 16.0145 43.3855 19.2434C43.1404 19.7846 42.9316 20.3437 42.7605 20.9165C42.0345 20.9566 41.3324 21.2071 40.7292 21.6415C40.0777 22.0797 39.5249 22.6671 39.1106 23.3613C38.6964 24.0556 38.4309 24.8395 38.3334 25.6567C38.9111 25.5029 39.5148 25.4985 40.0944 25.6439C40.674 25.7894 41.213 26.0805 41.6667 26.4933C42.1811 27.1755 42.5379 27.978 42.7084 28.8355C42.7354 29.039 42.7354 29.2455 42.7084 29.449C42.7084 29.8393 42.7084 30.174 42.7084 30.6759C42.7084 31.1778 42.7084 31.1778 42.7084 31.5124C42.7084 32.9066 42.7084 33.297 42.7084 33.5758C42.7084 33.8546 43.4375 34.0777 46.0938 32.7393L47.6042 31.9585C48.7061 31.4517 49.7122 30.7335 50.573 29.8393C51.7188 28.6125 54.2188 25.2106 53.2292 23.0357C53.073 22.1991 51.5625 21.6415 48.8542 21.6415C50.2505 20.9858 51.5631 20.1425 52.7605 19.1319C54.3071 17.8353 55.6595 16.2932 56.7709 14.5589C57.2917 15.6743 57.8125 16.0089 58.2292 16.1204C58.8638 16.2719 59.5217 16.2719 60.1563 16.1204C60.4989 16.0348 60.8553 16.0348 61.198 16.1204C62.1095 16.3022 63.032 16.414 63.9584 16.455H66.0938C66.0938 17.0127 66.0938 17.7377 67.2396 18.4627C67.1811 19.0932 67.1811 19.7283 67.2396 20.3588C67.5521 22.8683 69.375 23.426 69.0625 25.0991C68.3334 28.7798 70.3125 29.5605 71.6667 29.5605L73.5417 28.3336C72.5869 33.6911 73.4749 39.2376 76.0417 43.9487C77.4288 46.1471 79.1969 48.0402 81.25 49.5255C78.7842 51.4928 75.8311 52.6374 72.7605 52.8158C67.5521 52.8158 64.5834 49.637 60.0521 50.9754C58.342 51.5499 56.7992 52.5872 55.573 53.9869H52.8125V53.6523V53.3177C51.517 51.3061 50.7605 48.9532 50.625 46.514C50.5767 44.7561 50.3141 43.0126 49.8438 41.3276C49.5412 40.2028 49.122 39.1178 48.5938 38.093C48.5938 36.5873 48.5938 34.97 48.5938 33.3527C47.4813 34.1142 46.2705 34.6967 45 35.0815C45 35.0815 45 35.0815 44.6875 35.0815C44.5167 35.0343 44.3375 35.0343 44.1667 35.0815C42.7605 35.5835 42.5 35.0815 42.8125 33.5758C42.9128 32.7427 42.9128 31.8993 42.8125 31.0662C42.5494 29.6706 41.9977 28.3558 41.198 27.2183C40.8334 26.4375 39.0105 25.8241 38.5938 26.326C38.2214 26.8425 37.9861 27.4571 37.9127 28.105C37.8394 28.7528 37.9307 29.4098 38.1771 30.0067C38.1771 31.0662 39.0625 30.9547 39.7917 31.0105C40.5209 31.0662 41.4584 31.0105 41.4063 32.3489C41.3542 33.6873 41.4063 33.52 41.4063 34.0777C41.4063 34.6354 40.7292 35.8623 40.4167 36.5873C38.5565 39.2539 37.3561 42.3809 36.9271 45.6775C37.0291 47.6044 37.7462 49.4354 38.9584 50.8639C42.3264 55.8568 46.3628 60.2914 50.9375 64.0251C50.2805 80.8103 51.1878 97.6239 53.6459 114.216L48.4375 116.67L44.7396 117.785H43.073C43.073 117.785 42.7605 119.849 44.375 119.849C45.9896 119.849 45.1563 119.57 45.1563 119.57C46.122 119.729 47.0962 119.822 48.073 119.849C49.323 119.849 51.6667 119.347 53.0209 119.347C54.375 119.347 53.8542 119.849 55.3125 119.849C55.7561 119.854 56.1912 119.718 56.5625 119.459C56.8234 119.195 57.0282 118.874 57.163 118.518C57.2978 118.162 57.3595 117.779 57.3438 117.395C57.3438 116.949 57.3438 115.945 55.625 114.384C57.8185 110.777 59.2122 106.68 59.6997 102.408C60.1872 98.1356 59.7555 93.8004 58.4375 89.7342L59.0625 88.4515C61.1347 84.0447 62.3065 79.2159 62.5 74.2864C62.5768 71.7433 62.3846 69.1989 61.9271 66.702C64.3103 66.5456 66.6785 66.1913 69.0105 65.6424C75.1916 64.9999 80.9548 62.0133 85.2605 57.2214C86.61 55.6369 87.5757 53.722 88.073 51.6446C89.375 44.4506 83.0209 39.9334 75.4167 26.326Z" fill="#B47250"/>
</svg>
