<svg width="132" height="132" viewBox="0 0 132 132" fill="none" xmlns="http://www.w3.org/2000/svg">
<path d="M123.64 103.4C122.922 102.872 122.169 102.394 121.385 101.97C119.075 100.815 117.37 101.97 115.885 100.705C114.4 99.44 113.355 99 112.255 99.22C111.155 99.44 110.22 100.98 109.67 102.74C106.788 99.8194 103.051 97.8929 99 97.24C95.2619 96.6379 91.429 97.1745 88 98.78C85.2117 92.8726 80.3323 88.2088 74.305 85.69C72.8207 85.1701 71.293 84.7836 69.74 84.535C68.75 83.93 67.54 82.995 67.65 81.84C67.9795 79.5223 68.9297 77.3368 70.4 75.515C71.7174 74.0433 72.794 72.3727 73.59 70.565C74.2726 68.9629 74.6458 67.246 74.69 65.505C74.69 63.195 74.69 60.005 74.69 59.345C74.6602 59.1629 74.6602 58.9772 74.69 58.795C74.69 58.025 74.69 57.805 73.975 57.75C73.26 57.695 72.655 57.035 73.37 56.1C74.4339 54.6165 74.9402 52.8052 74.8 50.985C74.8 50.27 73.425 49.115 72.93 49.39C72.441 49.6529 72.0305 50.0409 71.7406 50.5144C71.4507 50.988 71.2918 51.53 71.28 52.085C71.28 52.965 71.72 53.185 72.325 53.46C72.93 53.735 73.645 54.285 73.205 55.11C72.655 56.3358 71.9726 57.4977 71.17 58.575H70.51C69.9599 59.2667 69.3724 59.9277 68.75 60.555L67.925 52.855C67.8602 52.0202 67.6557 51.2022 67.32 50.435C67.595 44.935 66.55 38.83 66.55 35.695C66.55 35.09 67.705 33.99 67.705 32.615V29.37C67.6256 29.37 67.5469 29.3857 67.4735 29.4161C67.4001 29.4465 67.3334 29.4911 67.2772 29.5472C67.221 29.6034 67.1765 29.6701 67.1461 29.7435C67.1157 29.8169 67.1 29.8956 67.1 29.975V31.02V31.68C67.1 31.68 67.1 30.855 67.1 30.47V27.83C67.122 27.7594 67.1197 27.6834 67.0934 27.6143C67.067 27.5451 67.0182 27.4868 66.9548 27.4488C66.8913 27.4107 66.8169 27.3951 66.7435 27.4044C66.6701 27.4137 66.602 27.4474 66.55 27.5C66.4986 27.4497 66.4295 27.4214 66.3575 27.4214C66.2855 27.4214 66.2164 27.4497 66.165 27.5C66.165 27.4125 66.1302 27.3286 66.0684 27.2667C66.0065 27.2048 65.9225 27.17 65.835 27.17C65.835 27.17 65.45 27.17 65.45 27.5C65.3895 27.4459 65.3112 27.416 65.23 27.416C65.1488 27.416 65.0705 27.4459 65.01 27.5C65.01 27.5 65.01 27.5 64.735 27.5V30.525V28.325C64.7217 28.2327 64.6753 28.1484 64.6045 28.0877C64.5337 28.027 64.4433 27.9941 64.35 27.995C64.321 28.0452 64.3058 28.1021 64.3058 28.16C64.3058 28.218 64.321 28.2749 64.35 28.325C64.35 28.325 64.35 30.855 64.35 31.625C64.3271 32.7545 64.5921 33.8713 65.12 34.87C64.5668 40.1907 64.5668 45.5544 65.12 50.875C65.0646 51.5522 65.0646 52.2328 65.12 52.91L65.78 63.91C64.4963 64.4971 63.3094 65.276 62.26 66.22C61.325 67.265 60.445 68.97 60.61 78.1C60.61 82.335 60.995 85.745 61.215 88C53.3189 89.357 45.5128 91.1938 37.84 93.5C32.34 95.205 27.115 97.13 22.385 99L5.5 101.97C5.5 101.97 5.995 104.225 8.635 102.85C9.41361 103.23 10.2232 103.543 11.055 103.785C13.585 104.445 15.015 103.015 16.555 103.785C18.095 104.555 19.47 104.995 20.405 104.5C20.8764 104.182 21.2663 103.757 21.5433 103.26C21.8204 102.763 21.9768 102.208 22 101.64C25.7439 103.165 29.7993 103.769 33.825 103.4C37.8092 103.019 41.6597 101.76 45.1 99.715L46.2 98.835C51.3851 99.9806 56.7384 100.148 61.985 99.33C63.8511 99.0662 65.6912 98.643 67.485 98.065C68.8622 99.0571 70.315 99.9398 71.83 100.705C76.6301 103.057 81.8857 104.334 87.23 104.445H88.44L110.44 104.83H126.5C126.5 104.83 126.5 102.575 123.64 103.4Z" fill="#B47250"/>
<path d="M75.515 50.1601C75.6708 50.9036 75.6708 51.6715 75.515 52.4151V52.9101C75.515 53.2401 75.515 53.5151 75.185 53.9551C74.855 54.3951 75.185 54.3401 75.185 54.6151C74.855 55.8251 74.525 55.99 74.635 56.265C74.745 56.54 75.02 56.9251 77.77 56.8701C79.3701 56.95 80.9716 56.7452 82.5 56.265C83.875 55.715 87.175 53.955 87.065 51.92C87.065 50.71 84.755 49.4451 80.245 46.9701C79.2795 46.2951 78.1227 45.9481 76.945 45.98C76.2393 46.0831 75.5659 46.3444 74.9754 46.7444C74.3849 47.1444 73.8925 47.6728 73.535 48.2901C73.9791 48.4429 74.3855 48.6888 74.7269 49.0113C75.0684 49.3337 75.3371 49.7254 75.515 50.1601Z" fill="#B47250"/>
</svg>
