<svg width="124" height="126" viewBox="0 0 124 126" fill="none" xmlns="http://www.w3.org/2000/svg">
<path d="M50.7745 34.904C52.7953 36.4822 55.0913 37.6542 57.5405 38.3578C61.6412 39.98 62.4101 39.4567 62.6663 39.1427C62.9226 38.8287 62.6663 38.2531 62.6663 36.3169C62.6663 35.7936 62.6663 35.6366 62.6663 35.1133C62.6663 34.59 62.6663 33.9621 62.6663 33.3341V32.4968C62.832 31.2696 63.2513 30.0923 63.8965 29.0431C64.4757 28.4647 65.1673 28.0168 65.9266 27.7284C66.686 27.44 67.4961 27.3174 68.3047 27.3685C68.0654 26.2532 67.5874 25.2056 66.9051 24.301C66.2227 23.3963 65.3529 22.6568 64.3579 22.1355C62.5798 21.5175 60.6513 21.5175 58.8732 22.1355C50.7232 23.4961 46.6738 24.2287 45.9562 26.0602C44.8798 28.8861 48.9292 33.2818 50.7745 34.904Z" fill="#B47250"/>
<path d="M103.827 93.5135C100.625 88.3271 95.9868 84.2288 90.4995 81.7393C85.3304 79.297 79.7376 77.9274 74.0457 77.7099C74.8324 74.255 75.4483 70.762 75.891 67.2439C77.4287 54.1614 75.1221 52.0683 74.3532 51.545L71.4828 49.8181L67.8947 47.7249C66.0132 44.6724 64.9361 41.1754 64.768 37.5729C64.768 36.0553 65.8956 35.7937 67.0233 35.5844C68.151 35.375 69.0224 35.5844 69.2787 33.9621C69.5767 33.0717 69.634 32.1156 69.4446 31.1947C69.2551 30.2737 68.826 29.422 68.2023 28.7291C67.5359 28.1012 64.973 29.1478 64.5117 30.2467C63.3616 32.9784 63.1981 36.038 64.0503 38.8811C64.6654 40.6603 64.0503 41.7069 62.2051 41.1313C61.1286 40.8173 60.6673 41.1313 60.616 42.3349C60.5426 43.1092 60.4228 43.8781 60.2572 44.6374L56.8742 42.9629L49.4418 34.2238C48.6614 33.2023 47.7063 32.3335 46.6226 31.6596C46.0987 31.5466 45.5575 31.5466 45.0336 31.6596C39.1144 32.0778 33.3493 33.7721 28.1184 36.6309H27.7596C25.6732 37.76 24.0541 39.6174 23.1976 41.8639L22.3775 43.3815L19.4558 47.0969C18.7417 53.2784 18.8797 59.5316 19.8658 65.674C20.7885 74.8317 20.9935 88.5422 26.5294 100.107C26.5294 100.107 27.6571 103.247 33.7568 103.508C41.971 103.443 50.0589 101.437 57.3868 97.6475C60.5251 96.1979 63.4426 94.2945 66.0494 91.9959C67.2733 92.6453 68.5408 93.2049 69.8425 93.6705C72.8374 94.6488 75.9791 95.0741 79.1202 94.9264C77.3626 95.2139 75.6428 95.7055 73.9944 96.3916C71.7635 97.371 69.7033 98.7142 67.8947 100.369C67.8947 98.4848 67.8947 96.4963 66.562 95.973C65.2293 95.4497 64.0503 95.973 61.8462 98.0139C59.6421 100.055 58.0019 98.0139 54.9777 99.6884C53.9608 100.244 52.9844 100.874 52.0559 101.572C48.3141 100.473 48.3141 103.561 48.3141 103.561C53.6962 103.561 86.5527 105.235 97.7269 102.619C99.5722 102.2 103.929 101.154 104.852 98.2232C105.008 97.4084 104.998 96.5694 104.822 95.7589C104.645 94.9483 104.307 94.1839 103.827 93.5135ZM64.768 72.1106C64.768 73.0002 58.0019 72.1106 53.4399 74.4131C47.8528 77.3436 49.3393 83.4138 43.6496 88.3328C40.4779 90.9035 36.5748 92.3542 32.5266 92.4669C33.4679 88.8992 33.6081 85.1606 32.9367 81.53C31.6029 75.1549 27.9362 69.5399 22.685 65.831C26.0168 64.3658 26.7344 63.0575 26.7857 62.1679C26.8369 61.2783 26.7857 59.9701 24.4791 58.2955C22.1724 56.621 24.1715 54.8417 22.5825 52.1729C22.1541 51.5037 21.6921 50.8574 21.1985 50.2367C21.6599 48.6668 21.1985 47.8295 20.7372 47.4109L21.3011 47.0969L23.1464 45.5794C24.0461 44.7533 24.8855 43.8614 25.658 42.9105C26.1706 42.3349 26.2731 42.4919 26.7857 42.0733C27.7657 41.2615 28.5394 40.2204 29.041 39.0381C31.4502 39.0381 34.1669 38.7241 36.6785 38.4102C39.1902 38.0962 42.3682 37.5729 44.9311 37.1019L56.8742 51.2833C57.6431 54.3708 57.8994 55.3127 57.9506 55.4174C57.9341 55.5739 57.9341 55.7318 57.9506 55.8883C57.9506 56.2023 58.2069 56.5686 58.3607 56.8826C59.2281 58.8615 60.3298 60.7244 61.6412 62.4296C63.6895 65.2288 64.8196 68.6169 64.8705 72.1106H64.768Z" fill="#B47250"/>
</svg>
