<svg width="131" height="131" viewBox="0 0 131 131" fill="none" xmlns="http://www.w3.org/2000/svg">
<path d="M98.5775 66.4279C95.1388 57.9674 93.1192 56.057 92.3005 50.8716C91.8805 47.2854 90.9045 43.7865 89.4075 40.5008C89.1136 39.8473 88.7857 39.2096 88.425 38.5904C86.8421 35.6429 85.423 33.8962 83.5125 30.2937C83.5125 30.2937 80.4013 31.7674 83.2396 34.7695C83.027 35.6653 82.8991 36.579 82.8575 37.4987C82.53 41.0466 85.0409 42.4658 84.0584 44.7037C83.0759 46.9416 82.803 48.5791 83.7309 50.162C84.3911 51.0078 85.3463 51.5732 86.4055 51.7449C87.5124 51.8581 88.6281 51.8581 89.735 51.7449C89.735 51.7449 89.2984 52.2362 87.0059 53.1641C85.6959 53.9283 84.8225 55.1291 84.0584 55.2929C75.7617 56.2754 73.1417 56.3299 70.358 56.8212C67.2994 57.2843 64.2986 58.0711 61.4063 59.1683C57.3372 58.6903 53.3414 57.7189 49.5071 56.2754C47.467 55.2426 45.3273 54.4196 43.1209 53.8191C41.92 53.8191 38.8634 53.1641 38.7542 52.1816C38.71 51.8556 38.71 51.5251 38.7542 51.1991C38.7542 49.9983 38.3721 49.7799 37.335 49.9437C35.3155 50.2712 35.0425 49.2887 35.7521 47.7058C36.8388 45.1422 36.9553 42.2706 36.0796 39.6275C35.643 38.2083 33.2959 37.1712 32.75 37.717C32.1179 38.2924 31.6488 39.0243 31.3901 39.8389C31.1313 40.6535 31.0921 41.522 31.2763 42.3566C31.2763 43.7212 32.3134 43.7758 33.2959 44.0487C33.6743 44.104 34.0379 44.2338 34.3658 44.4305C34.6938 44.6273 34.9794 44.8871 35.2063 45.1949C35.2802 45.4814 35.2802 45.7819 35.2063 46.0683C33.9887 52.171 31.1404 57.8298 26.9642 62.4433C23.3071 67.9016 39.5184 91.3724 45.9592 95.1933L47.0509 95.7937C49.5094 96.9922 52.066 97.9783 54.6925 98.7412C57.2034 99.3962 59.223 99.8329 61.2425 100.16C64.031 100.5 66.8397 100.646 69.6484 100.597C72.1046 100.597 99.6692 100.27 104.2 87.9883C105.728 83.9491 103.326 78.1087 98.5775 66.4279ZM72.7596 82.2024C70.5221 80.4347 68.0632 78.9667 65.4455 77.8358C63.3561 76.8819 61.083 76.3975 58.7863 76.4166C56.9329 76.6416 55.1447 77.2416 53.5306 78.18C51.9166 79.1184 50.5105 80.3756 49.398 81.8749H49.125C48.9051 81.6559 48.7042 81.4185 48.5246 81.1654C46.2394 78.17 44.9081 74.5565 44.7038 70.7945C44.6178 68.7361 44.3438 66.6898 43.885 64.6812C46.936 65.1774 50.019 65.451 53.1096 65.4999C56.1638 65.6742 59.2254 65.6742 62.2796 65.4999C70.2826 64.6386 78.096 62.501 85.423 59.1683C86.2596 59.4789 87.1525 59.6091 88.0429 59.5504H88.4796C87.2826 61.9122 86.6048 64.5029 86.4918 67.1484C86.3788 69.7939 86.8333 72.433 87.8246 74.8883C88.8542 77.1494 90.3848 79.1466 92.3005 80.7287C81.1655 85.2045 75.7071 84.1674 72.7596 82.2024Z" fill="#B47250"/>
<path d="M37.335 41.8655C37.3492 42.12 37.3492 42.3751 37.335 42.6296C37.335 43.1755 37.335 43.6121 37.335 44.3217C37.3063 44.685 37.3063 45.0501 37.335 45.4134C37.335 47.2146 36.8437 47.6513 37.335 48.0334C37.8262 48.4155 38.1537 48.9067 42.1929 47.7605C44.5746 47.3134 46.8517 46.4248 48.9066 45.1405C50.817 43.8305 55.02 40.1188 54.365 37.0621C53.8737 35.2609 50.1075 34.2784 42.5204 32.2588C40.7922 31.5273 38.8653 31.4117 37.062 31.9313C36.0618 32.3454 35.1659 32.9764 34.4391 33.7787C33.7123 34.581 33.1727 35.5347 32.8591 36.5709C33.6333 36.5931 34.3938 36.7798 35.0902 37.1186C35.7866 37.4574 36.403 37.9405 36.8983 38.5359C37.2872 39.6001 37.4363 40.737 37.335 41.8655Z" fill="#B47250"/>
</svg>
