<svg width="134" height="134" viewBox="0 0 134 134" fill="none" xmlns="http://www.w3.org/2000/svg">
<path d="M35.6217 51.5342C36.3166 52.2285 36.8503 53.0672 37.185 53.9908C37.208 54.1949 37.208 54.4009 37.185 54.605C37.336 55.0409 37.4481 55.4893 37.52 55.945V56.8383C37.52 57.285 37.52 57.62 37.52 57.8992C37.52 58.1783 37.52 58.8483 37.7992 59.0158H39.0833C39.4742 59.0158 40.3117 59.0158 42.21 57.5642L43.6058 56.615H44.6667L45.225 56.1683C45.548 55.9381 45.8472 55.6762 46.1183 55.3867C46.5139 55.036 46.8697 54.6427 47.1792 54.2142C48.3517 52.6508 50.6967 48.6308 49.1892 46.3417C48.6308 45.5042 46.9558 45.2808 43.9408 45.3925H43.3267C43.0476 40.372 42.4508 35.3742 41.54 30.4292C41.54 29.7033 42.88 28.3633 42.88 26.7442V22.6125C42.6875 22.6125 42.5029 22.689 42.3668 22.8251C42.2306 22.9612 42.1542 23.1458 42.1542 23.3383V24.6225V25.4042C42.1542 25.4042 42.1542 24.3992 42.1542 23.9525V20.7142C42.1551 20.6195 42.1217 20.5277 42.0601 20.4558C41.9985 20.3839 41.9129 20.3369 41.8192 20.3233C41.7098 20.3225 41.6039 20.3618 41.5215 20.4338C41.4392 20.5059 41.3862 20.6056 41.3725 20.7142V23.785V20.2117C41.3725 20.0932 41.3254 19.9796 41.2417 19.8958C41.1579 19.8121 41.0443 19.765 40.9258 19.765C40.8074 19.765 40.6938 19.8121 40.61 19.8958C40.5262 19.9796 40.4792 20.0932 40.4792 20.2117V23.8408V20.6583C40.5048 20.5667 40.5122 20.4709 40.5008 20.3764C40.4895 20.2819 40.4596 20.1906 40.4129 20.1076C40.3663 20.0246 40.3037 19.9517 40.2289 19.8929C40.154 19.8341 40.0683 19.7907 39.9767 19.765C39.885 19.7393 39.7892 19.732 39.6947 19.7433C39.6002 19.7547 39.5089 19.7846 39.4259 19.8312C39.343 19.8779 39.27 19.9404 39.2112 20.0153C39.1525 20.0902 39.109 20.1759 39.0833 20.2675C39.0537 20.3284 39.0383 20.3952 39.0383 20.4629C39.0383 20.5306 39.0537 20.5975 39.0833 20.6583V24.2317V21.6075C39.0697 21.499 39.0166 21.3992 38.9343 21.3272C38.852 21.2551 38.7461 21.2158 38.6367 21.2167C38.5508 21.2456 38.4743 21.2971 38.4153 21.3659C38.3563 21.4347 38.3171 21.5182 38.3017 21.6075C38.3017 21.6075 38.3017 24.6225 38.3017 25.6275C38.2912 26.9708 38.6176 28.2953 39.2508 29.48C38.9158 33.835 38.7483 37.52 38.7483 40.6467C38.7483 42.545 38.7483 44.1083 38.7483 45.3367C38.2292 45.2724 37.7041 45.2724 37.185 45.3367C36.4323 45.4892 35.7252 45.8141 35.1192 46.2858C34.4357 46.8822 33.8914 47.6213 33.5248 48.4509C33.1582 49.2806 32.9782 50.1806 32.9975 51.0875C33.8972 50.9698 34.8116 51.1254 35.6217 51.5342Z" fill="#B47250"/>
<path d="M51.4225 103.403C56.615 106.698 61.975 109.657 65.4366 111.499C67.906 112.832 70.6706 113.523 73.4766 113.509H119.148C119.148 113.509 119.148 110.773 115.687 111.723C114.847 111.112 113.97 110.552 113.062 110.048C110.271 108.652 108.205 110.048 106.697 108.54C105.19 107.033 103.571 106.363 102.342 106.698C101.114 107.033 100.388 108.763 99.9975 110.159C96.0792 107.114 91.4106 105.185 86.4858 104.576C81.7984 103.913 77.0196 104.431 72.5833 106.083C71.7518 102.051 70.0191 98.2589 67.5149 94.9908C65.0107 91.7227 61.7998 89.0634 58.1225 87.2117C55.81 86.2799 53.3551 85.7512 50.8641 85.6483L46.5091 85.9833C45.5807 84.0673 45.0851 81.9706 45.0575 79.8417V79.2833C45.1093 78.3619 45.24 77.4466 45.4483 76.5475C45.8042 74.9133 46.0097 73.25 46.0625 71.5783C46.0625 70.8525 46.0625 70.1825 46.0625 69.5125C45.9675 67.4164 45.4946 65.3547 44.6666 63.4267C44.6666 62.0308 44.6666 60.635 44.6666 59.2392V57.5083C44.0853 58.1578 43.3838 58.6887 42.6008 59.0717L39.9766 60.1883C39.7053 60.2819 39.4104 60.2819 39.1391 60.1883H38.5808C38.3968 59.9659 38.266 59.7045 38.1983 59.4239C38.1306 59.1433 38.1277 58.851 38.19 58.5692C38.3761 56.2415 37.7225 53.924 36.3475 52.0367C35.7891 51.3108 33.6116 50.92 33.165 51.5342C32.8229 52.1589 32.6436 52.8598 32.6436 53.5721C32.6436 54.2844 32.8229 54.9852 33.165 55.61C33.6675 56.6708 34.3933 56.4475 35.2308 56.4475C36.0683 56.4475 37.2408 56.4475 37.3525 57.5642C37.781 60.0933 37.6476 62.6858 36.9616 65.1575C35.2308 67.6142 33.165 68.34 32.3275 71.1317C31.49 73.9233 32.9975 76.715 35.9008 83.415C37.5758 87.2117 39.1391 90.2825 40.2 92.3483C31.859 95.1832 24.0057 99.2888 16.9175 104.52C16.4077 105.059 16.0483 105.722 15.8749 106.444C15.7015 107.165 15.7202 107.919 15.9292 108.631C16.1383 109.343 16.5303 109.987 17.0661 110.5C17.602 111.014 18.263 111.377 18.9833 111.555C23.0643 113.157 27.4522 113.824 31.825 113.509H67C67 113.509 67 110.773 63.5941 111.723C62.7451 111.096 61.8491 110.536 60.9141 110.048C58.1225 108.596 56.0566 110.048 54.5491 108.54C53.0416 107.033 51.4225 106.418 50.1941 106.698C48.9658 106.977 48.0166 109.043 47.57 110.885C45.5967 109.416 43.461 108.18 41.205 107.2C39.5397 106.507 37.8221 105.947 36.0683 105.525L43.4941 106.083C46.3241 105.89 49.0556 104.967 51.4225 103.403Z" fill="#B47250"/>
</svg>
