<svg width="70" height="70" viewBox="0 0 70 70" fill="none" xmlns="http://www.w3.org/2000/svg">
<path d="M59.6749 23.7708C59.2666 23.5083 59.2666 23.2458 58.8874 23.1C58.5767 22.9863 58.2357 22.9863 57.9249 23.1C55.1706 23.5834 52.3604 23.662 49.5833 23.3333C47.7166 23.1292 48.3583 22.925 45.2666 22.4C43.3577 21.9428 41.3941 21.7563 39.4333 21.8458C37.5083 22.0792 37.0708 22.6917 36.3124 22.225C35.5541 21.7583 35.3499 20.7667 34.9416 18.6958C34.897 18.5734 34.897 18.4391 34.9416 18.3167C34.9416 18.025 35.4374 17.9375 35.7291 17.85C36.0208 17.7625 36.5166 17.85 36.5749 17.15C36.6516 16.8036 36.6353 16.4431 36.5277 16.1051C36.4202 15.767 36.2251 15.4634 35.9624 15.225C35.6999 14.9917 34.7083 15.5167 34.5916 15.9542C34.1834 17.0249 34.1834 18.2084 34.5916 19.2792C34.8833 19.95 34.7958 20.3583 33.9499 20.2125C33.1041 20.0667 33.3374 20.2125 33.3374 20.7375C33.3808 21.2129 33.3808 21.6913 33.3374 22.1667H32.9291C31.4452 22.0208 29.9505 22.0208 28.4666 22.1667C27.8376 22.2293 27.2138 22.3365 26.5999 22.4875C24.8499 22.925 23.6541 23.3333 23.3333 23.3333C19.2208 24.5875 13.7374 22.9542 12.2499 23.8C11.9062 24.0412 11.5024 24.1825 11.0833 24.2083C10.5291 24.2083 10.1791 24.2083 10.1499 24.2083C10.1208 24.2083 10.7333 24.7917 11.4624 24.8792C11.7022 24.9362 11.9519 24.9362 12.1916 24.8792C12.4928 24.7759 12.7853 24.6492 13.0666 24.5C13.3809 24.4085 13.7148 24.4085 14.0291 24.5C15.9485 25.0198 17.8961 25.4289 19.8624 25.725C20.3577 25.7598 20.8547 25.7598 21.3499 25.725C23.1255 25.4582 24.9234 25.3702 26.7166 25.4625C27.7792 25.4746 28.8068 25.8445 29.6333 26.5125C30.0261 26.9192 30.3423 27.3935 30.5666 27.9125C31.1032 28.9639 31.4113 30.1169 31.4708 31.2958C31.5328 32.5715 31.2825 33.843 30.7416 35C29.7791 37.1292 27.8249 37.45 25.2291 39.0542C22.1299 41.3133 19.4289 44.0734 17.2374 47.2208C14.3208 50.6917 14.3208 51.4792 12.6583 52.2958C11.3452 52.8195 10.211 53.7106 9.39161 54.8625C9.24578 55.1542 8.86661 55.8833 9.15828 56.4083C9.28765 56.6377 9.49444 56.8134 9.74161 56.9042C10.6458 57.2542 11.6666 57.3708 12.0166 56.0292C12.3666 54.6875 13.4166 54.0167 15.4583 52.5C15.9047 52.1417 16.3722 51.8106 16.8583 51.5083C18.4943 50.4947 20.1999 49.598 21.9624 48.825C25.2874 47.2208 25.0833 46.375 28.2333 44.8292C29.6404 44.1327 31.1165 43.5852 32.6374 43.1958H34.8541L36.0499 43.5167C37.3937 43.8551 38.7576 44.1084 40.1333 44.275C41.9445 44.3994 43.7633 44.1918 45.4999 43.6625C44.8581 45.3232 44.6183 47.1122 44.7999 48.8833C45.0308 50.8687 45.797 52.754 47.0166 54.3375C45.8791 55.125 45.7041 55.65 45.6749 55.9417C45.6621 56.1655 45.7001 56.3893 45.7859 56.5964C45.8718 56.8034 46.0034 56.9884 46.1708 57.1375C46.3771 57.3018 46.6365 57.3848 46.8999 57.3708C47.7749 57.3708 47.4541 57.0792 48.2708 57.0792C49.0874 57.0792 50.4874 57.3708 51.1874 57.3708C51.7731 57.3557 52.3574 57.307 52.9374 57.225C52.9374 57.225 52.9374 57.3708 53.4041 57.3708C53.8708 57.3708 54.1624 56.2042 54.1624 56.2042H53.1124L50.9541 55.4167L48.2999 54.075C48.9701 50.869 49.4474 47.6257 49.7291 44.3625C49.9146 43.1475 49.6888 41.9053 49.0874 40.8333C48.6499 40.1917 47.9499 39.5792 45.4999 38.7333C41.0666 37.2167 39.3166 37.8292 38.4708 36.4583C38.2181 35.8531 38.088 35.2038 38.088 34.5479C38.088 33.8921 38.2181 33.2427 38.4708 32.6375C39.0541 30.7125 40.0749 29.925 40.1041 28.0875C40.1584 27.4712 40.1091 26.8501 39.9583 26.25C40.3958 26.25 41.0666 26.25 41.8541 26.25C43.3819 26.1391 44.9014 25.9345 46.4041 25.6375C47.272 25.5002 48.1506 25.4416 49.0291 25.4625C49.4758 25.4931 49.9241 25.4931 50.3708 25.4625C52.4999 25.1417 52.8791 25.4625 54.4833 24.9667C56.0874 24.4708 56.8166 24.3833 56.8166 24.3833C57.6333 24.1208 57.9249 23.975 58.3916 24.0625C58.8583 24.15 59.2083 24.5 59.9083 24.5292C60.2792 24.5827 60.6562 24.4884 60.9583 24.2667C60.9583 24.2667 60.2874 24.2083 59.6749 23.7708Z" fill="#B47250"/>
<path d="M29.3417 18.3458C30.2389 18.8827 31.2278 19.2486 32.2584 19.425C33.9209 19.8916 34.2126 19.6583 34.2709 19.425C34.3292 19.1916 34.2709 19.075 34.2709 18.3166C34.2854 18.1614 34.2854 18.0052 34.2709 17.85C34.258 17.6265 34.258 17.4025 34.2709 17.1791V16.975C34.2973 16.4868 34.4265 16.0097 34.6501 15.575C34.8478 15.3245 35.1007 15.1231 35.3891 14.9865C35.6774 14.8499 35.9935 14.7818 36.3125 14.7875C36.1897 14.353 35.9677 13.9531 35.6641 13.619C35.3604 13.285 34.9833 13.026 34.5626 12.8625C33.8535 12.6202 33.0841 12.6202 32.3751 12.8625C29.2251 13.7083 27.6501 14.1166 27.4459 14.8458C26.8042 16.2458 28.5542 17.7916 29.3417 18.3458Z" fill="#B47250"/>
</svg>
