<?xml version="1.0" encoding="UTF-8"?>
<svg id="Capa_2" xmlns="http://www.w3.org/2000/svg" viewBox="0 0 897.9 241.81">
  <defs>
    <style>
      .cls-1 {
        letter-spacing: 0em;
      }

      .cls-2 {
        letter-spacing: 0em;
      }

      .cls-3 {
        letter-spacing: -.01em;
      }

      .cls-4, .cls-5 {
        fill: #fdfffc;
      }

      .cls-6 {
        letter-spacing: 0em;
      }

      .cls-7 {
        letter-spacing: -.02em;
      }

      .cls-8 {
        letter-spacing: -.01em;
      }

      .cls-9 {
        letter-spacing: .03em;
      }

      .cls-10 {
        letter-spacing: 0em;
      }

      .cls-11 {
        letter-spacing: 0em;
      }

      .cls-12 {
        letter-spacing: 0em;
      }

      .cls-13 {
        letter-spacing: -.02em;
      }

      .cls-14 {
        letter-spacing: -.01em;
      }

      .cls-15 {
        letter-spacing: 0em;
      }

      .cls-16 {
        letter-spacing: -.02em;
      }

      .cls-17 {
        letter-spacing: -.01em;
      }

      .cls-18 {
        letter-spacing: 0em;
      }

      .cls-19 {
        letter-spacing: -.02em;
      }

      .cls-20 {
        letter-spacing: 0em;
      }

      .cls-21 {
        letter-spacing: -.02em;
      }

      .cls-22 {
        letter-spacing: -.08em;
      }

      .cls-23 {
        letter-spacing: -.01em;
      }

      .cls-5 {
        font-family: AcuminConcept-Medium, 'Acumin Variable Concept';
        font-size: 25.39px;
        font-variation-settings: 'wght' 500, 'wdth' 100, 'slnt' 0;
        font-weight: 500;
      }

      .cls-24 {
        letter-spacing: 0em;
      }

      .cls-25 {
        letter-spacing: 0em;
      }

      .cls-26 {
        letter-spacing: .02em;
      }

      .cls-27 {
        letter-spacing: 0em;
      }
    </style>
  </defs>
  <g id="Capa_1-2" data-name="Capa_1">
    <g>
      <g>
        <text class="cls-5" transform="translate(290.29 182.95)"><tspan class="cls-24" x="0" y="0">C</tspan><tspan class="cls-16" x="17.31" y="0">E</tspan><tspan class="cls-6" x="32.09" y="0">N</tspan><tspan class="cls-15" x="51.01" y="0">T</tspan><tspan class="cls-20" x="65.29" y="0">R</tspan><tspan x="81.47" y="0">O </tspan><tspan class="cls-3" x="106.98" y="0">D</tspan><tspan class="cls-18" x="125.1" y="0">E </tspan><tspan class="cls-22" x="146.73" y="0">Y</tspan><tspan class="cls-21" x="159.92" y="0">.</tspan><tspan class="cls-13" x="164.84" y="0">O</tspan><tspan class="cls-19" x="183.5" y="0">.</tspan><tspan class="cls-26" x="188.5" y="0">G</tspan><tspan class="cls-9" x="207.55" y="0">.</tspan><tspan x="213.62" y="0">A Y </tspan><tspan class="cls-2" x="258.38" y="0">C</tspan><tspan class="cls-25" x="275.68" y="0">O</tspan><tspan class="cls-23" x="294.61" y="0">N</tspan><tspan class="cls-10" x="313.25" y="0">S</tspan><tspan class="cls-14" x="328.55" y="0">C</tspan><tspan class="cls-7" x="345.84" y="0">I</tspan><tspan class="cls-16" x="352.64" y="0">E</tspan><tspan class="cls-27" x="367.42" y="0">N</tspan><tspan class="cls-14" x="386.15" y="0">C</tspan><tspan class="cls-17" x="403.44" y="0">I</tspan><tspan x="410.3" y="0">A </tspan><tspan class="cls-11" x="433.56" y="0">C</tspan><tspan class="cls-25" x="450.86" y="0">O</tspan><tspan class="cls-1" x="469.79" y="0">RP</tspan><tspan class="cls-25" x="501.9" y="0">O</tspan><tspan class="cls-12" x="520.83" y="0">R</tspan><tspan class="cls-8" x="537.3" y="0">A</tspan><tspan x="553.9" y="0">L</tspan></text>
        <path class="cls-4" d="M365.44,77.52c.5-.57,1.31-1.08,2.45-1.55.93-.4,1.5-.75,1.7-1.05.2-.3.3-.62.3-.95,0-1.06-.53-1.6-1.6-1.6h-17.09c-1.6,0-2.63.73-3.1,2.2l-17.99,48.36-17.99-48.36c-.47-1.46-1.5-2.2-3.1-2.2h-18.49c-1,0-1.5.53-1.5,1.6,0,.33.1.65.3.95.2.3.73.65,1.6,1.05,1.07.47,2.18.98,3.35,1.55,1.16.57,1.75,1.38,1.75,2.45v57.76c0,1.07-.58,1.88-1.75,2.45-1.17.57-2.28,1.08-3.35,1.55-.87.4-1.4.75-1.6,1.05-.2.3-.3.62-.3.95,0,1.07.5,1.6,1.5,1.6h16.19c1,0,1.5-.53,1.5-1.6,0-.33-.1-.65-.3-.95-.2-.3-.73-.65-1.6-1.05-1.07-.47-2.18-.98-3.35-1.55-1.17-.57-1.75-1.38-1.75-2.45v-47.47l19.69,52.86c.47,1.47,1.5,2.2,3.1,2.2h1.1c1.6,0,2.63-.73,3.1-2.2l20.78-55.96v50.56c0,1.07-.25,1.88-.75,2.45-.5.57-1.32,1.08-2.45,1.55-.93.4-1.5.75-1.7,1.05-.2.3-.3.62-.3.95,0,1.07.53,1.6,1.6,1.6h22.88c1.07,0,1.6-.53,1.6-1.6,0-.33-.1-.65-.3-.95-.2-.3-.77-.65-1.7-1.05-1.13-.47-1.95-.98-2.45-1.55-.5-.57-.75-1.38-.75-2.45v-57.76c0-1.06.25-1.88.75-2.45Z"/>
        <path class="cls-4" d="M413.11,97.06c-1.77-1.6-3.85-2.81-6.25-3.65-2.4-.83-5-1.25-7.79-1.25-3.66,0-7.1.68-10.29,2.05-3.2,1.37-6,3.27-8.39,5.7-2.4,2.43-4.3,5.3-5.7,8.59-1.4,3.3-2.1,6.88-2.1,10.74s.7,7.44,2.1,10.74c1.4,3.3,3.26,6.16,5.6,8.59,2.33,2.43,5.06,4.33,8.19,5.7,3.13,1.36,6.43,2.05,9.89,2.05,2.73,0,5.26-.42,7.59-1.25,2.33-.83,4.36-2,6.1-3.5,1.73-1.5,3.1-3.26,4.1-5.3,1-2.03,1.56-4.25,1.7-6.65.07-1.4-.05-2.4-.35-3s-.78-1.03-1.45-1.3c-.2-.13-.5-.2-.9-.2-.73,0-1.13.7-1.2,2.1-.07,1.6-.47,3.05-1.2,4.35-.73,1.3-1.67,2.43-2.8,3.4-1.13.97-2.45,1.72-3.95,2.25-1.5.53-3.05.8-4.65.8-3.86,0-6.86-1.43-8.99-4.3-2.13-2.86-3.46-6.86-4-11.99,2.53-1.46,5.75-2.53,9.64-3.2,3.9-.67,8.21-1.07,12.94-1.2,1.33,0,2.48-.07,3.45-.2.96-.13,1.76-.42,2.4-.85.63-.43,1.1-1.08,1.4-1.95.3-.87.45-2.06.45-3.6,0-2.93-.48-5.55-1.45-7.84-.97-2.3-2.33-4.25-4.1-5.85ZM403.62,111.65c-.3.27-1.12.5-2.45.7-2.53.4-4.9.9-7.1,1.5-2.2.6-4.16,1.4-5.9,2.4,0-3.53.28-6.5.85-8.89.57-2.4,1.28-4.35,2.15-5.85.87-1.5,1.83-2.56,2.9-3.2,1.07-.63,2.1-.95,3.1-.95,1.73,0,3.31.95,4.75,2.85,1.43,1.9,2.15,5.01,2.15,9.34,0,1.13-.15,1.83-.45,2.1Z"/>
        <path class="cls-4" d="M507.39,141.72c-1.13-.47-1.97-.98-2.5-1.55-.53-.57-.8-1.38-.8-2.45v-26.08c0-3.8-.62-6.94-1.85-9.44-1.23-2.5-2.88-4.5-4.95-6-2.07-1.5-4.46-2.55-7.19-3.15-2.73-.6-5.6-.9-8.59-.9-4,0-7.51.53-10.54,1.6-3.03,1.07-5.48,2.83-7.34,5.3-1.8,2.33-2.43,4.4-1.9,6.2.53,1.8,2.06,3.27,4.6,4.4,1.33.6,2.46.9,3.4.9,2.26,0,3.93-1.86,5-5.6.73-2.26,1.7-4.1,2.9-5.5,1.2-1.4,2.96-2.1,5.3-2.1.53,0,1.16.08,1.9.25.73.17,1.45.63,2.15,1.4.7.77,1.3,1.9,1.8,3.4.5,1.5.75,3.55.75,6.15v2.1c-1.87,1.33-3.93,2.42-6.2,3.25-2.27.83-4.53,1.6-6.8,2.3-2.27.7-4.45,1.42-6.55,2.15-2.1.73-3.96,1.68-5.6,2.85-1.63,1.17-2.93,2.63-3.9,4.4-.97,1.77-1.45,4.05-1.45,6.85,0,4.4,1.21,7.81,3.65,10.24,2.43,2.43,5.81,3.65,10.14,3.65,3.73,0,7-.85,9.79-2.55,2.8-1.7,5.1-3.95,6.89-6.75v2c0,4.2,2.1,6.3,6.3,6.3h11.99c1,0,1.5-.53,1.5-1.6,0-.33-.1-.65-.3-.95-.2-.3-.73-.65-1.6-1.05ZM489.5,124.54c-.07,2-.47,3.76-1.2,5.3-.73,1.53-1.62,2.83-2.65,3.9-1.03,1.07-2.12,1.87-3.25,2.4-1.13.53-2.17.8-3.1.8-1.53,0-2.77-.7-3.7-2.1-.93-1.4-1.4-3.26-1.4-5.6,0-2.13.43-3.8,1.3-5,.87-1.2,2.01-2.2,3.45-3,1.43-.8,3.06-1.53,4.9-2.2,1.83-.67,3.71-1.6,5.65-2.8v8.29Z"/>
        <path class="cls-4" d="M591.93,141.72c-1.13-.47-1.95-.98-2.45-1.55-.5-.57-.75-1.38-.75-2.45v-30.98c0-4.73-1.13-8.34-3.4-10.84-2.27-2.5-5.3-3.75-9.09-3.75-2.93,0-5.85.77-8.74,2.3-2.9,1.53-5.45,3.96-7.64,7.29-.73-3.13-2.15-5.51-4.25-7.14-2.1-1.63-4.68-2.45-7.74-2.45-2.8,0-5.58.72-8.34,2.15-2.77,1.43-5.25,3.65-7.44,6.65v-2.6c0-.6-.02-1.2-.05-1.8-.03-.6-.12-1.15-.25-1.65-.13-.5-.37-.9-.7-1.2-.33-.3-.8-.45-1.4-.45-.67,0-1.25.2-1.75.6-.5.4-1.25.82-2.25,1.25-1,.43-2.4.85-4.2,1.25s-4.33.6-7.59.6c-1.07,0-1.6.53-1.6,1.6,0,.33.1.65.3.95s.77.65,1.7,1.05c1.13.47,1.95.98,2.45,1.55.5.57.75,1.38.75,2.45v33.18c0,1.07-.25,1.88-.75,2.45-.5.57-1.32,1.08-2.45,1.55-.93.4-1.5.75-1.7,1.05s-.3.62-.3.95c0,1.07.53,1.6,1.6,1.6h21.88c1,0,1.5-.53,1.5-1.6,0-.33-.1-.65-.3-.95-.2-.3-.77-.65-1.7-1.05-1.13-.47-1.95-.98-2.45-1.55-.5-.57-.75-1.38-.75-2.45v-24.98c.13-1.8.48-3.45,1.05-4.95.57-1.5,1.28-2.78,2.15-3.85.86-1.07,1.78-1.9,2.75-2.5.96-.6,1.88-.9,2.75-.9,1.53,0,2.76.98,3.7,2.95.93,1.97,1.4,4.65,1.4,8.04v26.18c0,1.07-.27,1.88-.8,2.45-.53.57-1.37,1.08-2.5,1.55-.87.4-1.4.75-1.6,1.05s-.3.62-.3.95c0,1.07.5,1.6,1.5,1.6h21.88c1.06,0,1.6-.53,1.6-1.6,0-.33-.1-.65-.3-.95-.2-.3-.77-.65-1.7-1.05-1.13-.47-1.95-.98-2.45-1.55-.5-.57-.75-1.38-.75-2.45v-24.98c.13-1.8.48-3.45,1.05-4.95.57-1.5,1.26-2.78,2.1-3.85.83-1.07,1.73-1.9,2.7-2.5.96-.6,1.88-.9,2.75-.9,1.53,0,2.76.98,3.7,2.95.93,1.97,1.4,4.65,1.4,8.04v26.18c0,1.07-.25,1.88-.75,2.45-.5.57-1.32,1.08-2.45,1.55-.93.4-1.5.75-1.7,1.05-.2.3-.3.62-.3.95,0,1.07.53,1.6,1.6,1.6h21.88c1,0,1.5-.53,1.5-1.6,0-.33-.1-.65-.3-.95s-.77-.65-1.7-1.05Z"/>
        <path class="cls-4" d="M641.59,99.91c-2.4-2.43-5.2-4.33-8.39-5.7-3.2-1.36-6.6-2.05-10.19-2.05s-7.1.68-10.29,2.05c-3.2,1.37-6,3.27-8.39,5.7-2.4,2.43-4.3,5.3-5.7,8.59-1.4,3.3-2.1,6.88-2.1,10.74s.7,7.44,2.1,10.74c1.4,3.3,3.3,6.16,5.7,8.59,2.4,2.43,5.2,4.33,8.39,5.7,3.2,1.36,6.63,2.05,10.29,2.05s6.99-.68,10.19-2.05c3.2-1.36,6-3.26,8.39-5.7,2.4-2.43,4.28-5.3,5.65-8.59,1.36-3.3,2.05-6.88,2.05-10.74s-.68-7.44-2.05-10.74c-1.37-3.3-3.25-6.16-5.65-8.59ZM632.85,129.83c-.57,2.8-1.33,5.03-2.3,6.7-.97,1.67-2.1,2.85-3.4,3.55-1.3.7-2.68,1.05-4.15,1.05s-2.87-.35-4.2-1.05c-1.33-.7-2.5-1.88-3.5-3.55-1-1.66-1.78-3.9-2.35-6.7-.57-2.8-.85-6.33-.85-10.59s.28-7.79.85-10.59c.57-2.8,1.35-5.03,2.35-6.69,1-1.66,2.16-2.85,3.5-3.55,1.33-.7,2.73-1.05,4.2-1.05s2.85.35,4.15,1.05c1.3.7,2.43,1.88,3.4,3.55.96,1.67,1.73,3.9,2.3,6.69.57,2.8.85,6.33.85,10.59s-.28,7.79-.85,10.59Z"/>
        <path class="cls-4" d="M692,94.06c-1.7-1.26-3.88-1.9-6.54-1.9s-5.05.63-7.34,1.9c-2.3,1.27-4.38,3.26-6.25,6v-1.7c0-.6-.02-1.2-.05-1.8-.03-.6-.12-1.15-.25-1.65-.13-.5-.37-.9-.7-1.2-.33-.3-.8-.45-1.4-.45-.67,0-1.25.2-1.75.6-.5.4-1.25.82-2.25,1.25-1,.43-2.4.85-4.2,1.25s-4.33.6-7.59.6c-1.07,0-1.6.53-1.6,1.6,0,.33.1.65.3.95s.77.65,1.7,1.05c1.13.47,1.95.98,2.45,1.55.5.57.75,1.38.75,2.45v33.18c0,1.07-.25,1.88-.75,2.45-.5.57-1.32,1.08-2.45,1.55-.93.4-1.5.75-1.7,1.05s-.3.62-.3.95c0,1.07.53,1.6,1.6,1.6h21.88c1,0,1.5-.53,1.5-1.6,0-.33-.1-.65-.3-.95-.2-.3-.77-.65-1.7-1.05-1.13-.47-1.95-.98-2.45-1.55-.5-.57-.75-1.38-.75-2.45v-24.98c.2-3.6,1.01-6.53,2.45-8.79,1.43-2.26,2.98-3.4,4.65-3.4,1.06,0,1.83.37,2.3,1.1.47.73.77,1.5.9,2.3.27,1,.62,1.8,1.05,2.4.43.6.9,1.05,1.4,1.35.5.3,1,.5,1.5.6.5.1.95.15,1.35.15h.7c1.8-.13,3.2-.58,4.2-1.35,1-.77,1.71-1.63,2.15-2.6.43-.96.67-1.95.7-2.95.03-1-.02-1.8-.15-2.4-.33-2.13-1.35-3.83-3.05-5.1Z"/>
        <path class="cls-4" d="M729.03,98.46c1.2,0,1.8-.63,1.8-1.9v-1.5c0-1.2-.6-1.8-1.8-1.8h-11.49v-6.6c0-3.73.32-6.35.95-7.84.63-1.5,1.45-2.25,2.45-2.25.73,0,1.33.35,1.8,1.05.47.7.87,2.12,1.2,4.25.33,2.07.87,3.73,1.6,5,.73,1.27,1.93,1.9,3.6,1.9.33,0,.68-.03,1.05-.1.37-.07.78-.17,1.25-.3,1.6-.47,2.78-1.12,3.55-1.95.76-.83,1.26-1.71,1.5-2.65.23-.93.25-1.86.05-2.8-.2-.93-.47-1.76-.8-2.5-1-2.26-2.8-4.01-5.4-5.25-2.6-1.23-5.9-1.85-9.89-1.85-2.4,0-4.66.28-6.8.85-2.13.57-4,1.55-5.6,2.95-1.6,1.4-2.85,3.31-3.75,5.75-.9,2.43-1.35,5.55-1.35,9.34v3h-3.3c-1.27,0-1.9.6-1.9,1.8v1.5c0,1.27.63,1.9,1.9,1.9h3.3v39.27c0,1.07-.25,1.88-.75,2.45-.5.57-1.32,1.08-2.45,1.55-.93.4-1.5.75-1.7,1.05s-.3.62-.3.95c0,1.07.53,1.6,1.6,1.6h21.88c1,0,1.5-.53,1.5-1.6,0-.33-.1-.65-.3-.95-.2-.3-.77-.65-1.7-1.05-1.13-.47-1.95-.98-2.45-1.55-.5-.57-.75-1.38-.75-2.45v-39.27h11.49Z"/>
        <path class="cls-4" d="M774.39,99.91c-2.4-2.43-5.2-4.33-8.39-5.7-3.2-1.36-6.6-2.05-10.19-2.05s-7.1.68-10.29,2.05c-3.2,1.37-6,3.27-8.39,5.7-2.4,2.43-4.3,5.3-5.7,8.59-1.4,3.3-2.1,6.88-2.1,10.74s.7,7.44,2.1,10.74c1.4,3.3,3.3,6.16,5.7,8.59,2.4,2.43,5.2,4.33,8.39,5.7,3.2,1.36,6.63,2.05,10.29,2.05s6.99-.68,10.19-2.05c3.2-1.36,6-3.26,8.39-5.7,2.4-2.43,4.28-5.3,5.65-8.59,1.36-3.3,2.05-6.88,2.05-10.74s-.68-7.44-2.05-10.74c-1.37-3.3-3.25-6.16-5.65-8.59ZM765.65,129.83c-.57,2.8-1.33,5.03-2.3,6.7-.97,1.67-2.1,2.85-3.4,3.55-1.3.7-2.68,1.05-4.15,1.05s-2.87-.35-4.2-1.05c-1.33-.7-2.5-1.88-3.5-3.55-1-1.66-1.78-3.9-2.35-6.7-.57-2.8-.85-6.33-.85-10.59s.28-7.79.85-10.59c.57-2.8,1.35-5.03,2.35-6.69,1-1.66,2.16-2.85,3.5-3.55,1.33-.7,2.73-1.05,4.2-1.05s2.85.35,4.15,1.05c1.3.7,2.43,1.88,3.4,3.55.96,1.67,1.73,3.9,2.3,6.69.57,2.8.85,6.33.85,10.59s-.28,7.79-.85,10.59Z"/>
        <path class="cls-4" d="M819.66,117.64c-1.8-1.2-3.75-2.21-5.85-3.05-2.1-.83-4.05-1.73-5.85-2.7-1.8-.97-3.3-2.13-4.5-3.5-1.2-1.36-1.8-3.18-1.8-5.45,0-1.53.33-2.85,1-3.95.67-1.1,1.7-1.65,3.1-1.65,1.53,0,2.73.65,3.6,1.95.87,1.3,1.43,2.82,1.7,4.55.4,2.27,1.15,3.95,2.25,5.05,1.1,1.1,2.41,1.65,3.95,1.65.87,0,1.86-.23,3-.7,2.2-.87,3.63-2.31,4.3-4.35.67-2.03.07-4.28-1.8-6.74-1.87-2.33-4.21-4.01-7.05-5.05-2.83-1.03-5.61-1.55-8.34-1.55-2.47,0-4.88.42-7.24,1.25-2.37.83-4.45,2.02-6.25,3.55-1.8,1.53-3.25,3.38-4.35,5.55-1.1,2.17-1.65,4.61-1.65,7.34,0,2.93.6,5.38,1.8,7.34,1.2,1.97,2.7,3.61,4.5,4.95,1.8,1.33,3.75,2.45,5.85,3.35,2.1.9,4.05,1.78,5.85,2.65,1.8.87,3.3,1.82,4.5,2.85,1.2,1.03,1.8,2.32,1.8,3.85,0,.8-.18,1.58-.55,2.35-.37.77-.83,1.45-1.4,2.05-.57.6-1.22,1.07-1.95,1.4-.73.33-1.5.5-2.3.5-1.53,0-2.73-.65-3.6-1.95-.87-1.3-1.43-2.81-1.7-4.55-.4-2.26-1.15-3.95-2.25-5.05s-2.42-1.65-3.95-1.65c-.53,0-1.03.07-1.5.2-.47.13-.97.3-1.5.5-2.2.93-3.63,2.42-4.3,4.45-.67,2.03-.07,4.28,1.8,6.74,1.86,2.27,4.25,3.91,7.14,4.95,2.9,1.03,5.91,1.55,9.04,1.55,2.8,0,5.46-.42,7.99-1.25,2.53-.83,4.75-2,6.65-3.5,1.9-1.5,3.4-3.31,4.5-5.45,1.1-2.13,1.65-4.53,1.65-7.19,0-2.8-.6-5.08-1.8-6.85-1.2-1.76-2.7-3.25-4.5-4.45Z"/>
        <path class="cls-4" d="M841.94,89.06c2.33,0,4.3-.82,5.9-2.45,1.6-1.63,2.4-3.58,2.4-5.85s-.8-4.31-2.4-5.95c-1.6-1.63-3.56-2.45-5.9-2.45s-4.31.82-5.95,2.45-2.45,3.61-2.45,5.95.82,4.21,2.45,5.85c1.63,1.63,3.61,2.45,5.95,2.45Z"/>
        <path class="cls-4" d="M853.44,141.72c-1.13-.47-1.95-.98-2.45-1.55-.5-.57-.75-1.38-.75-2.45v-39.37c0-.6-.02-1.2-.05-1.8-.03-.6-.12-1.15-.25-1.65-.13-.5-.37-.9-.7-1.2-.33-.3-.8-.45-1.4-.45-.67,0-1.25.2-1.75.6-.5.4-1.25.82-2.25,1.25-1,.43-2.4.85-4.2,1.25s-4.33.6-7.59.6c-1.07,0-1.6.53-1.6,1.6,0,.33.1.65.3.95s.77.65,1.7,1.05c1.13.47,1.95.98,2.45,1.55.5.57.75,1.38.75,2.45v33.18c0,1.07-.25,1.88-.75,2.45-.5.57-1.32,1.08-2.45,1.55-.93.4-1.5.75-1.7,1.05s-.3.62-.3.95c0,1.07.53,1.6,1.6,1.6h21.88c1,0,1.5-.53,1.5-1.6,0-.33-.1-.65-.3-.95-.2-.3-.77-.65-1.7-1.05Z"/>
        <path class="cls-4" d="M896.1,122.09c-1.2-1.76-2.7-3.25-4.5-4.45-1.8-1.2-3.75-2.21-5.85-3.05-2.1-.83-4.05-1.73-5.85-2.7-1.8-.97-3.3-2.13-4.5-3.5-1.2-1.36-1.8-3.18-1.8-5.45,0-1.53.33-2.85,1-3.95.67-1.1,1.7-1.65,3.1-1.65,1.53,0,2.73.65,3.6,1.95.87,1.3,1.43,2.82,1.7,4.55.4,2.27,1.15,3.95,2.25,5.05,1.1,1.1,2.41,1.65,3.95,1.65.87,0,1.86-.23,3-.7,2.2-.87,3.63-2.31,4.3-4.35.67-2.03.07-4.28-1.8-6.74-1.87-2.33-4.21-4.01-7.05-5.05-2.83-1.03-5.61-1.55-8.34-1.55-2.47,0-4.88.42-7.24,1.25-2.37.83-4.45,2.02-6.25,3.55-1.8,1.53-3.25,3.38-4.35,5.55-1.1,2.17-1.65,4.61-1.65,7.34,0,2.93.6,5.38,1.8,7.34,1.2,1.97,2.7,3.61,4.5,4.95,1.8,1.33,3.75,2.45,5.85,3.35,2.1.9,4.05,1.78,5.85,2.65,1.8.87,3.3,1.82,4.5,2.85,1.2,1.03,1.8,2.32,1.8,3.85,0,.8-.18,1.58-.55,2.35-.37.77-.83,1.45-1.4,2.05-.57.6-1.22,1.07-1.95,1.4-.73.33-1.5.5-2.3.5-1.53,0-2.73-.65-3.6-1.95-.87-1.3-1.43-2.81-1.7-4.55-.4-2.26-1.15-3.95-2.25-5.05s-2.42-1.65-3.95-1.65c-.53,0-1.03.07-1.5.2-.47.13-.97.3-1.5.5-2.2.93-3.63,2.42-4.3,4.45-.67,2.03-.07,4.28,1.8,6.74,1.86,2.27,4.25,3.91,7.14,4.95,2.9,1.03,5.91,1.55,9.04,1.55,2.8,0,5.46-.42,7.99-1.25,2.53-.83,4.75-2,6.65-3.5,1.9-1.5,3.4-3.31,4.5-5.45,1.1-2.13,1.65-4.53,1.65-7.19,0-2.8-.6-5.08-1.8-6.85Z"/>
        <path class="cls-4" d="M517.35,78.79c2.04,2.83,4.24,5.43,7.61,6.67,3,1.1,6.65.53,8.76-2,1.87-2.24,2.4-5.22,1.85-8.05-1.23-6.42-8.28-9.34-13.88-10.85-11.62-3.15-24.14-1.82-35.07,3.07-5.39,2.41-10.39,5.8-14.6,9.94-.41.4-.79.82-1.18,1.24-.06.06-.13.1-.19.17-.41.45-.8.91-1.18,1.37-2.27,2.67-4.33,5.53-6.7,8.1-.15.14-.29.29-.44.43-.41.38-.83.74-1.27,1.08,0,0,0,0,0,0-.14.1-.27.2-.41.3-.28.2-.56.39-.85.57-.47.3-.95.57-1.44.82-.28.15-.57.28-.86.41-.02,0-.02.01-.03.02-.03.01-.05.02-.09.03-.17.06-.34.13-.51.19-.6.22-1.22.4-1.84.55-.34.08-.69.15-1.04.22-.16.03-.33.06-.5.08-.07,0-.24.03-.32.04-.3.03-.61.05-.91.06h-2.71c-.11-.02-.21-.03-.26-.04-.22-.03-.45-.07-.67-.11-.51-.08-1.02-.18-1.53-.27-.91-.17-1.81-.37-2.71-.58-.49-.11-.97-.23-1.45-.36v-12.94c0-1.33-.67-2-2-2h-1.3c-1.27,0-2.13.63-2.6,1.9-.47,1.4-1.1,2.93-1.9,4.6-.8,1.67-1.75,3.23-2.85,4.7-1.1,1.47-2.37,2.68-3.8,3.65-1.43.97-3.01,1.45-4.75,1.45h-.6c-1.27,0-1.9.6-1.9,1.8v1.5c0,1.27.63,1.9,1.9,1.9h5.2v33.18c0,1.6.17,3.25.5,4.95.33,1.7.98,3.28,1.95,4.75.96,1.47,2.33,2.67,4.1,3.6,1.76.93,4.08,1.4,6.94,1.4,3.73,0,6.61-.7,8.64-2.1,2.03-1.4,3.45-2.86,4.25-4.4.33-.73.58-1.53.75-2.4.17-.87.02-1.53-.45-2-.4-.4-.83-.6-1.3-.6s-.93.17-1.4.5c-.73.4-1.57,1.07-2.5,2-.93.93-2.07,1.4-3.4,1.4-1.47,0-2.42-.73-2.85-2.2-.43-1.46-.65-3.4-.65-5.8v-32.28h9.39c.16,0,.31-.01.44-.04,1.5.05,3-.03,4.47-.31,2.27-.43,4.15-1.82,5.9-3.27,1.17-.97,2.25-2.05,3.26-3.19,1.15-1.12,2.22-2.34,3.23-3.62.85-1.08,1.68-2.18,2.51-3.28.07-.09.14-.19.22-.28.02-.02.03-.04.05-.07,2.6-3.01,5.37-5.81,8.71-8.12,4.22-2.92,8.88-5.13,13.77-6.57.14.02.29.04.45.04,5.5-.1,11.45.12,16.22,3.04,2.45,1.5,4.12,3.69,5.79,6ZM472.36,84.48c-.11.15-.09.12,0,0h0Z"/>
        <path class="cls-4" d="M757.97,84.32c1.16-4.25,2.7-8.3,4.7-12.11.94-1.73.87-4.55,3.14-5.26,2.92-.97,5.46-.64,8.97.56,0,0,1.06,1.06,1.06,1.06,1.21,3.5,1.53,6.05.56,8.97-.71,2.27-3.53,2.2-5.26,3.14-1.83.97-3.76,1.84-5.79,2.61-2.05.75-4.08,1.52-6.32,2.08l-1.06-1.06h0Z"/>
      </g>
      <g>
        <path class="cls-4" d="M120.89,27.62h0c0-3.95,3.21-7.16,7.16-7.16h0c-3.95,0-7.16-3.21-7.16-7.16h0c0,3.95-3.21,7.16-7.16,7.16h0c3.95,0,7.16,3.21,7.16,7.16Z"/>
        <path class="cls-4" d="M128.06,234.64h0c-3.95,0-7.16-3.21-7.16-7.16h0c0,3.95-3.21,7.16-7.16,7.16h0c3.95,0,7.16,3.21,7.16,7.16h0c0-3.95,3.21-7.16,7.16-7.16Z"/>
        <path class="cls-4" d="M120.89,63.82c7.34,0,13.28-5.95,13.28-13.28,0-3.83-1.62-7.29-4.22-9.71,1.45,1.91,2.31,4.29,2.31,6.87,0,6.28-5.09,11.37-11.37,11.37s-11.37-5.09-11.37-11.37c0-2.58.86-4.96,2.31-6.87-2.6,2.42-4.22,5.88-4.22,9.71,0,7.34,5.95,13.28,13.28,13.28Z"/>
        <g>
          <polygon class="cls-4" points="120.98 189.56 117.04 188.71 120.98 171.98 109.09 186.98 120.98 214.28 116.84 189.56 120.98 189.56"/>
          <polygon class="cls-4" points="120.98 171.98 124.91 188.71 120.98 189.56 125.11 189.56 120.98 214.28 132.86 186.98 120.98 171.98"/>
        </g>
        <path class="cls-4" d="M154.18,49.09c1.41.41.2-2.29,1.59-2.81.02-2.65,2.09-3.66,4-4.47,1.9-.8,4.11-2.28,5.92.38.17.24.75.17.98.4,1.3,1.28,1.98-.48,2.93-.71.47-.11,1.02-1.74.82-2.51-.69-2.77-3.17-3.72-4.91-1.6-1.4,1.71-2.76,2.08-4.62,2.12-.45.01-.89.38-1.35.47-.43.08-.89,0-1.33,0,.02-.35-.05-.75.08-1.05.77-1.76,1.99-3.06,3.8-3.84,2.83-1.22,7.81-1.47,11.04-.53.94.27,1.92.44,2.89.55,1.98.23,2.17,2.2,3.26,3.29.65.65,1.23,1.35,2.29,1.08.92-.24,2.22-1.78,2.32-2.73.2-1.95-.7-2.88-2.63-2.74-.37.03-.82.01-1.07.22-2.05,1.64-3.73-.33-5.58-.55-.31-.04-.72-.49-.78-.81-.04-.22.39-.71.69-.79,2.07-.56,3.95-1.87,6.37-.78,2.28,1.03,2.7.5,4.03-1.75.74-1.24-.23-1.81-.6-2.43-.52-.86-2.43-1.04-2.84-.43-1.9,2.79-5.2,3.18-7.85,4.67-.14.08-.49.09-.52.02-.11-.21-.23-.59-.13-.7,1.1-1.24,1.7-2.94,3.4-3.61.45-.18.96-.28,1.32-.57,1.14-.91,1.06-3.55-.23-3.91-1.13-.32-2.53-.31-3.63.08-1.38.48-1.28,2.54-.79,2.98,1.41,1.26.38,2.18-.14,2.94-1.52,2.21-3.09,4.45-6.41,3.89-1.2-.2-2.55-.31-3.6.72-.09.09-.59-.04-.66-.18-.14-.31-.29-.83-.14-1.02,1.43-1.77,2.84-3.57,4.42-5.2,1.32-1.36,2.93-2.42,4.28-3.76,2.41-2.39,5.43-3.85,8.24-5.62,1.83-1.16,3.77-2.32,5.82-2.88,3.3-.89,5.83,1.45,8.54,2.83.35.18.48.82.65,1.26.45,1.19,1.79,2.16,2.91,2.08,1.32-.1,2.93-2.14,2.57-3.26-.4-1.24-2.33-2.62-3.6-2.14-1.63.62-3.07.68-4.23-.55-.7-.74-2.54.56-2.22-1.2.11-.6,1.46-1.02,2.29-1.43,1.08-.53,2.19-1,3.32-1.41.86-.31,1.61-.25,2.42.48,1.13,1.01,3.4,1.1,3.87.1.49-1.03.59-2.5.26-3.6-.47-1.6-2.47-2.04-3.91-1.02-.56.4-.88,1.13-1.34,1.69-.39.48-.73,1.19-1.24,1.37-1.83.63-3.7,1.16-5.59,1.57-.77.17-.8,0-.51-.96.74-2.47,1.62-4.55,4.17-5.7.78-.35,1.78-1.08,1.63-2.4-.15-1.33-1.22-1.95-2.1-2.55-.39-.26-1.45.17-2.02.56-.96.66-2.09,1.89-1.25,2.84,1.34,1.51.32,2.55-.14,3.73-.39,1.01-1,1.93-1.54,2.88-.61,1.05-1.02,2.42-1.93,3.05-1.24.87-2.87,1.19-4.35,1.69-.12.04-.58-.44-.54-.53,1.13-2.67.94-5.99,3.83-7.79.11-.07.2-.17.28-.27.59-.84.51-3.38-.12-3.88-.83-.66-3.22-.57-3.97.16-1.02.99-1.17,2.81-.37,4.01.34.5,1.01,1.24.86,1.54-1.19,2.4-1.21,5.18-2.55,7.55-.58,1.02-1.25,1.73-2.23,2.11-3.72,1.43-6.71,3.93-10.34,6.96.55-1.42.95-2.13,1.08-2.88.15-.88-.06-1.83.14-2.69.16-.68.6-1.35,1.08-1.88,1.14-1.25,2.36-2.43,3.59-3.59.24-.22.9-.42.99-.31,1.14,1.36,1.96-.09,2.74-.41,1.38-.57.97-2.04.78-3.09-.09-.49-1.19-1.21-1.73-1.13-1,.15-1.92.81-2.87,1.26.26,2.72-2.09,3.45-4.03,5.26.37-2.42-.7-4.59,1.53-6.05-.08-1.22.12-2.57-.34-3.63-.4-.92-2.74-1.1-3.33-.47-.57.62-1.14,1.37-1.34,2.16-.14.54.16,1.51.59,1.82,1.51,1.08,1.53,2.55,1.45,4.12-.04.91.04,1.83-.03,2.73-.04.45-.3.88-.45,1.32-.44-.2-1.01-.3-1.28-.63-.77-.96-1.99-1.45-2.23-2.99-.27-1.75-1.01-2.03-2.68-1.85-.95.11-2.54,1.4-2.69,2.34-.23,1.38.65,1.85,1.79,2.43,1.02.52,1.63,1.04,2.56-.04.22-.25,1.18-.24,1.48.02,1.42,1.24,3.01,2.6,2.7,4.69-.41,2.75-1.13,5.48-2.77,7.82-.94,1.33-2.02,2.55-3.09,3.89-1.03-3.1-2.14-6.11.4-9.08.55-.64-.73-3.28-1.44-3.47-1.26-.33-3.32.66-3.91,1.88-.49,1.02,0,3.17,1.3,3.48,1.46.34.77,1.81,1.74,2.16.09,4.28.32,8.64-1.78,12.54-.94,1.74-1.6,3.56-2.03,5.4-.25,1.05-2.33,2.67-.12,3.32Z"/>
        <path class="cls-4" d="M44.27,11.58c.81-.73,1.56-.79,2.42-.48,1.13.41,2.24.89,3.32,1.41.83.41,2.18.83,2.29,1.43.31,1.76-1.53.46-2.22,1.2-1.16,1.23-2.6,1.18-4.23.55-1.27-.48-3.2.9-3.6,2.14-.36,1.12,1.25,3.16,2.57,3.26,1.12.08,2.46-.89,2.91-2.08.17-.45.31-1.09.65-1.26,2.7-1.38,5.23-3.73,8.54-2.83,2.05.56,3.99,1.72,5.82,2.88,2.81,1.78,5.83,3.23,8.24,5.62,1.35,1.33,2.96,2.4,4.28,3.76,1.58,1.63,2.99,3.43,4.42,5.2.15.19,0,.71-.14,1.02-.06.14-.57.27-.66.18-1.05-1.04-2.4-.92-3.6-.72-3.32.56-4.89-1.68-6.41-3.89-.52-.76-1.55-1.69-.14-2.94.49-.44.59-2.5-.79-2.98-1.1-.39-2.51-.4-3.63-.08-1.29.37-1.37,3-.23,3.91.36.29.87.39,1.32.57,1.69.67,2.3,2.38,3.4,3.61.1.12-.02.49-.13.7-.03.07-.38.06-.52-.02-2.65-1.49-5.95-1.87-7.85-4.67-.41-.6-2.33-.43-2.84.43-.37.61-1.34,1.19-.6,2.43,1.33,2.24,1.75,2.77,4.03,1.75,2.42-1.09,4.3.22,6.37.78.3.08.73.57.69.79-.06.32-.47.77-.78.81-1.85.23-3.53,2.2-5.58.55-.25-.2-.71-.19-1.07-.22-1.94-.15-2.83.79-2.63,2.74.1.95,1.4,2.49,2.32,2.73,1.06.27,1.64-.42,2.29-1.08,1.09-1.09,1.27-3.06,3.26-3.29.97-.11,1.95-.28,2.89-.55,3.24-.94,8.21-.69,11.04.53,1.81.78,3.03,2.08,3.8,3.84.13.3.06.7.08,1.05-.44,0-.9.08-1.33,0-.47-.09-.9-.46-1.35-.47-1.86-.04-3.22-.41-4.62-2.12-1.74-2.12-4.22-1.17-4.91,1.6-.19.77.35,2.4.82,2.51.95.23,1.63,1.98,2.93.71.23-.23.82-.16.98-.4,1.82-2.66,4.02-1.18,5.92-.38,1.91.81,3.98,1.82,4,4.47,1.39.52.18,3.22,1.59,2.81,2.21-.65.13-2.27-.12-3.32-.44-1.84-1.09-3.66-2.03-5.4-2.1-3.9-1.87-8.26-1.78-12.54.97-.35.28-1.82,1.74-2.16,1.3-.3,1.8-2.45,1.3-3.48-.59-1.22-2.65-2.21-3.91-1.88-.71.19-1.99,2.83-1.44,3.47,2.54,2.97,1.42,5.98.4,9.08-1.07-1.34-2.15-2.56-3.09-3.89-1.65-2.33-2.36-5.07-2.77-7.82-.32-2.1,1.28-3.45,2.7-4.69.3-.26,1.26-.27,1.48-.02.93,1.08,1.54.56,2.56.04,1.15-.58,2.02-1.05,1.79-2.43-.15-.94-1.74-2.24-2.69-2.34-1.67-.19-2.41.09-2.68,1.85-.24,1.55-1.46,2.04-2.23,2.99-.27.34-.85.43-1.28.63-.16-.44-.42-.87-.45-1.32-.07-.91.01-1.82-.03-2.73-.07-1.58-.06-3.04,1.45-4.12.43-.31.73-1.28.59-1.82-.2-.79-.77-1.54-1.34-2.16-.59-.64-2.94-.45-3.33.47-.46,1.06-.25,2.41-.34,3.63,2.24,1.47,1.16,3.63,1.53,6.05-1.94-1.8-4.28-2.53-4.03-5.26-.95-.45-1.88-1.11-2.87-1.26-.54-.08-1.64.64-1.73,1.13-.19,1.05-.59,2.52.78,3.09.79.33,1.6,1.78,2.74.41.09-.11.75.09.99.31,1.23,1.16,2.45,2.34,3.59,3.59.48.53.93,1.2,1.08,1.88.2.86-.02,1.81.14,2.69.13.75.53,1.46,1.08,2.88-3.62-3.03-6.62-5.54-10.34-6.96-.98-.38-1.65-1.09-2.23-2.11-1.34-2.37-1.36-5.15-2.55-7.55-.15-.3.52-1.04.86-1.54.8-1.2.65-3.02-.37-4.01-.75-.73-3.14-.83-3.97-.16-.63.5-.71,3.04-.12,3.88.07.11.17.21.28.27,2.9,1.8,2.71,5.12,3.83,7.79.04.09-.42.57-.54.53-1.48-.5-3.11-.82-4.35-1.69-.91-.63-1.32-2-1.93-3.05-.54-.94-1.15-1.87-1.54-2.88-.46-1.17-1.48-2.21-.14-3.73.84-.95-.29-2.17-1.25-2.84-.57-.39-1.63-.82-2.02-.56-.89.6-1.95,1.21-2.1,2.55-.15,1.32.85,2.06,1.63,2.4,2.56,1.15,3.43,3.23,4.17,5.7.29.97.26,1.13-.51.96-1.89-.42-3.77-.94-5.59-1.57-.51-.18-.85-.88-1.24-1.37-.45-.56-.77-1.29-1.34-1.69-1.44-1.02-3.44-.59-3.91,1.02-.32,1.1-.23,2.57.26,3.6.48,1,2.75.91,3.87-.1Z"/>
        <path class="cls-4" d="M12.83,151.76c-.42-8.54-5.78-18.09-12.83-22.82.55,5.63.77,11.13,3.47,16.03,1.96,3.54,4.74,6.29,9.36,6.78Z"/>
        <path class="cls-4" d="M39.64,207.66c4.7,1.67,8.9-.64,9.99-4.92-7.15-3.48-14.29-6.63-22.26-1.61.57.41,1.03.82,1.56,1.09,3.55,1.86,6.98,4.11,10.72,5.44Z"/>
        <path class="cls-4" d="M21.46,190.35c1.86,1.14,4.23,1.8,6.41,1.95,1.6.11,3.29-.96,4.94-1.51-.03-.33-.07-.65-.1-.98-5.99-5.73-12.04-11.34-21.66-10.14,3.15,4.09,6.14,8.08,10.41,10.68Z"/>
        <path class="cls-4" d="M87.47,209.64c-.3-1.5-.84-2.06-2.49-1.47-6.9,2.5-11.94,6.65-13.17,15.11,3.79-1.13,7.53-1.88,10.95-3.38,3.69-1.62,5.5-6.29,4.71-10.27Z"/>
        <path class="cls-4" d="M20,172.35c-3.93-9.16-11.67-16.55-18.58-17.73,2.16,5.11,4,10.26,7.8,14.25,2.8,2.93,6.18,4.97,10.78,3.49Z"/>
        <path class="cls-4" d="M61.86,217.8c3.59-.64,6.21-3.49,6.66-6.9.19-1.4-.1-2.05-1.7-2.17-7.26-.58-13.86.38-18.24,7.48,4.42,1.01,8.72,2.4,13.28,1.59Z"/>
        <path class="cls-4" d="M35.71,186.38c4.15-5.42,2.21-12.95-.8-19.46-5.85,6.11-5.58,13.67.8,19.46Z"/>
        <path class="cls-4" d="M44.2,178.89c-4.49,8.2.4,15.92,6.99,19.15,1.38-7.83-2.56-13.54-6.99-19.15Z"/>
        <path class="cls-4" d="M84.77,202.48c-3.21-7.15-9.16-10.16-16.07-11.87,1.98,9.06,8.58,14.1,16.07,11.87Z"/>
        <path class="cls-4" d="M24.42,170.19c6.34-4.23,5.51-10.74,5.48-17.2-8.05,2.65-10.71,11.1-5.48,17.2Z"/>
        <path class="cls-4" d="M55.92,187.01c-1.27,8.32,4.12,15.77,12.28,16.65-1.05-8-6.32-12.59-12.28-16.65Z"/>
        <path class="cls-4" d="M28.89,138.87c-8.59-1.05-13.45,4.39-11.07,12.6,6.54-.27,9.38-5.58,11.07-12.6Z"/>
        <path class="cls-4" d="M238.23,139.49c2.9-5.25,3.13-11.15,3.72-17.18-7.56,5.06-13.3,15.29-13.75,24.45,4.95-.53,7.93-3.47,10.02-7.27Z"/>
        <path class="cls-4" d="M212.64,199.65c-8.54-5.38-16.2-2-23.85,1.73,1.16,4.59,5.67,7.07,10.7,5.27,4.01-1.43,7.68-3.83,11.49-5.83.57-.3,1.06-.73,1.67-1.17Z"/>
        <path class="cls-4" d="M206.8,188.58c1.77.58,3.57,1.73,5.29,1.62,2.34-.16,4.88-.87,6.87-2.08,4.57-2.79,7.78-7.06,11.15-11.44-10.31-1.28-16.79,4.72-23.21,10.86-.03.35-.07.7-.1,1.05Z"/>
        <path class="cls-4" d="M150.91,207.2c-1.76-.64-2.34-.03-2.66,1.57-.85,4.26,1.09,9.27,5.05,11,3.66,1.6,7.67,2.4,11.73,3.62-1.32-9.06-6.71-13.51-14.11-16.19Z"/>
        <path class="cls-4" d="M232.07,165.09c4.07-4.27,6.04-9.79,8.36-15.26-7.4,1.26-15.69,9.19-19.9,19,4.93,1.59,8.55-.6,11.55-3.74Z"/>
        <path class="cls-4" d="M168.54,210.13c.48,3.65,3.29,6.7,7.14,7.39,4.88.87,9.49-.62,14.22-1.7-4.69-7.62-11.77-8.63-19.55-8.02-1.71.14-2.02.83-1.82,2.33Z"/>
        <path class="cls-4" d="M203.69,183.85c6.84-6.21,7.13-14.31.86-20.85-3.23,6.98-5.31,15.05-.86,20.85Z"/>
        <path class="cls-4" d="M194.6,175.83c-4.75,6.01-8.97,12.13-7.49,20.52,7.06-3.46,12.29-11.73,7.49-20.52Z"/>
        <path class="cls-4" d="M151.13,201.1c8.03,2.38,15.1-3.01,17.22-12.72-7.4,1.83-13.78,5.06-17.22,12.72Z"/>
        <path class="cls-4" d="M215.79,166.5c5.61-6.53,2.75-15.58-5.87-18.42-.03,6.91-.93,13.89,5.87,18.42Z"/>
        <path class="cls-4" d="M182.04,184.53c-6.38,4.35-12.03,9.27-13.15,17.84,8.74-.95,14.51-8.93,13.15-17.84Z"/>
        <path class="cls-4" d="M222.86,146.46c2.55-8.79-2.66-14.63-11.86-13.5,1.81,7.52,4.85,13.22,11.86,13.5Z"/>
        <path class="cls-4" d="M203.44,55.86c-3.16-2.62-9.8-4.69-23.44.28-18.32,6.67-44.85,39.81-53.47,51.05-.09-.8-.34-1.52-.76-2.15-.46-.69-1.05-1.17-1.67-1.51.44-2.84,2.47-13.02,9.14-15.58,9.22-3.54,5.95-17.07,5.8-17.65-.14-.57-.72-.92-1.3-.78-.57.14-.92.73-.78,1.3.03.12,2.96,12.26-4.49,15.13-7.51,2.89-9.84,13.26-10.44,16.87-.59-.11-1.01-.11-1.06-.11s-.47,0-1.06.11c-.59-3.61-2.92-13.98-10.44-16.87-7.45-2.86-4.52-15-4.49-15.13.14-.57-.21-1.16-.78-1.3-.58-.14-1.16.21-1.3.78-.14.57-3.42,14.11,5.8,17.65,6.66,2.56,8.7,12.74,9.14,15.58-.62.34-1.21.82-1.67,1.51-.42.63-.67,1.34-.76,2.15-8.61-11.24-35.15-44.37-53.47-51.05-13.65-4.97-20.28-2.9-23.44-.28-3.11,2.58-4.37,6.85-3.53,12.02.14.83.42,1.65.83,2.44l6.58,12.39c.23.44.51.86.83,1.26.84,1.05,1.54,2.2,2.1,3.42.37.82.68,1.67.92,2.53.23.85.26,1.74.1,2.64-.23,1.23-.36,3.13.33,5.22.43,1.31,1.12,2.5,2.04,3.56.46.53.79,1.02,1,1.52.2.46.33.95.39,1.44.09.68.04,1.36-.13,2.03-.09.34-.15.66-.18.96-.18,1.46-.14,3.69,1.04,6.01,1.53,3.01,4.12,4.41,5.53,4.98.4.16.81.29,1.24.38,1.69.37,3.42.63,5.13.78,1.8.15,3.61.18,5.43.09-3.84,2.24-7.26,5.05-10.08,8.33-1.85,2.14-3.47,4.51-4.82,7.03-.36.58-2.51,4.25-.84,8.36,1.06,2.6,3.09,3.98,4.21,4.58.45.24.86.53,1.22.87.81.77,1.54,1.63,2.17,2.55.77,1.13,1.39,2.35,1.84,3.64.14.38.23.77.28,1.16.35,2.66,1.42,6.55,4.5,10.01,5.72,6.43,13.98,6.34,16.37,6.16.26-.02.51-.02.75-.01,3.82.19,16.86.02,24.02-9.81,1.74-2.39,2.97-5.14,3.65-8.16l4.35-16.66c.2,1.67.48,3.51.78,5.51.22,1.4.3,3.41.39,5.53.14,3.23.3,6.89.93,10.13.3,1.53,1.54,2.55,3.1,2.55s2.8-1.02,3.1-2.55c.64-3.24.79-6.9.93-10.13.09-2.12.18-4.12.39-5.53.31-2.01.58-3.84.78-5.51l4.34,16.63c.68,3.05,1.91,5.81,3.65,8.19,7.16,9.83,20.19,9.99,24.02,9.81.24-.01.49,0,.75.01.37.03.87.05,1.49.05,3.38,0,10.04-.77,14.88-6.21,3.08-3.46,4.15-7.35,4.5-10.01.05-.39.15-.78.28-1.16.46-1.29,1.08-2.51,1.84-3.64.63-.92,1.36-1.78,2.17-2.55.36-.34.77-.63,1.22-.87,1.12-.59,3.15-1.98,4.2-4.58,1.67-4.11-.48-7.78-.84-8.36-1.35-2.52-2.97-4.88-4.82-7.03-2.82-3.28-6.24-6.09-10.08-8.33,1.81.09,3.62.06,5.43-.09,1.72-.15,3.44-.41,5.13-.78.43-.09.85-.22,1.24-.38,1.41-.57,4-1.97,5.53-4.98,1.18-2.32,1.22-4.55,1.04-6.01-.04-.3-.1-.61-.18-.96-.17-.67-.22-1.35-.13-2.03.06-.49.19-.98.39-1.44.21-.49.54-.99,1-1.52.92-1.05,1.61-2.25,2.04-3.56.69-2.09.56-3.99.33-5.22-.17-.9-.14-1.79.1-2.64.24-.86.54-1.71.92-2.53.56-1.22,1.27-2.37,2.1-3.42.32-.4.59-.82.82-1.25l6.58-12.4c.42-.79.7-1.61.83-2.44.84-5.17-.41-9.44-3.53-12.02ZM74.84,78.66c.44-.25.94-.37,1.51-.37,6.12,0,19.4,13.69,28.68,25.07-25.69-13.97-31.31-20.26-31.35-23.09,0-.4.11-1.01,1.16-1.61ZM59.61,86.09c3.89-6.85,20.61,8.7,20.61,8.7-10.5-.21-24.5-1.85-20.61-8.7ZM62.42,112.51c-.3-.28-1.2-1.12-.43-3.76.95-3.8,2.94-6.29,6.08-7.6,1.8-.75,3.86-1.07,6.07-1.07,7.99,0,17.79,4.18,23.41,6.95-6.13.35-13.29,2.71-13.71,2.85-6.68,2.5-18.41,5.43-21.42,2.63ZM70.04,135.16c-.54-.2-1.29-.64-1.54-2.17-.24-1.48.15-2.9,1.2-4.33,5.68-7.77,27.55-12.49,36.58-14.15-10.24,8.29-30.12,22.9-36.25,20.65ZM85.48,163.58c-9.02-.2-10.29-4.37-9.92-8.42.37-4.11,2.36-7.91,5.42-10.68l32.83-29.75c-7.33,39.79-9.25,49.28-28.34,48.85ZM165.6,78.29c.57,0,1.08.12,1.51.37,1.05.6,1.16,1.21,1.16,1.61-.05,2.83-5.66,9.12-31.35,23.09,9.28-11.38,22.56-25.07,28.68-25.07ZM156.47,163.58c-19.08.43-21-9.06-28.34-48.85l32.83,29.75c3.06,2.77,5.06,6.57,5.42,10.68.36,4.06-.91,8.22-9.92,8.42ZM173.45,132.99c-.25,1.53-1,1.97-1.54,2.17-.43.16-.93.23-1.49.23-7.39,0-25.24-13.17-34.76-20.88,9.03,1.65,30.9,6.37,36.58,14.14,1.05,1.44,1.44,2.86,1.2,4.33ZM179.53,112.51c-3.01,2.8-14.74-.13-21.46-2.65-.4-.13-7.55-2.49-13.67-2.84,7.16-3.53,21.15-9.37,29.47-5.88,3.14,1.32,5.13,3.8,6.09,7.64.76,2.6-.14,3.44-.44,3.72ZM161.73,94.78s16.73-15.54,20.61-8.7-10.11,8.49-20.61,8.7Z"/>
      </g>
    </g>
  </g>
</svg>