<?xml version="1.0" encoding="UTF-8"?>
<svg id="Capa_2" xmlns="http://www.w3.org/2000/svg" viewBox="0 0 705.14 704.71">
  <defs>
    <style>
      .cls-1 {
        fill: #1c1018;
      }
    </style>
  </defs>
  <g id="Capa_1-2" data-name="Capa_1">
    <g>
      <path class="cls-1" d="M352.33,80.5h0c0-11.53,9.34-20.87,20.87-20.87h0c-11.53,0-20.87-9.34-20.87-20.87h0c0,11.53-9.34,20.87-20.87,20.87h0c11.53,0,20.87,9.34,20.87,20.87Z"/>
      <path class="cls-1" d="M373.2,683.84h0c-11.53,0-20.87-9.34-20.87-20.87h0c0,11.53-9.34,20.87-20.87,20.87h0c11.53,0,20.87,9.34,20.87,20.87h0c0-11.53,9.34-20.87,20.87-20.87Z"/>
      <path class="cls-1" d="M352.33,185.99c21.38,0,38.72-17.33,38.72-38.72,0-11.17-4.74-21.24-12.31-28.31,4.22,5.56,6.73,12.49,6.73,20.01,0,18.3-14.84,33.14-33.14,33.14s-33.14-14.84-33.14-33.14c0-7.52,2.51-14.45,6.73-20.01-7.57,7.07-12.31,17.13-12.31,28.31,0,21.38,17.33,38.72,38.72,38.72Z"/>
      <g>
        <polygon class="cls-1" points="352.57 552.46 341.11 549.97 352.57 501.22 317.94 544.92 352.57 624.5 340.52 552.46 352.57 552.46"/>
        <polygon class="cls-1" points="352.57 501.22 364.03 549.97 352.57 552.46 364.62 552.46 352.57 624.5 387.2 544.92 352.57 501.22"/>
      </g>
      <path class="cls-1" d="M449.35,143.08c4.12,1.21.6-6.67,4.64-8.19.07-7.73,6.09-10.67,11.67-13.03,5.54-2.34,11.97-6.66,17.26,1.1.48.71,2.18.5,2.86,1.17,3.78,3.72,5.76-1.4,8.53-2.06,1.38-.33,2.96-5.08,2.4-7.33-2.01-8.08-9.23-10.86-14.3-4.67-4.07,4.97-8.03,6.05-13.46,6.18-1.32.03-2.59,1.12-3.94,1.38-1.25.24-2.58.02-3.88,0,.06-1.03-.15-2.18.24-3.06,2.23-5.14,5.8-8.92,11.07-11.19,8.25-3.55,22.76-4.29,32.19-1.53,2.74.8,5.6,1.28,8.43,1.61,5.78.67,6.31,6.41,9.49,9.59,1.9,1.9,3.6,3.93,6.69,3.14,2.67-.69,6.48-5.19,6.76-7.95.59-5.67-2.03-8.4-7.67-7.97-1.07.08-2.39.04-3.13.63-5.97,4.79-10.86-.96-16.25-1.61-.89-.11-2.1-1.43-2.27-2.35-.12-.65,1.13-2.07,2-2.31,6.04-1.63,11.51-5.44,18.56-2.27,6.65,3,7.86,1.45,11.75-5.09,2.14-3.61-.68-5.29-1.75-7.08-1.51-2.51-7.09-3.02-8.29-1.26-5.54,8.15-15.16,9.25-22.88,13.61-.42.23-1.43.26-1.53.06-.31-.61-.68-1.71-.38-2.04,3.2-3.6,4.97-8.57,9.9-10.53,1.3-.52,2.8-.81,3.85-1.65,3.33-2.66,3.09-10.33-.66-11.4-3.28-.94-7.38-.89-10.58.24-4.02,1.41-3.73,7.41-2.29,8.69,4.11,3.66,1.11,6.36-.41,8.58-4.43,6.44-9,12.96-18.68,11.33-3.49-.59-7.42-.92-10.48,2.1-.26.25-1.73-.11-1.91-.52-.4-.91-.85-2.42-.4-2.98,4.16-5.16,8.27-10.4,12.88-15.15,3.84-3.96,8.55-7.07,12.47-10.96,7.01-6.96,15.83-11.21,24-16.39,5.32-3.37,10.98-6.77,16.96-8.39,9.63-2.61,17,4.22,24.88,8.25,1.01.51,1.41,2.38,1.91,3.68,1.32,3.46,5.22,6.3,8.48,6.06,3.86-.29,8.54-6.24,7.49-9.51-1.17-3.62-6.79-7.65-10.49-6.24-4.75,1.81-8.95,1.98-12.32-1.61-2.04-2.17-7.39,1.63-6.48-3.5.31-1.74,4.25-2.97,6.67-4.16,3.15-1.54,6.38-2.92,9.67-4.12,2.51-.92,4.7-.73,7.06,1.39,3.28,2.94,9.9,3.2,11.29.29,1.43-3,1.71-7.28.77-10.5-1.36-4.67-7.2-5.94-11.4-2.96-1.63,1.16-2.57,3.29-3.89,4.92-1.14,1.41-2.13,3.46-3.63,3.98-5.33,1.85-10.8,3.37-16.31,4.59-2.23.49-2.32.02-1.47-2.8,2.17-7.2,4.71-13.26,12.16-16.61,2.26-1.02,5.2-3.16,4.75-7-.45-3.89-3.54-5.69-6.13-7.43-1.13-.76-4.22.5-5.88,1.64-2.8,1.93-6.1,5.49-3.65,8.26,3.9,4.41.92,7.44-.42,10.86-1.15,2.93-2.91,5.63-4.49,8.38-1.77,3.07-2.97,7.04-5.62,8.89-3.62,2.53-8.37,3.46-12.69,4.92-.34.11-1.68-1.27-1.57-1.54,3.29-7.78,2.74-17.47,11.18-22.7.31-.19.59-.49.8-.8,1.72-2.46,1.48-9.86-.34-11.32-2.43-1.94-9.39-1.65-11.58.47-2.97,2.88-3.42,8.18-1.07,11.67.98,1.47,2.94,3.61,2.51,4.49-3.47,7.01-3.52,15.09-7.44,22.01-1.68,2.96-3.64,5.05-6.5,6.14-10.84,4.16-19.57,11.46-30.13,20.29,1.61-4.15,2.77-6.21,3.15-8.4.45-2.56-.18-5.34.4-7.85.45-1.97,1.75-3.94,3.15-5.48,3.32-3.64,6.87-7.08,10.46-10.47.69-.65,2.62-1.22,2.88-.91,3.33,3.97,5.7-.25,8-1.2,4.01-1.66,2.83-5.94,2.29-9-.25-1.44-3.46-3.53-5.03-3.3-2.91.43-5.6,2.36-8.37,3.66.74,7.94-6.08,10.06-11.74,15.32,1.09-7.07-2.05-13.37,4.46-17.64-.24-3.56.35-7.49-.99-10.58-1.15-2.67-7.98-3.22-9.72-1.36-1.67,1.79-3.31,3.99-3.9,6.29-.4,1.57.45,4.4,1.72,5.31,4.41,3.15,4.45,7.43,4.24,12.02-.12,2.65.12,5.32-.08,7.96-.1,1.31-.86,2.56-1.32,3.84-1.27-.59-2.95-.86-3.74-1.84-2.25-2.79-5.81-4.22-6.5-8.72-.79-5.11-2.95-5.92-7.81-5.38-2.77.31-7.4,4.09-7.85,6.83-.66,4.03,1.88,5.39,5.23,7.08,2.99,1.51,4.76,3.03,7.47-.13.63-.73,3.44-.7,4.3.06,4.14,3.62,8.78,7.56,7.86,13.67-1.21,8.02-3.29,15.98-8.08,22.79-2.73,3.87-5.88,7.43-9,11.32-2.99-9.04-6.25-17.8,1.16-26.46,1.59-1.86-2.12-9.55-4.2-10.1-3.66-.97-9.68,1.92-11.4,5.47-1.44,2.98.02,9.25,3.8,10.13,4.26.99,2.24,5.29,5.08,6.3.26,12.48.93,25.18-5.19,36.53-2.74,5.08-4.65,10.36-5.93,15.74-.72,3.06-6.8,7.8-.35,9.69Z"/>
      <path class="cls-1" d="M129.01,33.76c2.36-2.12,4.54-2.31,7.06-1.39,3.29,1.2,6.53,2.58,9.67,4.12,2.42,1.18,6.36,2.42,6.67,4.16.91,5.13-4.44,1.33-6.48,3.5-3.38,3.59-7.57,3.43-12.32,1.61-3.69-1.41-9.32,2.62-10.49,6.24-1.06,3.27,3.63,9.22,7.49,9.51,3.25.24,7.16-2.6,8.48-6.06.5-1.31.9-3.17,1.91-3.68,7.88-4.03,15.25-10.86,24.88-8.25,5.98,1.62,11.64,5.03,16.96,8.39,8.17,5.17,16.99,9.43,24,16.39,3.92,3.89,8.63,7,12.47,10.96,4.6,4.75,8.71,9.99,12.88,15.15.45.56,0,2.08-.4,2.98-.18.4-1.66.77-1.91.52-3.06-3.02-6.99-2.69-10.48-2.1-9.69,1.63-14.26-4.89-18.68-11.33-1.52-2.22-4.52-4.91-.41-8.58,1.44-1.28,1.72-7.28-2.29-8.69-3.2-1.13-7.3-1.17-10.58-.24-3.75,1.07-3.99,8.75-.66,11.4,1.05.84,2.55,1.14,3.85,1.65,4.94,1.96,6.71,6.93,9.9,10.53.3.34-.07,1.43-.38,2.04-.1.2-1.11.18-1.53-.06-7.72-4.35-17.34-5.46-22.88-13.61-1.2-1.76-6.78-1.25-8.29,1.26-1.07,1.79-3.89,3.47-1.75,7.08,3.88,6.53,5.1,8.08,11.75,5.09,7.04-3.17,12.52.64,18.56,2.27.87.23,2.12,1.65,2,2.31-.17.92-1.38,2.24-2.27,2.35-5.38.66-10.28,6.41-16.25,1.61-.74-.59-2.06-.55-3.13-.63-5.65-.43-8.26,2.3-7.67,7.97.29,2.77,4.09,7.27,6.76,7.95,3.09.79,4.78-1.24,6.68-3.14,3.18-3.17,3.71-8.92,9.49-9.59,2.84-.33,5.7-.81,8.43-1.61,9.43-2.75,23.93-2.02,32.19,1.53,5.27,2.27,8.84,6.05,11.07,11.19.39.89.17,2.04.24,3.06-1.3.02-2.63.24-3.88,0-1.36-.26-2.62-1.35-3.94-1.38-5.43-.12-9.39-1.2-13.46-6.18-5.06-6.19-12.29-3.41-14.3,4.67-.56,2.24,1.02,7,2.4,7.33,2.77.66,4.75,5.78,8.53,2.06.68-.67,2.38-.46,2.86-1.17,5.29-7.76,11.72-3.44,17.26-1.1,5.58,2.36,11.6,5.29,11.67,13.03,4.04,1.51.52,9.39,4.64,8.19,6.45-1.89.37-6.63-.35-9.69-1.27-5.37-3.19-10.65-5.93-15.74-6.12-11.36-5.45-24.06-5.19-36.53,2.84-1.01.82-5.31,5.08-6.3,3.79-.88,5.24-7.15,3.8-10.13-1.72-3.55-7.73-6.44-11.4-5.47-2.08.55-5.79,8.25-4.2,10.1,7.41,8.66,4.15,17.42,1.16,26.46-3.11-3.89-6.27-7.46-9-11.32-4.8-6.8-6.88-14.76-8.08-22.79-.92-6.11,3.72-10.05,7.86-13.67.87-.76,3.67-.79,4.3-.06,2.71,3.16,4.49,1.64,7.47.13,3.35-1.69,5.89-3.05,5.23-7.08-.45-2.74-5.08-6.52-7.85-6.83-4.86-.54-7.03.27-7.81,5.38-.69,4.51-4.25,5.94-6.5,8.72-.79.98-2.47,1.25-3.74,1.84-.46-1.28-1.22-2.54-1.32-3.84-.21-2.64.04-5.31-.08-7.96-.21-4.59-.17-8.87,4.24-12.02,1.27-.9,2.12-3.73,1.72-5.31-.59-2.29-2.23-4.49-3.9-6.29-1.73-1.86-8.56-1.32-9.72,1.36-1.34,3.09-.74,7.02-.99,10.58,6.52,4.28,3.37,10.58,4.46,17.64-5.66-5.26-12.49-7.38-11.74-15.32-2.78-1.3-5.47-3.23-8.37-3.66-1.57-.23-4.78,1.86-5.03,3.3-.54,3.06-1.73,7.34,2.29,9,2.3.95,4.67,5.17,8,1.2.26-.31,2.19.26,2.88.91,3.59,3.38,7.14,6.82,10.46,10.47,1.4,1.54,2.7,3.5,3.15,5.48.58,2.51-.05,5.29.4,7.85.38,2.19,1.55,4.25,3.15,8.4-10.56-8.84-19.29-16.14-30.13-20.29-2.86-1.1-4.82-3.18-6.5-6.14-3.92-6.91-3.97-15-7.44-22.01-.43-.87,1.52-3.02,2.51-4.49,2.34-3.5,1.89-8.79-1.07-11.67-2.19-2.13-9.15-2.41-11.58-.47-1.83,1.46-2.06,8.86-.34,11.32.21.31.49.61.8.8,8.44,5.23,7.89,14.93,11.18,22.7.11.27-1.23,1.65-1.57,1.54-4.32-1.46-9.07-2.4-12.69-4.92-2.65-1.85-3.86-5.82-5.62-8.89-1.58-2.75-3.34-5.45-4.49-8.38-1.34-3.42-4.32-6.45-.42-10.86,2.45-2.77-.86-6.33-3.65-8.26-1.65-1.14-4.75-2.4-5.88-1.64-2.58,1.74-5.68,3.54-6.13,7.43-.44,3.85,2.49,5.99,4.75,7,7.45,3.35,9.99,9.4,12.16,16.61.85,2.83.76,3.3-1.47,2.8-5.51-1.22-10.98-2.74-16.31-4.59-1.49-.52-2.48-2.57-3.63-3.98-1.32-1.63-2.26-3.76-3.89-4.92-4.19-2.98-10.03-1.72-11.4,2.96-.94,3.22-.66,7.5.77,10.5,1.39,2.91,8,2.66,11.29-.29Z"/>
      <path class="cls-1" d="M37.39,442.28c-1.22-24.9-16.83-52.73-37.39-66.5,1.61,16.4,2.23,32.45,10.12,46.73,5.71,10.33,13.81,18.33,27.27,19.77Z"/>
      <path class="cls-1" d="M115.53,605.21c13.69,4.88,25.93-1.87,29.1-14.35-20.83-10.13-41.66-19.32-64.89-4.7,1.67,1.18,3,2.38,4.54,3.18,10.36,5.43,20.33,11.97,31.24,15.86Z"/>
      <path class="cls-1" d="M62.53,554.77c5.43,3.31,12.32,5.23,18.69,5.67,4.68.32,9.59-2.81,14.4-4.4-.1-.95-.19-1.9-.29-2.85-17.45-16.71-35.08-33.04-63.13-29.55,9.17,11.91,17.89,23.54,30.33,31.12Z"/>
      <path class="cls-1" d="M254.91,610.96c-.87-4.37-2.46-6.01-7.25-4.28-20.11,7.28-34.79,19.39-38.38,44.03,11.04-3.3,21.95-5.48,31.9-9.84,10.77-4.71,16.04-18.34,13.73-29.92Z"/>
      <path class="cls-1" d="M58.29,502.31c-11.46-26.69-34.01-48.24-54.14-51.68,6.3,14.88,11.66,29.91,22.74,41.52,8.15,8.54,18,14.49,31.41,10.16Z"/>
      <path class="cls-1" d="M180.27,634.76c10.46-1.86,18.1-10.17,19.42-20.1.54-4.08-.29-5.97-4.95-6.34-21.15-1.68-40.4,1.09-53.17,21.81,12.88,2.95,25.42,6.99,38.69,4.63Z"/>
      <path class="cls-1" d="M104.07,543.17c12.1-15.79,6.44-37.73-2.34-56.72-17.05,17.8-16.26,39.83,2.34,56.72Z"/>
      <path class="cls-1" d="M128.81,521.35c-13.07,23.9,1.16,46.4,20.37,55.81,4.03-22.81-7.46-39.45-20.37-55.81Z"/>
      <path class="cls-1" d="M247.06,590.09c-9.35-20.85-26.71-29.62-46.85-34.61,5.78,26.41,25.02,41.09,46.85,34.61Z"/>
      <path class="cls-1" d="M71.17,495.99c18.48-12.33,16.05-31.31,15.96-50.12-23.45,7.73-31.21,32.34-15.96,50.12Z"/>
      <path class="cls-1" d="M162.96,545.01c-3.69,24.24,12.01,45.95,35.78,48.53-3.06-23.32-18.42-36.69-35.78-48.53Z"/>
      <path class="cls-1" d="M84.2,404.72c-25.02-3.07-39.2,12.81-32.26,36.73,19.06-.77,27.34-16.27,32.26-36.73Z"/>
      <path class="cls-1" d="M694.3,406.54c8.45-15.3,9.12-32.49,10.84-50.06-22.03,14.75-38.76,44.57-40.06,71.24,14.42-1.54,23.1-10.11,29.22-21.18Z"/>
      <path class="cls-1" d="M619.71,581.86c-24.89-15.66-47.2-5.82-69.52,5.03,3.39,13.37,16.52,20.6,31.18,15.37,11.69-4.17,22.38-11.17,33.47-16.99,1.65-.86,3.08-2.14,4.87-3.41Z"/>
      <path class="cls-1" d="M602.69,549.59c5.15,1.7,10.42,5.05,15.43,4.71,6.83-.47,14.21-2.53,20.03-6.07,13.33-8.13,22.66-20.59,32.49-33.35-30.05-3.74-48.94,13.76-67.64,31.66-.1,1.02-.2,2.03-.31,3.05Z"/>
      <path class="cls-1" d="M439.8,603.85c-5.13-1.86-6.83-.1-7.77,4.58-2.48,12.4,3.17,27,14.71,32.05,10.66,4.67,22.34,7,34.17,10.54-3.84-26.41-19.57-39.38-41.12-47.18Z"/>
      <path class="cls-1" d="M676.34,481.14c11.87-12.44,17.61-28.54,24.36-44.48-21.57,3.68-45.73,26.78-58.01,55.37,14.36,4.64,24.92-1.74,33.65-10.89Z"/>
      <path class="cls-1" d="M491.19,612.4c1.41,10.63,9.6,19.54,20.81,21.53,14.22,2.53,27.65-1.79,41.45-4.96-13.68-22.19-34.3-25.16-56.96-23.37-4.98.39-5.88,2.42-5.3,6.79Z"/>
      <path class="cls-1" d="M593.64,535.8c19.93-18.09,20.78-41.69,2.51-60.76-9.41,20.34-15.48,43.85-2.51,60.76Z"/>
      <path class="cls-1" d="M567.14,512.42c-13.84,17.53-26.15,35.35-21.82,59.79,20.59-10.08,35.83-34.19,21.82-59.79Z"/>
      <path class="cls-1" d="M440.45,586.07c23.39,6.94,44-8.79,50.19-37.08-21.58,5.34-40.17,14.74-50.19,37.08Z"/>
      <path class="cls-1" d="M628.89,485.26c16.34-19.04,8.02-45.41-17.1-53.69-.1,20.15-2.7,40.48,17.1,53.69Z"/>
      <path class="cls-1" d="M530.54,537.78c-18.59,12.69-35.05,27-38.33,51.99,25.46-2.76,42.28-26.02,38.33-51.99Z"/>
      <path class="cls-1" d="M649.49,426.83c7.43-25.63-7.76-42.64-34.57-39.35,5.27,21.92,14.15,38.52,34.57,39.35Z"/>
      <path class="cls-1" d="M592.89,162.79c-9.22-7.62-28.55-13.67-68.32.82-53.4,19.45-130.72,116.02-155.83,148.77-.26-2.34-1-4.43-2.21-6.26-1.33-2-3.07-3.4-4.87-4.4,1.29-8.28,7.2-37.94,26.65-45.41,26.87-10.32,17.33-49.76,16.91-51.43-.42-1.67-2.11-2.69-3.79-2.27-1.67.42-2.69,2.11-2.27,3.79.09.36,8.62,35.74-13.09,44.08-21.89,8.41-28.69,38.64-30.42,49.16-1.72-.31-2.95-.32-3.08-.32s-1.37.02-3.09.32c-1.73-10.53-8.52-40.75-30.42-49.16-21.71-8.34-13.18-43.72-13.09-44.08.42-1.67-.6-3.37-2.27-3.79-1.68-.42-3.37.6-3.79,2.27-.42,1.67-9.96,41.11,16.91,51.43,19.41,7.46,25.35,37.13,26.65,45.41-1.8,1-3.54,2.4-4.87,4.4-1.21,1.82-1.95,3.91-2.21,6.26-25.1-32.76-102.43-129.32-155.83-148.77-39.77-14.49-59.1-8.44-68.32-.82-9.08,7.51-12.73,19.95-10.29,35.03.39,2.43,1.21,4.82,2.43,7.12l19.19,36.12c.67,1.27,1.48,2.5,2.4,3.66,2.44,3.06,4.5,6.41,6.12,9.97,1.09,2.38,1.99,4.86,2.67,7.37.68,2.48.77,5.07.28,7.7-.67,3.58-1.04,9.13.97,15.21,1.26,3.81,3.26,7.3,5.94,10.37,1.34,1.54,2.29,2.98,2.91,4.42.57,1.34.96,2.75,1.14,4.19.25,1.97.12,3.96-.38,5.91-.26,1-.43,1.91-.54,2.79-.52,4.26-.41,10.77,3.03,17.53,4.47,8.77,12.01,12.86,16.11,14.51,1.16.47,2.37.84,3.62,1.11,4.92,1.08,9.96,1.84,14.96,2.27,5.25.45,10.54.53,15.81.27-11.19,6.52-21.16,14.73-29.39,24.28-5.39,6.25-10.12,13.14-14.05,20.48-1.06,1.68-7.31,12.39-2.45,24.36,3.08,7.58,9,11.61,12.26,13.34,1.32.7,2.52,1.56,3.56,2.55,2.36,2.24,4.49,4.74,6.32,7.42,2.24,3.28,4.05,6.85,5.38,10.6.39,1.11.67,2.26.82,3.39,1.03,7.74,4.14,19.08,13.11,29.16,16.67,18.73,40.74,18.47,47.71,17.95.77-.06,1.48-.07,2.18-.03,11.14.54,49.14.06,70-28.58,5.07-6.96,8.65-14.99,10.62-23.78l12.68-48.56c.59,4.87,1.39,10.22,2.28,16.07.63,4.09.88,9.92,1.14,16.11.4,9.41.86,20.07,2.71,29.52.87,4.45,4.5,7.43,9.03,7.43s8.16-2.99,9.03-7.43c1.85-9.45,2.31-20.11,2.71-29.52.27-6.18.52-12.02,1.14-16.11.9-5.85,1.69-11.2,2.28-16.07l12.65,48.46c2,8.89,5.58,16.92,10.65,23.88,20.86,28.64,58.85,29.12,70,28.58.7-.03,1.41-.02,2.18.03,1.07.08,2.54.15,4.33.15,9.86,0,29.27-2.25,43.38-18.1,8.97-10.08,12.08-21.42,13.11-29.16.15-1.13.43-2.27.82-3.39,1.33-3.75,3.14-7.32,5.38-10.6,1.83-2.68,3.96-5.18,6.32-7.42,1.04-.99,2.24-1.85,3.57-2.55,3.25-1.73,9.17-5.76,12.25-13.34,4.86-11.97-1.38-22.68-2.45-24.36-3.94-7.34-8.67-14.23-14.05-20.48-8.23-9.55-18.2-17.76-29.39-24.28,5.28.27,10.56.18,15.81-.27,5.01-.43,10.04-1.19,14.96-2.27,1.25-.27,2.46-.65,3.62-1.11,4.1-1.65,11.64-5.74,16.11-14.51,3.44-6.76,3.55-13.26,3.03-17.52-.1-.88-.28-1.79-.54-2.79-.5-1.95-.63-3.94-.38-5.91.18-1.44.57-2.85,1.14-4.19.62-1.44,1.57-2.88,2.91-4.42,2.68-3.07,4.68-6.56,5.94-10.37,2.02-6.09,1.64-11.63.97-15.21-.49-2.63-.4-5.22.28-7.7.69-2.52,1.59-5,2.67-7.37,1.63-3.56,3.69-6.91,6.13-9.97.92-1.16,1.73-2.39,2.4-3.66l19.19-36.12c1.22-2.3,2.04-4.7,2.43-7.12,2.44-15.08-1.21-27.52-10.29-35.03ZM218.1,229.25c1.27-.73,2.75-1.07,4.41-1.07,17.84,0,56.54,39.9,83.59,73.05-74.87-40.71-91.24-59.04-91.37-67.28-.02-1.18.31-2.95,3.37-4.7ZM173.73,250.89c11.32-19.95,60.07,25.35,60.07,25.35-30.6-.6-71.4-5.4-60.07-25.35ZM181.93,327.88c-.87-.8-3.5-3.25-1.25-10.96,2.78-11.08,8.58-18.32,17.73-22.16,5.25-2.2,11.26-3.13,17.68-3.13,23.27,0,51.86,12.19,68.22,20.26-17.86,1.02-38.72,7.9-39.96,8.32-19.48,7.29-53.65,15.83-62.43,7.67ZM204.12,393.89c-1.57-.58-3.75-1.86-4.48-6.32-.71-4.31.44-8.44,3.5-12.63,16.55-22.65,80.31-36.41,106.62-41.22-29.83,24.17-87.78,66.75-105.64,60.17ZM249.11,476.73c-26.28-.59-29.98-12.73-28.92-24.55,1.07-11.98,6.89-23.05,15.81-31.13l95.69-86.7c-21.37,115.97-26.97,143.62-82.58,142.37ZM482.63,228.18c1.66,0,3.14.34,4.41,1.07,3.06,1.75,3.39,3.52,3.37,4.7-.13,8.24-16.5,26.58-91.37,67.28,27.06-33.16,65.76-73.05,83.59-73.05ZM456.03,476.73c-55.61,1.25-61.21-26.4-82.58-142.37l95.69,86.7c8.92,8.08,14.74,19.14,15.81,31.13,1.06,11.82-2.64,23.96-28.92,24.55ZM505.51,387.58c-.73,4.45-2.91,5.74-4.48,6.32-1.26.46-2.71.68-4.34.68-21.54,0-73.56-38.39-101.3-60.85,26.31,4.82,90.06,18.58,106.61,41.22,3.06,4.19,4.21,8.32,3.5,12.63ZM523.21,327.88c-8.78,8.15-42.95-.38-62.53-7.71-1.15-.38-21.99-7.26-39.85-8.28,20.88-10.29,61.65-27.3,85.9-17.13,9.15,3.84,14.95,11.08,17.76,22.28,2.22,7.59-.41,10.04-1.28,10.84ZM471.34,276.24s48.75-45.3,60.07-25.35-29.47,24.75-60.07,25.35Z"/>
    </g>
  </g>
</svg>