<svg width="64" height="64" viewBox="0 0 64 64" fill="none" xmlns="http://www.w3.org/2000/svg">
<path d="M32 10.6667C32 10.6667 15.3215 10.6667 11.1615 11.7813C8.8655 12.3947 7.06129 14.2015 6.44796 16.4949C5.33329 20.6549 5.33337 32.0001 5.33337 32.0001C5.33337 32.0001 5.33329 43.3453 6.44796 47.5053C7.06129 49.8013 8.86817 51.6055 11.1615 52.2188C15.3215 53.3335 32 53.3334 32 53.3334C32 53.3334 48.6786 53.3335 52.8386 52.2188C55.1319 51.6055 56.9388 49.7986 57.5521 47.5053C58.6668 43.3453 58.6667 32.0001 58.6667 32.0001C58.6667 32.0001 58.6668 20.6549 57.5521 16.4949C56.9388 14.2015 55.1319 12.3947 52.8386 11.7813C48.6786 10.6667 32 10.6667 32 10.6667ZM32 16.0001C39.6854 16.0001 49.309 16.3564 51.4584 16.9324C51.909 17.0524 52.2784 17.4217 52.4011 17.8751C53.0437 20.2697 53.3334 27.5787 53.3334 32.0001C53.3334 36.4214 53.0437 43.7277 52.4011 46.1251C52.2811 46.5757 51.9117 46.9451 51.4584 47.0678C49.3117 47.6438 39.6854 48.0001 32 48.0001C24.3174 48.0001 14.6937 47.6438 12.5417 47.0678C12.091 46.9478 11.7217 46.5784 11.599 46.1251C10.9563 43.7304 10.6667 36.4214 10.6667 32.0001C10.6667 27.5787 10.9563 20.2699 11.599 17.8699C11.719 17.4219 12.0884 17.0524 12.5417 16.9324C14.6884 16.3564 24.3147 16.0001 32 16.0001ZM26.6667 22.7605V41.2397L42.6667 32.0001L26.6667 22.7605Z" fill="#F7F9F6"/>
</svg>
